<?xml version="1.0" encoding="utf-8" standalone="no"?>
<!DOCTYPE svg PUBLIC "-//W3C//DTD SVG 1.1//EN"
  "http://www.w3.org/Graphics/SVG/1.1/DTD/svg11.dtd">
<svg xmlns:xlink="http://www.w3.org/1999/xlink" width="712.433125pt" height="414.322322pt" viewBox="0 0 712.433125 414.322322" xmlns="http://www.w3.org/2000/svg" version="1.1">
 <metadata>
  <rdf:RDF xmlns:dc="http://purl.org/dc/elements/1.1/" xmlns:cc="http://creativecommons.org/ns#" xmlns:rdf="http://www.w3.org/1999/02/22-rdf-syntax-ns#">
   <cc:Work>
    <dc:type rdf:resource="http://purl.org/dc/dcmitype/StillImage"/>
    <dc:date>2025-04-02T11:51:50.435160</dc:date>
    <dc:format>image/svg+xml</dc:format>
    <dc:creator>
     <cc:Agent>
      <dc:title>Matplotlib v3.9.3, https://matplotlib.org/</dc:title>
     </cc:Agent>
    </dc:creator>
   </cc:Work>
  </rdf:RDF>
 </metadata>
 <defs>
  <style type="text/css">*{stroke-linejoin: round; stroke-linecap: butt}</style>
 </defs>
 <g id="figure_1">
  <g id="patch_1">
   <path d="M -0 414.322322 
L 712.433125 414.322322 
L 712.433125 0 
L -0 0 
z
" style="fill: #ffffff"/>
  </g>
  <g id="axes_1">
   <g id="patch_2">
    <path d="M 40.603125 319.424375 
L 705.233125 319.424375 
L 705.233125 23.735625 
L 40.603125 23.735625 
z
" style="fill: #ffffff"/>
   </g>
   <g id="patch_3">
    <path d="M 68.296042 319.424375 
L 76.208304 319.424375 
L 76.208304 162.683214 
L 68.296042 162.683214 
z
" clip-path="url(#p3b434d2bb2)" style="fill: #add8e6"/>
   </g>
   <g id="patch_4">
    <path d="M 179.067708 319.424375 
L 186.97997 319.424375 
L 186.97997 157.097051 
L 179.067708 157.097051 
z
" clip-path="url(#p3b434d2bb2)" style="fill: #add8e6"/>
   </g>
   <g id="patch_5">
    <path d="M 289.839375 319.424375 
L 297.751637 319.424375 
L 297.751637 111.421954 
L 289.839375 111.421954 
z
" clip-path="url(#p3b434d2bb2)" style="fill: #add8e6"/>
   </g>
   <g id="patch_6">
    <path d="M 400.611042 319.424375 
L 408.523304 319.424375 
L 408.523304 319.424375 
L 400.611042 319.424375 
z
" clip-path="url(#p3b434d2bb2)" style="fill: #add8e6"/>
   </g>
   <g id="patch_7">
    <path d="M 511.382708 319.424375 
L 519.29497 319.424375 
L 519.29497 99.263834 
L 511.382708 99.263834 
z
" clip-path="url(#p3b434d2bb2)" style="fill: #add8e6"/>
   </g>
   <g id="patch_8">
    <path d="M 622.154375 319.424375 
L 630.066637 319.424375 
L 630.066637 100.906823 
L 622.154375 100.906823 
z
" clip-path="url(#p3b434d2bb2)" style="fill: #add8e6"/>
   </g>
   <g id="patch_9">
    <path d="M 76.208304 319.424375 
L 84.120565 319.424375 
L 84.120565 138.038377 
L 76.208304 138.038377 
z
" clip-path="url(#p3b434d2bb2)" style="fill: #0000ff"/>
   </g>
   <g id="patch_10">
    <path d="M 186.97997 319.424375 
L 194.892232 319.424375 
L 194.892232 157.097051 
L 186.97997 157.097051 
z
" clip-path="url(#p3b434d2bb2)" style="fill: #0000ff"/>
   </g>
   <g id="patch_11">
    <path d="M 297.751637 319.424375 
L 305.663899 319.424375 
L 305.663899 147.239116 
L 297.751637 147.239116 
z
" clip-path="url(#p3b434d2bb2)" style="fill: #0000ff"/>
   </g>
   <g id="patch_12">
    <path d="M 408.523304 319.424375 
L 416.435565 319.424375 
L 416.435565 112.802065 
L 408.523304 112.802065 
z
" clip-path="url(#p3b434d2bb2)" style="fill: #0000ff"/>
   </g>
   <g id="patch_13">
    <path d="M 519.29497 319.424375 
L 527.207232 319.424375 
L 527.207232 102.221215 
L 519.29497 102.221215 
z
" clip-path="url(#p3b434d2bb2)" style="fill: #0000ff"/>
   </g>
   <g id="patch_14">
    <path d="M 630.066637 319.424375 
L 637.978899 319.424375 
L 637.978899 117.008117 
L 630.066637 117.008117 
z
" clip-path="url(#p3b434d2bb2)" style="fill: #0000ff"/>
   </g>
   <g id="patch_15">
    <path d="M 84.120565 319.424375 
L 92.032827 319.424375 
L 92.032827 319.424375 
L 84.120565 319.424375 
z
" clip-path="url(#p3b434d2bb2)" style="fill: #0000ff"/>
   </g>
   <g id="patch_16">
    <path d="M 194.892232 319.424375 
L 202.804494 319.424375 
L 202.804494 319.424375 
L 194.892232 319.424375 
z
" clip-path="url(#p3b434d2bb2)" style="fill: #0000ff"/>
   </g>
   <g id="patch_17">
    <path d="M 305.663899 319.424375 
L 313.576161 319.424375 
L 313.576161 319.424375 
L 305.663899 319.424375 
z
" clip-path="url(#p3b434d2bb2)" style="fill: #0000ff"/>
   </g>
   <g id="patch_18">
    <path d="M 416.435565 319.424375 
L 424.347827 319.424375 
L 424.347827 93.349074 
L 416.435565 93.349074 
z
" clip-path="url(#p3b434d2bb2)" style="fill: #0000ff"/>
   </g>
   <g id="patch_19">
    <path d="M 527.207232 319.424375 
L 535.119494 319.424375 
L 535.119494 319.424375 
L 527.207232 319.424375 
z
" clip-path="url(#p3b434d2bb2)" style="fill: #0000ff"/>
   </g>
   <g id="patch_20">
    <path d="M 637.978899 319.424375 
L 645.891161 319.424375 
L 645.891161 319.424375 
L 637.978899 319.424375 
z
" clip-path="url(#p3b434d2bb2)" style="fill: #0000ff"/>
   </g>
   <g id="patch_21">
    <path d="M 92.032827 319.424375 
L 99.945089 319.424375 
L 99.945089 319.424375 
L 92.032827 319.424375 
z
" clip-path="url(#p3b434d2bb2)" style="fill: #90ee90"/>
   </g>
   <g id="patch_22">
    <path d="M 202.804494 319.424375 
L 210.716756 319.424375 
L 210.716756 135.738193 
L 202.804494 135.738193 
z
" clip-path="url(#p3b434d2bb2)" style="fill: #90ee90"/>
   </g>
   <g id="patch_23">
    <path d="M 313.576161 319.424375 
L 321.488423 319.424375 
L 321.488423 123.580073 
L 313.576161 123.580073 
z
" clip-path="url(#p3b434d2bb2)" style="fill: #90ee90"/>
   </g>
   <g id="patch_24">
    <path d="M 424.347827 319.424375 
L 432.260089 319.424375 
L 432.260089 319.424375 
L 424.347827 319.424375 
z
" clip-path="url(#p3b434d2bb2)" style="fill: #90ee90"/>
   </g>
   <g id="patch_25">
    <path d="M 535.119494 319.424375 
L 543.031756 319.424375 
L 543.031756 123.580073 
L 535.119494 123.580073 
z
" clip-path="url(#p3b434d2bb2)" style="fill: #90ee90"/>
   </g>
   <g id="patch_26">
    <path d="M 645.891161 319.424375 
L 653.803423 319.424375 
L 653.803423 319.424375 
L 645.891161 319.424375 
z
" clip-path="url(#p3b434d2bb2)" style="fill: #90ee90"/>
   </g>
   <g id="patch_27">
    <path d="M 99.945089 319.424375 
L 107.857351 319.424375 
L 107.857351 319.424375 
L 99.945089 319.424375 
z
" clip-path="url(#p3b434d2bb2)" style="fill: #008000"/>
   </g>
   <g id="patch_28">
    <path d="M 210.716756 319.424375 
L 218.629018 319.424375 
L 218.629018 96.96365 
L 210.716756 96.96365 
z
" clip-path="url(#p3b434d2bb2)" style="fill: #008000"/>
   </g>
   <g id="patch_29">
    <path d="M 321.488423 319.424375 
L 329.400685 319.424375 
L 329.400685 146.253323 
L 321.488423 146.253323 
z
" clip-path="url(#p3b434d2bb2)" style="fill: #008000"/>
   </g>
   <g id="patch_30">
    <path d="M 432.260089 319.424375 
L 440.172351 319.424375 
L 440.172351 75.604791 
L 432.260089 75.604791 
z
" clip-path="url(#p3b434d2bb2)" style="fill: #008000"/>
   </g>
   <g id="patch_31">
    <path d="M 543.031756 319.424375 
L 550.944018 319.424375 
L 550.944018 146.253323 
L 543.031756 146.253323 
z
" clip-path="url(#p3b434d2bb2)" style="fill: #008000"/>
   </g>
   <g id="patch_32">
    <path d="M 653.803423 319.424375 
L 661.715685 319.424375 
L 661.715685 319.424375 
L 653.803423 319.424375 
z
" clip-path="url(#p3b434d2bb2)" style="fill: #008000"/>
   </g>
   <g id="patch_33">
    <path d="M 107.857351 319.424375 
L 115.769613 319.424375 
L 115.769613 319.424375 
L 107.857351 319.424375 
z
" clip-path="url(#p3b434d2bb2)" style="fill: #90ee90"/>
   </g>
   <g id="patch_34">
    <path d="M 218.629018 319.424375 
L 226.54128 319.424375 
L 226.54128 319.424375 
L 218.629018 319.424375 
z
" clip-path="url(#p3b434d2bb2)" style="fill: #90ee90"/>
   </g>
   <g id="patch_35">
    <path d="M 329.400685 319.424375 
L 337.312946 319.424375 
L 337.312946 115.693725 
L 329.400685 115.693725 
z
" clip-path="url(#p3b434d2bb2)" style="fill: #90ee90"/>
   </g>
   <g id="patch_36">
    <path d="M 440.172351 319.424375 
L 448.084613 319.424375 
L 448.084613 319.424375 
L 440.172351 319.424375 
z
" clip-path="url(#p3b434d2bb2)" style="fill: #90ee90"/>
   </g>
   <g id="patch_37">
    <path d="M 550.944018 319.424375 
L 558.85628 319.424375 
L 558.85628 319.424375 
L 550.944018 319.424375 
z
" clip-path="url(#p3b434d2bb2)" style="fill: #90ee90"/>
   </g>
   <g id="patch_38">
    <path d="M 661.715685 319.424375 
L 669.627946 319.424375 
L 669.627946 319.424375 
L 661.715685 319.424375 
z
" clip-path="url(#p3b434d2bb2)" style="fill: #90ee90"/>
   </g>
   <g id="patch_39">
    <path d="M 115.769613 319.424375 
L 123.681875 319.424375 
L 123.681875 319.424375 
L 115.769613 319.424375 
z
" clip-path="url(#p3b434d2bb2)" style="fill: #008000"/>
   </g>
   <g id="patch_40">
    <path d="M 226.54128 319.424375 
L 234.453542 319.424375 
L 234.453542 319.424375 
L 226.54128 319.424375 
z
" clip-path="url(#p3b434d2bb2)" style="fill: #008000"/>
   </g>
   <g id="patch_41">
    <path d="M 337.312946 319.424375 
L 345.225208 319.424375 
L 345.225208 135.409595 
L 337.312946 135.409595 
z
" clip-path="url(#p3b434d2bb2)" style="fill: #008000"/>
   </g>
   <g id="patch_42">
    <path d="M 448.084613 319.424375 
L 455.996875 319.424375 
L 455.996875 37.816042 
L 448.084613 37.816042 
z
" clip-path="url(#p3b434d2bb2)" style="fill: #008000"/>
   </g>
   <g id="patch_43">
    <path d="M 558.85628 319.424375 
L 566.768542 319.424375 
L 566.768542 319.424375 
L 558.85628 319.424375 
z
" clip-path="url(#p3b434d2bb2)" style="fill: #008000"/>
   </g>
   <g id="patch_44">
    <path d="M 669.627946 319.424375 
L 677.540208 319.424375 
L 677.540208 319.424375 
L 669.627946 319.424375 
z
" clip-path="url(#p3b434d2bb2)" style="fill: #008000"/>
   </g>
   <g id="matplotlib.axis_1">
    <g id="xtick_1">
     <g id="line2d_1">
      <defs>
       <path id="mf3a7920f3b" d="M 0 0 
L 0 3.5 
" style="stroke: #000000; stroke-width: 0.8"/>
      </defs>
      <g>
       <use xlink:href="#mf3a7920f3b" x="95.988958" y="319.424375" style="stroke: #000000; stroke-width: 0.8"/>
      </g>
     </g>
     <g id="text_1">
      <!-- Løype -->
      <g transform="translate(80.93349 334.022812) scale(0.1 -0.1)">
       <defs>
        <path id="DejaVuSans-4c" d="M 628 4666 
L 1259 4666 
L 1259 531 
L 3531 531 
L 3531 0 
L 628 0 
L 628 4666 
z
" transform="scale(0.015625)"/>
        <path id="DejaVuSans-f8" d="M 2828 2503 
L 1306 653 
Q 1434 522 1595 459 
Q 1756 397 1959 397 
Q 2419 397 2687 759 
Q 2956 1122 2956 1747 
Q 2956 1994 2925 2176 
Q 2894 2359 2828 2503 
z
M 2606 2841 
Q 2475 2969 2314 3033 
Q 2153 3097 1959 3097 
Q 1488 3097 1223 2730 
Q 959 2363 959 1703 
Q 959 1478 989 1306 
Q 1019 1134 1081 991 
L 2606 2841 
z
M 691 519 
Q 522 759 437 1067 
Q 353 1375 353 1747 
Q 353 2609 779 3096 
Q 1206 3584 1959 3584 
Q 2250 3584 2498 3504 
Q 2747 3425 2956 3263 
L 3391 3788 
L 3688 3541 
L 3231 2981 
Q 3397 2741 3481 2431 
Q 3566 2122 3566 1747 
Q 3566 888 3137 398 
Q 2709 -91 1959 -91 
Q 1659 -91 1407 -9 
Q 1156 72 959 231 
L 525 -294 
L 225 -50 
L 691 519 
z
" transform="scale(0.015625)"/>
        <path id="DejaVuSans-79" d="M 2059 -325 
Q 1816 -950 1584 -1140 
Q 1353 -1331 966 -1331 
L 506 -1331 
L 506 -850 
L 844 -850 
Q 1081 -850 1212 -737 
Q 1344 -625 1503 -206 
L 1606 56 
L 191 3500 
L 800 3500 
L 1894 763 
L 2988 3500 
L 3597 3500 
L 2059 -325 
z
" transform="scale(0.015625)"/>
        <path id="DejaVuSans-70" d="M 1159 525 
L 1159 -1331 
L 581 -1331 
L 581 3500 
L 1159 3500 
L 1159 2969 
Q 1341 3281 1617 3432 
Q 1894 3584 2278 3584 
Q 2916 3584 3314 3078 
Q 3713 2572 3713 1747 
Q 3713 922 3314 415 
Q 2916 -91 2278 -91 
Q 1894 -91 1617 61 
Q 1341 213 1159 525 
z
M 3116 1747 
Q 3116 2381 2855 2742 
Q 2594 3103 2138 3103 
Q 1681 3103 1420 2742 
Q 1159 2381 1159 1747 
Q 1159 1113 1420 752 
Q 1681 391 2138 391 
Q 2594 391 2855 752 
Q 3116 1113 3116 1747 
z
" transform="scale(0.015625)"/>
        <path id="DejaVuSans-65" d="M 3597 1894 
L 3597 1613 
L 953 1613 
Q 991 1019 1311 708 
Q 1631 397 2203 397 
Q 2534 397 2845 478 
Q 3156 559 3463 722 
L 3463 178 
Q 3153 47 2828 -22 
Q 2503 -91 2169 -91 
Q 1331 -91 842 396 
Q 353 884 353 1716 
Q 353 2575 817 3079 
Q 1281 3584 2069 3584 
Q 2775 3584 3186 3129 
Q 3597 2675 3597 1894 
z
M 3022 2063 
Q 3016 2534 2758 2815 
Q 2500 3097 2075 3097 
Q 1594 3097 1305 2825 
Q 1016 2553 972 2059 
L 3022 2063 
z
" transform="scale(0.015625)"/>
       </defs>
       <use xlink:href="#DejaVuSans-4c"/>
       <use xlink:href="#DejaVuSans-f8" x="55.712891"/>
       <use xlink:href="#DejaVuSans-79" x="116.894531"/>
       <use xlink:href="#DejaVuSans-70" x="176.074219"/>
       <use xlink:href="#DejaVuSans-65" x="239.550781"/>
      </g>
     </g>
    </g>
    <g id="xtick_2">
     <g id="line2d_2">
      <g>
       <use xlink:href="#mf3a7920f3b" x="206.760625" y="319.424375" style="stroke: #000000; stroke-width: 0.8"/>
      </g>
     </g>
     <g id="text_2">
      <!-- Myr -->
      <g transform="translate(197.431719 334.022812) scale(0.1 -0.1)">
       <defs>
        <path id="DejaVuSans-4d" d="M 628 4666 
L 1569 4666 
L 2759 1491 
L 3956 4666 
L 4897 4666 
L 4897 0 
L 4281 0 
L 4281 4097 
L 3078 897 
L 2444 897 
L 1241 4097 
L 1241 0 
L 628 0 
L 628 4666 
z
" transform="scale(0.015625)"/>
        <path id="DejaVuSans-72" d="M 2631 2963 
Q 2534 3019 2420 3045 
Q 2306 3072 2169 3072 
Q 1681 3072 1420 2755 
Q 1159 2438 1159 1844 
L 1159 0 
L 581 0 
L 581 3500 
L 1159 3500 
L 1159 2956 
Q 1341 3275 1631 3429 
Q 1922 3584 2338 3584 
Q 2397 3584 2469 3576 
Q 2541 3569 2628 3553 
L 2631 2963 
z
" transform="scale(0.015625)"/>
       </defs>
       <use xlink:href="#DejaVuSans-4d"/>
       <use xlink:href="#DejaVuSans-79" x="86.279297"/>
       <use xlink:href="#DejaVuSans-72" x="145.458984"/>
      </g>
     </g>
    </g>
    <g id="xtick_3">
     <g id="line2d_3">
      <g>
       <use xlink:href="#mf3a7920f3b" x="317.532292" y="319.424375" style="stroke: #000000; stroke-width: 0.8"/>
      </g>
     </g>
     <g id="text_3">
      <!-- Rema 1000 -->
      <g transform="translate(288.958073 334.022812) scale(0.1 -0.1)">
       <defs>
        <path id="DejaVuSans-52" d="M 2841 2188 
Q 3044 2119 3236 1894 
Q 3428 1669 3622 1275 
L 4263 0 
L 3584 0 
L 2988 1197 
Q 2756 1666 2539 1819 
Q 2322 1972 1947 1972 
L 1259 1972 
L 1259 0 
L 628 0 
L 628 4666 
L 2053 4666 
Q 2853 4666 3247 4331 
Q 3641 3997 3641 3322 
Q 3641 2881 3436 2590 
Q 3231 2300 2841 2188 
z
M 1259 4147 
L 1259 2491 
L 2053 2491 
Q 2509 2491 2742 2702 
Q 2975 2913 2975 3322 
Q 2975 3731 2742 3939 
Q 2509 4147 2053 4147 
L 1259 4147 
z
" transform="scale(0.015625)"/>
        <path id="DejaVuSans-6d" d="M 3328 2828 
Q 3544 3216 3844 3400 
Q 4144 3584 4550 3584 
Q 5097 3584 5394 3201 
Q 5691 2819 5691 2113 
L 5691 0 
L 5113 0 
L 5113 2094 
Q 5113 2597 4934 2840 
Q 4756 3084 4391 3084 
Q 3944 3084 3684 2787 
Q 3425 2491 3425 1978 
L 3425 0 
L 2847 0 
L 2847 2094 
Q 2847 2600 2669 2842 
Q 2491 3084 2119 3084 
Q 1678 3084 1418 2786 
Q 1159 2488 1159 1978 
L 1159 0 
L 581 0 
L 581 3500 
L 1159 3500 
L 1159 2956 
Q 1356 3278 1631 3431 
Q 1906 3584 2284 3584 
Q 2666 3584 2933 3390 
Q 3200 3197 3328 2828 
z
" transform="scale(0.015625)"/>
        <path id="DejaVuSans-61" d="M 2194 1759 
Q 1497 1759 1228 1600 
Q 959 1441 959 1056 
Q 959 750 1161 570 
Q 1363 391 1709 391 
Q 2188 391 2477 730 
Q 2766 1069 2766 1631 
L 2766 1759 
L 2194 1759 
z
M 3341 1997 
L 3341 0 
L 2766 0 
L 2766 531 
Q 2569 213 2275 61 
Q 1981 -91 1556 -91 
Q 1019 -91 701 211 
Q 384 513 384 1019 
Q 384 1609 779 1909 
Q 1175 2209 1959 2209 
L 2766 2209 
L 2766 2266 
Q 2766 2663 2505 2880 
Q 2244 3097 1772 3097 
Q 1472 3097 1187 3025 
Q 903 2953 641 2809 
L 641 3341 
Q 956 3463 1253 3523 
Q 1550 3584 1831 3584 
Q 2591 3584 2966 3190 
Q 3341 2797 3341 1997 
z
" transform="scale(0.015625)"/>
        <path id="DejaVuSans-20" transform="scale(0.015625)"/>
        <path id="DejaVuSans-31" d="M 794 531 
L 1825 531 
L 1825 4091 
L 703 3866 
L 703 4441 
L 1819 4666 
L 2450 4666 
L 2450 531 
L 3481 531 
L 3481 0 
L 794 0 
L 794 531 
z
" transform="scale(0.015625)"/>
        <path id="DejaVuSans-30" d="M 2034 4250 
Q 1547 4250 1301 3770 
Q 1056 3291 1056 2328 
Q 1056 1369 1301 889 
Q 1547 409 2034 409 
Q 2525 409 2770 889 
Q 3016 1369 3016 2328 
Q 3016 3291 2770 3770 
Q 2525 4250 2034 4250 
z
M 2034 4750 
Q 2819 4750 3233 4129 
Q 3647 3509 3647 2328 
Q 3647 1150 3233 529 
Q 2819 -91 2034 -91 
Q 1250 -91 836 529 
Q 422 1150 422 2328 
Q 422 3509 836 4129 
Q 1250 4750 2034 4750 
z
" transform="scale(0.015625)"/>
       </defs>
       <use xlink:href="#DejaVuSans-52"/>
       <use xlink:href="#DejaVuSans-65" x="64.982422"/>
       <use xlink:href="#DejaVuSans-6d" x="126.505859"/>
       <use xlink:href="#DejaVuSans-61" x="223.917969"/>
       <use xlink:href="#DejaVuSans-20" x="285.197266"/>
       <use xlink:href="#DejaVuSans-31" x="316.984375"/>
       <use xlink:href="#DejaVuSans-30" x="380.607422"/>
       <use xlink:href="#DejaVuSans-30" x="444.230469"/>
       <use xlink:href="#DejaVuSans-30" x="507.853516"/>
      </g>
     </g>
    </g>
    <g id="xtick_4">
     <g id="line2d_4">
      <g>
       <use xlink:href="#mf3a7920f3b" x="428.303958" y="319.424375" style="stroke: #000000; stroke-width: 0.8"/>
      </g>
     </g>
     <g id="text_4">
      <!-- Sentrum -->
      <g transform="translate(406.82974 334.022812) scale(0.1 -0.1)">
       <defs>
        <path id="DejaVuSans-53" d="M 3425 4513 
L 3425 3897 
Q 3066 4069 2747 4153 
Q 2428 4238 2131 4238 
Q 1616 4238 1336 4038 
Q 1056 3838 1056 3469 
Q 1056 3159 1242 3001 
Q 1428 2844 1947 2747 
L 2328 2669 
Q 3034 2534 3370 2195 
Q 3706 1856 3706 1288 
Q 3706 609 3251 259 
Q 2797 -91 1919 -91 
Q 1588 -91 1214 -16 
Q 841 59 441 206 
L 441 856 
Q 825 641 1194 531 
Q 1563 422 1919 422 
Q 2459 422 2753 634 
Q 3047 847 3047 1241 
Q 3047 1584 2836 1778 
Q 2625 1972 2144 2069 
L 1759 2144 
Q 1053 2284 737 2584 
Q 422 2884 422 3419 
Q 422 4038 858 4394 
Q 1294 4750 2059 4750 
Q 2388 4750 2728 4690 
Q 3069 4631 3425 4513 
z
" transform="scale(0.015625)"/>
        <path id="DejaVuSans-6e" d="M 3513 2113 
L 3513 0 
L 2938 0 
L 2938 2094 
Q 2938 2591 2744 2837 
Q 2550 3084 2163 3084 
Q 1697 3084 1428 2787 
Q 1159 2491 1159 1978 
L 1159 0 
L 581 0 
L 581 3500 
L 1159 3500 
L 1159 2956 
Q 1366 3272 1645 3428 
Q 1925 3584 2291 3584 
Q 2894 3584 3203 3211 
Q 3513 2838 3513 2113 
z
" transform="scale(0.015625)"/>
        <path id="DejaVuSans-74" d="M 1172 4494 
L 1172 3500 
L 2356 3500 
L 2356 3053 
L 1172 3053 
L 1172 1153 
Q 1172 725 1289 603 
Q 1406 481 1766 481 
L 2356 481 
L 2356 0 
L 1766 0 
Q 1100 0 847 248 
Q 594 497 594 1153 
L 594 3053 
L 172 3053 
L 172 3500 
L 594 3500 
L 594 4494 
L 1172 4494 
z
" transform="scale(0.015625)"/>
        <path id="DejaVuSans-75" d="M 544 1381 
L 544 3500 
L 1119 3500 
L 1119 1403 
Q 1119 906 1312 657 
Q 1506 409 1894 409 
Q 2359 409 2629 706 
Q 2900 1003 2900 1516 
L 2900 3500 
L 3475 3500 
L 3475 0 
L 2900 0 
L 2900 538 
Q 2691 219 2414 64 
Q 2138 -91 1772 -91 
Q 1169 -91 856 284 
Q 544 659 544 1381 
z
M 1991 3584 
L 1991 3584 
z
" transform="scale(0.015625)"/>
       </defs>
       <use xlink:href="#DejaVuSans-53"/>
       <use xlink:href="#DejaVuSans-65" x="63.476562"/>
       <use xlink:href="#DejaVuSans-6e" x="125"/>
       <use xlink:href="#DejaVuSans-74" x="188.378906"/>
       <use xlink:href="#DejaVuSans-72" x="227.587891"/>
       <use xlink:href="#DejaVuSans-75" x="268.701172"/>
       <use xlink:href="#DejaVuSans-6d" x="332.080078"/>
      </g>
     </g>
    </g>
    <g id="xtick_5">
     <g id="line2d_5">
      <g>
       <use xlink:href="#mf3a7920f3b" x="539.075625" y="319.424375" style="stroke: #000000; stroke-width: 0.8"/>
      </g>
     </g>
     <g id="text_5">
      <!-- Vei -->
      <g transform="translate(531.577188 334.022812) scale(0.1 -0.1)">
       <defs>
        <path id="DejaVuSans-56" d="M 1831 0 
L 50 4666 
L 709 4666 
L 2188 738 
L 3669 4666 
L 4325 4666 
L 2547 0 
L 1831 0 
z
" transform="scale(0.015625)"/>
        <path id="DejaVuSans-69" d="M 603 3500 
L 1178 3500 
L 1178 0 
L 603 0 
L 603 3500 
z
M 603 4863 
L 1178 4863 
L 1178 4134 
L 603 4134 
L 603 4863 
z
" transform="scale(0.015625)"/>
       </defs>
       <use xlink:href="#DejaVuSans-56"/>
       <use xlink:href="#DejaVuSans-65" x="60.658203"/>
       <use xlink:href="#DejaVuSans-69" x="122.181641"/>
      </g>
     </g>
    </g>
    <g id="xtick_6">
     <g id="line2d_6">
      <g>
       <use xlink:href="#mf3a7920f3b" x="649.847292" y="319.424375" style="stroke: #000000; stroke-width: 0.8"/>
      </g>
     </g>
     <g id="text_6">
      <!-- Vei mot Byåsen -->
      <g transform="translate(610.976979 335.204062) scale(0.1 -0.1)">
       <defs>
        <path id="DejaVuSans-6f" d="M 1959 3097 
Q 1497 3097 1228 2736 
Q 959 2375 959 1747 
Q 959 1119 1226 758 
Q 1494 397 1959 397 
Q 2419 397 2687 759 
Q 2956 1122 2956 1747 
Q 2956 2369 2687 2733 
Q 2419 3097 1959 3097 
z
M 1959 3584 
Q 2709 3584 3137 3096 
Q 3566 2609 3566 1747 
Q 3566 888 3137 398 
Q 2709 -91 1959 -91 
Q 1206 -91 779 398 
Q 353 888 353 1747 
Q 353 2609 779 3096 
Q 1206 3584 1959 3584 
z
" transform="scale(0.015625)"/>
        <path id="DejaVuSans-42" d="M 1259 2228 
L 1259 519 
L 2272 519 
Q 2781 519 3026 730 
Q 3272 941 3272 1375 
Q 3272 1813 3026 2020 
Q 2781 2228 2272 2228 
L 1259 2228 
z
M 1259 4147 
L 1259 2741 
L 2194 2741 
Q 2656 2741 2882 2914 
Q 3109 3088 3109 3444 
Q 3109 3797 2882 3972 
Q 2656 4147 2194 4147 
L 1259 4147 
z
M 628 4666 
L 2241 4666 
Q 2963 4666 3353 4366 
Q 3744 4066 3744 3513 
Q 3744 3084 3544 2831 
Q 3344 2578 2956 2516 
Q 3422 2416 3680 2098 
Q 3938 1781 3938 1306 
Q 3938 681 3513 340 
Q 3088 0 2303 0 
L 628 0 
L 628 4666 
z
" transform="scale(0.015625)"/>
        <path id="DejaVuSans-e5" d="M 2194 1759 
Q 1497 1759 1228 1600 
Q 959 1441 959 1056 
Q 959 750 1161 570 
Q 1363 391 1709 391 
Q 2188 391 2477 730 
Q 2766 1069 2766 1631 
L 2766 1759 
L 2194 1759 
z
M 3341 1997 
L 3341 0 
L 2766 0 
L 2766 531 
Q 2569 213 2275 61 
Q 1981 -91 1556 -91 
Q 1019 -91 701 211 
Q 384 513 384 1019 
Q 384 1609 779 1909 
Q 1175 2209 1959 2209 
L 2766 2209 
L 2766 2266 
Q 2766 2663 2505 2880 
Q 2244 3097 1772 3097 
Q 1472 3097 1187 3025 
Q 903 2953 641 2809 
L 641 3341 
Q 956 3463 1253 3523 
Q 1550 3584 1831 3584 
Q 2591 3584 2966 3190 
Q 3341 2797 3341 1997 
z
M 2331 4763 
Q 2331 4959 2193 5096 
Q 2056 5234 1856 5234 
Q 1653 5234 1517 5098 
Q 1381 4963 1381 4763 
Q 1381 4559 1517 4423 
Q 1653 4288 1856 4288 
Q 2056 4288 2193 4425 
Q 2331 4563 2331 4763 
z
M 2712 4763 
Q 2712 4403 2463 4153 
Q 2215 3903 1856 3903 
Q 1497 3903 1248 4153 
Q 1000 4403 1000 4763 
Q 1000 5122 1248 5370 
Q 1497 5619 1856 5619 
Q 2215 5619 2463 5370 
Q 2712 5122 2712 4763 
z
" transform="scale(0.015625)"/>
        <path id="DejaVuSans-73" d="M 2834 3397 
L 2834 2853 
Q 2591 2978 2328 3040 
Q 2066 3103 1784 3103 
Q 1356 3103 1142 2972 
Q 928 2841 928 2578 
Q 928 2378 1081 2264 
Q 1234 2150 1697 2047 
L 1894 2003 
Q 2506 1872 2764 1633 
Q 3022 1394 3022 966 
Q 3022 478 2636 193 
Q 2250 -91 1575 -91 
Q 1294 -91 989 -36 
Q 684 19 347 128 
L 347 722 
Q 666 556 975 473 
Q 1284 391 1588 391 
Q 1994 391 2212 530 
Q 2431 669 2431 922 
Q 2431 1156 2273 1281 
Q 2116 1406 1581 1522 
L 1381 1569 
Q 847 1681 609 1914 
Q 372 2147 372 2553 
Q 372 3047 722 3315 
Q 1072 3584 1716 3584 
Q 2034 3584 2315 3537 
Q 2597 3491 2834 3397 
z
" transform="scale(0.015625)"/>
       </defs>
       <use xlink:href="#DejaVuSans-56"/>
       <use xlink:href="#DejaVuSans-65" x="60.658203"/>
       <use xlink:href="#DejaVuSans-69" x="122.181641"/>
       <use xlink:href="#DejaVuSans-20" x="149.964844"/>
       <use xlink:href="#DejaVuSans-6d" x="181.751953"/>
       <use xlink:href="#DejaVuSans-6f" x="279.164062"/>
       <use xlink:href="#DejaVuSans-74" x="340.345703"/>
       <use xlink:href="#DejaVuSans-20" x="379.554688"/>
       <use xlink:href="#DejaVuSans-42" x="411.341797"/>
       <use xlink:href="#DejaVuSans-79" x="479.945312"/>
       <use xlink:href="#DejaVuSans-e5" x="539.125"/>
       <use xlink:href="#DejaVuSans-73" x="600.404297"/>
       <use xlink:href="#DejaVuSans-65" x="652.503906"/>
       <use xlink:href="#DejaVuSans-6e" x="714.027344"/>
      </g>
     </g>
    </g>
    <g id="text_7">
     <!-- Sted -->
     <g transform="translate(361.532969 348.882187) scale(0.1 -0.1)">
      <defs>
       <path id="DejaVuSans-64" d="M 2906 2969 
L 2906 4863 
L 3481 4863 
L 3481 0 
L 2906 0 
L 2906 525 
Q 2725 213 2448 61 
Q 2172 -91 1784 -91 
Q 1150 -91 751 415 
Q 353 922 353 1747 
Q 353 2572 751 3078 
Q 1150 3584 1784 3584 
Q 2172 3584 2448 3432 
Q 2725 3281 2906 2969 
z
M 947 1747 
Q 947 1113 1208 752 
Q 1469 391 1925 391 
Q 2381 391 2643 752 
Q 2906 1113 2906 1747 
Q 2906 2381 2643 2742 
Q 2381 3103 1925 3103 
Q 1469 3103 1208 2742 
Q 947 2381 947 1747 
z
" transform="scale(0.015625)"/>
      </defs>
      <use xlink:href="#DejaVuSans-53"/>
      <use xlink:href="#DejaVuSans-74" x="63.476562"/>
      <use xlink:href="#DejaVuSans-65" x="102.685547"/>
      <use xlink:href="#DejaVuSans-64" x="164.208984"/>
     </g>
    </g>
   </g>
   <g id="matplotlib.axis_2">
    <g id="ytick_1">
     <g id="line2d_7">
      <defs>
       <path id="m3c431e5ea2" d="M 0 0 
L -3.5 0 
" style="stroke: #000000; stroke-width: 0.8"/>
      </defs>
      <g>
       <use xlink:href="#m3c431e5ea2" x="40.603125" y="319.424375" style="stroke: #000000; stroke-width: 0.8"/>
      </g>
     </g>
     <g id="text_8">
      <!-- 0 -->
      <g transform="translate(27.240625 323.223594) scale(0.1 -0.1)">
       <use xlink:href="#DejaVuSans-30"/>
      </g>
     </g>
    </g>
    <g id="ytick_2">
     <g id="line2d_8">
      <g>
       <use xlink:href="#m3c431e5ea2" x="40.603125" y="286.564593" style="stroke: #000000; stroke-width: 0.8"/>
      </g>
     </g>
     <g id="text_9">
      <!-- 10 -->
      <g transform="translate(20.878125 290.363812) scale(0.1 -0.1)">
       <use xlink:href="#DejaVuSans-31"/>
       <use xlink:href="#DejaVuSans-30" x="63.623047"/>
      </g>
     </g>
    </g>
    <g id="ytick_3">
     <g id="line2d_9">
      <g>
       <use xlink:href="#m3c431e5ea2" x="40.603125" y="253.704811" style="stroke: #000000; stroke-width: 0.8"/>
      </g>
     </g>
     <g id="text_10">
      <!-- 20 -->
      <g transform="translate(20.878125 257.504029) scale(0.1 -0.1)">
       <defs>
        <path id="DejaVuSans-32" d="M 1228 531 
L 3431 531 
L 3431 0 
L 469 0 
L 469 531 
Q 828 903 1448 1529 
Q 2069 2156 2228 2338 
Q 2531 2678 2651 2914 
Q 2772 3150 2772 3378 
Q 2772 3750 2511 3984 
Q 2250 4219 1831 4219 
Q 1534 4219 1204 4116 
Q 875 4013 500 3803 
L 500 4441 
Q 881 4594 1212 4672 
Q 1544 4750 1819 4750 
Q 2544 4750 2975 4387 
Q 3406 4025 3406 3419 
Q 3406 3131 3298 2873 
Q 3191 2616 2906 2266 
Q 2828 2175 2409 1742 
Q 1991 1309 1228 531 
z
" transform="scale(0.015625)"/>
       </defs>
       <use xlink:href="#DejaVuSans-32"/>
       <use xlink:href="#DejaVuSans-30" x="63.623047"/>
      </g>
     </g>
    </g>
    <g id="ytick_4">
     <g id="line2d_10">
      <g>
       <use xlink:href="#m3c431e5ea2" x="40.603125" y="220.845028" style="stroke: #000000; stroke-width: 0.8"/>
      </g>
     </g>
     <g id="text_11">
      <!-- 30 -->
      <g transform="translate(20.878125 224.644247) scale(0.1 -0.1)">
       <defs>
        <path id="DejaVuSans-33" d="M 2597 2516 
Q 3050 2419 3304 2112 
Q 3559 1806 3559 1356 
Q 3559 666 3084 287 
Q 2609 -91 1734 -91 
Q 1441 -91 1130 -33 
Q 819 25 488 141 
L 488 750 
Q 750 597 1062 519 
Q 1375 441 1716 441 
Q 2309 441 2620 675 
Q 2931 909 2931 1356 
Q 2931 1769 2642 2001 
Q 2353 2234 1838 2234 
L 1294 2234 
L 1294 2753 
L 1863 2753 
Q 2328 2753 2575 2939 
Q 2822 3125 2822 3475 
Q 2822 3834 2567 4026 
Q 2313 4219 1838 4219 
Q 1578 4219 1281 4162 
Q 984 4106 628 3988 
L 628 4550 
Q 988 4650 1302 4700 
Q 1616 4750 1894 4750 
Q 2613 4750 3031 4423 
Q 3450 4097 3450 3541 
Q 3450 3153 3228 2886 
Q 3006 2619 2597 2516 
z
" transform="scale(0.015625)"/>
       </defs>
       <use xlink:href="#DejaVuSans-33"/>
       <use xlink:href="#DejaVuSans-30" x="63.623047"/>
      </g>
     </g>
    </g>
    <g id="ytick_5">
     <g id="line2d_11">
      <g>
       <use xlink:href="#m3c431e5ea2" x="40.603125" y="187.985246" style="stroke: #000000; stroke-width: 0.8"/>
      </g>
     </g>
     <g id="text_12">
      <!-- 40 -->
      <g transform="translate(20.878125 191.784465) scale(0.1 -0.1)">
       <defs>
        <path id="DejaVuSans-34" d="M 2419 4116 
L 825 1625 
L 2419 1625 
L 2419 4116 
z
M 2253 4666 
L 3047 4666 
L 3047 1625 
L 3713 1625 
L 3713 1100 
L 3047 1100 
L 3047 0 
L 2419 0 
L 2419 1100 
L 313 1100 
L 313 1709 
L 2253 4666 
z
" transform="scale(0.015625)"/>
       </defs>
       <use xlink:href="#DejaVuSans-34"/>
       <use xlink:href="#DejaVuSans-30" x="63.623047"/>
      </g>
     </g>
    </g>
    <g id="ytick_6">
     <g id="line2d_12">
      <g>
       <use xlink:href="#m3c431e5ea2" x="40.603125" y="155.125464" style="stroke: #000000; stroke-width: 0.8"/>
      </g>
     </g>
     <g id="text_13">
      <!-- 50 -->
      <g transform="translate(20.878125 158.924683) scale(0.1 -0.1)">
       <defs>
        <path id="DejaVuSans-35" d="M 691 4666 
L 3169 4666 
L 3169 4134 
L 1269 4134 
L 1269 2991 
Q 1406 3038 1543 3061 
Q 1681 3084 1819 3084 
Q 2600 3084 3056 2656 
Q 3513 2228 3513 1497 
Q 3513 744 3044 326 
Q 2575 -91 1722 -91 
Q 1428 -91 1123 -41 
Q 819 9 494 109 
L 494 744 
Q 775 591 1075 516 
Q 1375 441 1709 441 
Q 2250 441 2565 725 
Q 2881 1009 2881 1497 
Q 2881 1984 2565 2268 
Q 2250 2553 1709 2553 
Q 1456 2553 1204 2497 
Q 953 2441 691 2322 
L 691 4666 
z
" transform="scale(0.015625)"/>
       </defs>
       <use xlink:href="#DejaVuSans-35"/>
       <use xlink:href="#DejaVuSans-30" x="63.623047"/>
      </g>
     </g>
    </g>
    <g id="ytick_7">
     <g id="line2d_13">
      <g>
       <use xlink:href="#m3c431e5ea2" x="40.603125" y="122.265682" style="stroke: #000000; stroke-width: 0.8"/>
      </g>
     </g>
     <g id="text_14">
      <!-- 60 -->
      <g transform="translate(20.878125 126.064901) scale(0.1 -0.1)">
       <defs>
        <path id="DejaVuSans-36" d="M 2113 2584 
Q 1688 2584 1439 2293 
Q 1191 2003 1191 1497 
Q 1191 994 1439 701 
Q 1688 409 2113 409 
Q 2538 409 2786 701 
Q 3034 994 3034 1497 
Q 3034 2003 2786 2293 
Q 2538 2584 2113 2584 
z
M 3366 4563 
L 3366 3988 
Q 3128 4100 2886 4159 
Q 2644 4219 2406 4219 
Q 1781 4219 1451 3797 
Q 1122 3375 1075 2522 
Q 1259 2794 1537 2939 
Q 1816 3084 2150 3084 
Q 2853 3084 3261 2657 
Q 3669 2231 3669 1497 
Q 3669 778 3244 343 
Q 2819 -91 2113 -91 
Q 1303 -91 875 529 
Q 447 1150 447 2328 
Q 447 3434 972 4092 
Q 1497 4750 2381 4750 
Q 2619 4750 2861 4703 
Q 3103 4656 3366 4563 
z
" transform="scale(0.015625)"/>
       </defs>
       <use xlink:href="#DejaVuSans-36"/>
       <use xlink:href="#DejaVuSans-30" x="63.623047"/>
      </g>
     </g>
    </g>
    <g id="ytick_8">
     <g id="line2d_14">
      <g>
       <use xlink:href="#m3c431e5ea2" x="40.603125" y="89.4059" style="stroke: #000000; stroke-width: 0.8"/>
      </g>
     </g>
     <g id="text_15">
      <!-- 70 -->
      <g transform="translate(20.878125 93.205118) scale(0.1 -0.1)">
       <defs>
        <path id="DejaVuSans-37" d="M 525 4666 
L 3525 4666 
L 3525 4397 
L 1831 0 
L 1172 0 
L 2766 4134 
L 525 4134 
L 525 4666 
z
" transform="scale(0.015625)"/>
       </defs>
       <use xlink:href="#DejaVuSans-37"/>
       <use xlink:href="#DejaVuSans-30" x="63.623047"/>
      </g>
     </g>
    </g>
    <g id="ytick_9">
     <g id="line2d_15">
      <g>
       <use xlink:href="#m3c431e5ea2" x="40.603125" y="56.546118" style="stroke: #000000; stroke-width: 0.8"/>
      </g>
     </g>
     <g id="text_16">
      <!-- 80 -->
      <g transform="translate(20.878125 60.345336) scale(0.1 -0.1)">
       <defs>
        <path id="DejaVuSans-38" d="M 2034 2216 
Q 1584 2216 1326 1975 
Q 1069 1734 1069 1313 
Q 1069 891 1326 650 
Q 1584 409 2034 409 
Q 2484 409 2743 651 
Q 3003 894 3003 1313 
Q 3003 1734 2745 1975 
Q 2488 2216 2034 2216 
z
M 1403 2484 
Q 997 2584 770 2862 
Q 544 3141 544 3541 
Q 544 4100 942 4425 
Q 1341 4750 2034 4750 
Q 2731 4750 3128 4425 
Q 3525 4100 3525 3541 
Q 3525 3141 3298 2862 
Q 3072 2584 2669 2484 
Q 3125 2378 3379 2068 
Q 3634 1759 3634 1313 
Q 3634 634 3220 271 
Q 2806 -91 2034 -91 
Q 1263 -91 848 271 
Q 434 634 434 1313 
Q 434 1759 690 2068 
Q 947 2378 1403 2484 
z
M 1172 3481 
Q 1172 3119 1398 2916 
Q 1625 2713 2034 2713 
Q 2441 2713 2670 2916 
Q 2900 3119 2900 3481 
Q 2900 3844 2670 4047 
Q 2441 4250 2034 4250 
Q 1625 4250 1398 4047 
Q 1172 3844 1172 3481 
z
" transform="scale(0.015625)"/>
       </defs>
       <use xlink:href="#DejaVuSans-38"/>
       <use xlink:href="#DejaVuSans-30" x="63.623047"/>
      </g>
     </g>
    </g>
    <g id="text_17">
     <!-- LAeq -->
     <g transform="translate(14.798438 184.062031) rotate(-90) scale(0.1 -0.1)">
      <defs>
       <path id="DejaVuSans-41" d="M 2188 4044 
L 1331 1722 
L 3047 1722 
L 2188 4044 
z
M 1831 4666 
L 2547 4666 
L 4325 0 
L 3669 0 
L 3244 1197 
L 1141 1197 
L 716 0 
L 50 0 
L 1831 4666 
z
" transform="scale(0.015625)"/>
       <path id="DejaVuSans-71" d="M 947 1747 
Q 947 1113 1208 752 
Q 1469 391 1925 391 
Q 2381 391 2643 752 
Q 2906 1113 2906 1747 
Q 2906 2381 2643 2742 
Q 2381 3103 1925 3103 
Q 1469 3103 1208 2742 
Q 947 2381 947 1747 
z
M 2906 525 
Q 2725 213 2448 61 
Q 2172 -91 1784 -91 
Q 1150 -91 751 415 
Q 353 922 353 1747 
Q 353 2572 751 3078 
Q 1150 3584 1784 3584 
Q 2172 3584 2448 3432 
Q 2725 3281 2906 2969 
L 2906 3500 
L 3481 3500 
L 3481 -1331 
L 2906 -1331 
L 2906 525 
z
" transform="scale(0.015625)"/>
      </defs>
      <use xlink:href="#DejaVuSans-4c"/>
      <use xlink:href="#DejaVuSans-41" x="57.962891"/>
      <use xlink:href="#DejaVuSans-65" x="124.621094"/>
      <use xlink:href="#DejaVuSans-71" x="186.144531"/>
     </g>
    </g>
   </g>
   <g id="patch_45">
    <path d="M 40.603125 319.424375 
L 40.603125 23.735625 
" style="fill: none; stroke: #000000; stroke-width: 0.8; stroke-linejoin: miter; stroke-linecap: square"/>
   </g>
   <g id="patch_46">
    <path d="M 705.233125 319.424375 
L 705.233125 23.735625 
" style="fill: none; stroke: #000000; stroke-width: 0.8; stroke-linejoin: miter; stroke-linecap: square"/>
   </g>
   <g id="patch_47">
    <path d="M 40.603125 319.424375 
L 705.233125 319.424375 
" style="fill: none; stroke: #000000; stroke-width: 0.8; stroke-linejoin: miter; stroke-linecap: square"/>
   </g>
   <g id="patch_48">
    <path d="M 40.603125 23.735625 
L 705.233125 23.735625 
" style="fill: none; stroke: #000000; stroke-width: 0.8; stroke-linejoin: miter; stroke-linecap: square"/>
   </g>
   <g id="text_18">
    <!-- LAeq for alle målinger -->
    <g transform="translate(306.641563 17.735625) scale(0.12 -0.12)">
     <defs>
      <path id="DejaVuSans-66" d="M 2375 4863 
L 2375 4384 
L 1825 4384 
Q 1516 4384 1395 4259 
Q 1275 4134 1275 3809 
L 1275 3500 
L 2222 3500 
L 2222 3053 
L 1275 3053 
L 1275 0 
L 697 0 
L 697 3053 
L 147 3053 
L 147 3500 
L 697 3500 
L 697 3744 
Q 697 4328 969 4595 
Q 1241 4863 1831 4863 
L 2375 4863 
z
" transform="scale(0.015625)"/>
      <path id="DejaVuSans-6c" d="M 603 4863 
L 1178 4863 
L 1178 0 
L 603 0 
L 603 4863 
z
" transform="scale(0.015625)"/>
      <path id="DejaVuSans-67" d="M 2906 1791 
Q 2906 2416 2648 2759 
Q 2391 3103 1925 3103 
Q 1463 3103 1205 2759 
Q 947 2416 947 1791 
Q 947 1169 1205 825 
Q 1463 481 1925 481 
Q 2391 481 2648 825 
Q 2906 1169 2906 1791 
z
M 3481 434 
Q 3481 -459 3084 -895 
Q 2688 -1331 1869 -1331 
Q 1566 -1331 1297 -1286 
Q 1028 -1241 775 -1147 
L 775 -588 
Q 1028 -725 1275 -790 
Q 1522 -856 1778 -856 
Q 2344 -856 2625 -561 
Q 2906 -266 2906 331 
L 2906 616 
Q 2728 306 2450 153 
Q 2172 0 1784 0 
Q 1141 0 747 490 
Q 353 981 353 1791 
Q 353 2603 747 3093 
Q 1141 3584 1784 3584 
Q 2172 3584 2450 3431 
Q 2728 3278 2906 2969 
L 2906 3500 
L 3481 3500 
L 3481 434 
z
" transform="scale(0.015625)"/>
     </defs>
     <use xlink:href="#DejaVuSans-4c"/>
     <use xlink:href="#DejaVuSans-41" x="57.962891"/>
     <use xlink:href="#DejaVuSans-65" x="124.621094"/>
     <use xlink:href="#DejaVuSans-71" x="186.144531"/>
     <use xlink:href="#DejaVuSans-20" x="249.621094"/>
     <use xlink:href="#DejaVuSans-66" x="281.408203"/>
     <use xlink:href="#DejaVuSans-6f" x="316.613281"/>
     <use xlink:href="#DejaVuSans-72" x="377.794922"/>
     <use xlink:href="#DejaVuSans-20" x="418.908203"/>
     <use xlink:href="#DejaVuSans-61" x="450.695312"/>
     <use xlink:href="#DejaVuSans-6c" x="511.974609"/>
     <use xlink:href="#DejaVuSans-6c" x="539.757812"/>
     <use xlink:href="#DejaVuSans-65" x="567.541016"/>
     <use xlink:href="#DejaVuSans-20" x="629.064453"/>
     <use xlink:href="#DejaVuSans-6d" x="660.851562"/>
     <use xlink:href="#DejaVuSans-e5" x="758.263672"/>
     <use xlink:href="#DejaVuSans-6c" x="819.542969"/>
     <use xlink:href="#DejaVuSans-69" x="847.326172"/>
     <use xlink:href="#DejaVuSans-6e" x="875.109375"/>
     <use xlink:href="#DejaVuSans-67" x="938.488281"/>
     <use xlink:href="#DejaVuSans-65" x="1001.964844"/>
     <use xlink:href="#DejaVuSans-72" x="1063.488281"/>
    </g>
   </g>
   <g id="legend_1">
    <g id="patch_49">
     <path d="M 142.944396 407.122322 
L 602.891854 407.122322 
Q 604.557854 407.122322 604.557854 405.456322 
L 604.557854 369.608687 
Q 604.557854 367.942687 602.891854 367.942687 
L 142.944396 367.942687 
Q 141.278396 367.942687 141.278396 369.608687 
L 141.278396 405.456322 
Q 141.278396 407.122322 142.944396 407.122322 
z
" style="fill: #ffffff; opacity: 0.8; stroke: #cccccc; stroke-linejoin: miter"/>
    </g>
    <g id="patch_50">
     <path d="M 144.610396 377.604186 
L 161.270396 377.604186 
L 161.270396 371.773186 
L 144.610396 371.773186 
z
" style="fill: #add8e6"/>
    </g>
    <g id="text_19">
     <!-- Før VM, nærmest arena -->
     <g transform="translate(167.934396 377.604186) scale(0.0833 -0.0833)">
      <defs>
       <path id="DejaVuSans-46" d="M 628 4666 
L 3309 4666 
L 3309 4134 
L 1259 4134 
L 1259 2759 
L 3109 2759 
L 3109 2228 
L 1259 2228 
L 1259 0 
L 628 0 
L 628 4666 
z
" transform="scale(0.015625)"/>
       <path id="DejaVuSans-2c" d="M 750 794 
L 1409 794 
L 1409 256 
L 897 -744 
L 494 -744 
L 750 256 
L 750 794 
z
" transform="scale(0.015625)"/>
       <path id="DejaVuSans-e6" d="M 5369 2063 
Q 5366 2534 5108 2815 
Q 4850 3097 4422 3097 
Q 3944 3097 3655 2825 
Q 3366 2553 3322 2059 
L 5369 2063 
z
M 3109 3009 
Q 3341 3291 3672 3437 
Q 4003 3584 4416 3584 
Q 5122 3584 5534 3129 
Q 5947 2675 5947 1894 
L 5947 1613 
L 3303 1613 
Q 3341 1016 3659 703 
Q 3978 391 4550 391 
Q 4875 391 5187 473 
Q 5500 556 5813 722 
L 5813 178 
Q 5500 47 5175 -22 
Q 4850 -91 4519 -91 
Q 3997 -91 3609 98 
Q 3222 288 2981 659 
Q 2753 284 2415 96 
Q 2078 -91 1631 -91 
Q 1041 -91 712 201 
Q 384 494 384 1019 
Q 384 1609 779 1909 
Q 1175 2209 1959 2209 
L 2766 2209 
L 2766 2266 
Q 2766 2663 2505 2880 
Q 2244 3097 1772 3097 
Q 1472 3097 1187 3025 
Q 903 2953 641 2809 
L 641 3341 
Q 956 3463 1253 3523 
Q 1550 3584 1831 3584 
Q 2275 3584 2608 3434 
Q 2941 3284 3109 3009 
z
M 2194 1759 
Q 1497 1759 1228 1600 
Q 959 1441 959 1056 
Q 959 750 1161 570 
Q 1363 391 1709 391 
Q 2188 391 2477 730 
Q 2766 1069 2766 1631 
L 2766 1759 
L 2194 1759 
z
" transform="scale(0.015625)"/>
      </defs>
      <use xlink:href="#DejaVuSans-46"/>
      <use xlink:href="#DejaVuSans-f8" x="57.519531"/>
      <use xlink:href="#DejaVuSans-72" x="118.701172"/>
      <use xlink:href="#DejaVuSans-20" x="159.814453"/>
      <use xlink:href="#DejaVuSans-56" x="191.601562"/>
      <use xlink:href="#DejaVuSans-4d" x="260.009766"/>
      <use xlink:href="#DejaVuSans-2c" x="346.289062"/>
      <use xlink:href="#DejaVuSans-20" x="378.076172"/>
      <use xlink:href="#DejaVuSans-6e" x="409.863281"/>
      <use xlink:href="#DejaVuSans-e6" x="473.242188"/>
      <use xlink:href="#DejaVuSans-72" x="571.435547"/>
      <use xlink:href="#DejaVuSans-6d" x="610.798828"/>
      <use xlink:href="#DejaVuSans-65" x="708.210938"/>
      <use xlink:href="#DejaVuSans-73" x="769.734375"/>
      <use xlink:href="#DejaVuSans-74" x="821.833984"/>
      <use xlink:href="#DejaVuSans-20" x="861.042969"/>
      <use xlink:href="#DejaVuSans-61" x="892.830078"/>
      <use xlink:href="#DejaVuSans-72" x="954.109375"/>
      <use xlink:href="#DejaVuSans-65" x="992.972656"/>
      <use xlink:href="#DejaVuSans-6e" x="1054.496094"/>
      <use xlink:href="#DejaVuSans-61" x="1117.875"/>
     </g>
    </g>
    <g id="patch_51">
     <path d="M 144.610396 389.831064 
L 161.270396 389.831064 
L 161.270396 384.000064 
L 144.610396 384.000064 
z
" style="fill: #0000ff"/>
    </g>
    <g id="text_20">
     <!-- Før VM, lengst unna arena -->
     <g transform="translate(167.934396 389.831064) scale(0.0833 -0.0833)">
      <use xlink:href="#DejaVuSans-46"/>
      <use xlink:href="#DejaVuSans-f8" x="57.519531"/>
      <use xlink:href="#DejaVuSans-72" x="118.701172"/>
      <use xlink:href="#DejaVuSans-20" x="159.814453"/>
      <use xlink:href="#DejaVuSans-56" x="191.601562"/>
      <use xlink:href="#DejaVuSans-4d" x="260.009766"/>
      <use xlink:href="#DejaVuSans-2c" x="346.289062"/>
      <use xlink:href="#DejaVuSans-20" x="378.076172"/>
      <use xlink:href="#DejaVuSans-6c" x="409.863281"/>
      <use xlink:href="#DejaVuSans-65" x="437.646484"/>
      <use xlink:href="#DejaVuSans-6e" x="499.169922"/>
      <use xlink:href="#DejaVuSans-67" x="562.548828"/>
      <use xlink:href="#DejaVuSans-73" x="626.025391"/>
      <use xlink:href="#DejaVuSans-74" x="678.125"/>
      <use xlink:href="#DejaVuSans-20" x="717.333984"/>
      <use xlink:href="#DejaVuSans-75" x="749.121094"/>
      <use xlink:href="#DejaVuSans-6e" x="812.5"/>
      <use xlink:href="#DejaVuSans-6e" x="875.878906"/>
      <use xlink:href="#DejaVuSans-61" x="939.257812"/>
      <use xlink:href="#DejaVuSans-20" x="1000.537109"/>
      <use xlink:href="#DejaVuSans-61" x="1032.324219"/>
      <use xlink:href="#DejaVuSans-72" x="1093.603516"/>
      <use xlink:href="#DejaVuSans-65" x="1132.466797"/>
      <use xlink:href="#DejaVuSans-6e" x="1193.990234"/>
      <use xlink:href="#DejaVuSans-61" x="1257.369141"/>
     </g>
    </g>
    <g id="patch_52">
     <path d="M 144.610396 402.057942 
L 161.270396 402.057942 
L 161.270396 396.226942 
L 144.610396 396.226942 
z
" style="fill: #0000ff"/>
    </g>
    <g id="text_21">
     <!-- Før VM, lengst unna arena -->
     <g transform="translate(167.934396 402.057942) scale(0.0833 -0.0833)">
      <use xlink:href="#DejaVuSans-46"/>
      <use xlink:href="#DejaVuSans-f8" x="57.519531"/>
      <use xlink:href="#DejaVuSans-72" x="118.701172"/>
      <use xlink:href="#DejaVuSans-20" x="159.814453"/>
      <use xlink:href="#DejaVuSans-56" x="191.601562"/>
      <use xlink:href="#DejaVuSans-4d" x="260.009766"/>
      <use xlink:href="#DejaVuSans-2c" x="346.289062"/>
      <use xlink:href="#DejaVuSans-20" x="378.076172"/>
      <use xlink:href="#DejaVuSans-6c" x="409.863281"/>
      <use xlink:href="#DejaVuSans-65" x="437.646484"/>
      <use xlink:href="#DejaVuSans-6e" x="499.169922"/>
      <use xlink:href="#DejaVuSans-67" x="562.548828"/>
      <use xlink:href="#DejaVuSans-73" x="626.025391"/>
      <use xlink:href="#DejaVuSans-74" x="678.125"/>
      <use xlink:href="#DejaVuSans-20" x="717.333984"/>
      <use xlink:href="#DejaVuSans-75" x="749.121094"/>
      <use xlink:href="#DejaVuSans-6e" x="812.5"/>
      <use xlink:href="#DejaVuSans-6e" x="875.878906"/>
      <use xlink:href="#DejaVuSans-61" x="939.257812"/>
      <use xlink:href="#DejaVuSans-20" x="1000.537109"/>
      <use xlink:href="#DejaVuSans-61" x="1032.324219"/>
      <use xlink:href="#DejaVuSans-72" x="1093.603516"/>
      <use xlink:href="#DejaVuSans-65" x="1132.466797"/>
      <use xlink:href="#DejaVuSans-6e" x="1193.990234"/>
      <use xlink:href="#DejaVuSans-61" x="1257.369141"/>
     </g>
    </g>
    <g id="patch_53">
     <path d="M 294.434557 377.604186 
L 311.094557 377.604186 
L 311.094557 371.773186 
L 294.434557 371.773186 
z
" style="fill: #90ee90"/>
    </g>
    <g id="text_22">
     <!-- Under VM, nærmest arena -->
     <g transform="translate(317.758557 377.604186) scale(0.0833 -0.0833)">
      <defs>
       <path id="DejaVuSans-55" d="M 556 4666 
L 1191 4666 
L 1191 1831 
Q 1191 1081 1462 751 
Q 1734 422 2344 422 
Q 2950 422 3222 751 
Q 3494 1081 3494 1831 
L 3494 4666 
L 4128 4666 
L 4128 1753 
Q 4128 841 3676 375 
Q 3225 -91 2344 -91 
Q 1459 -91 1007 375 
Q 556 841 556 1753 
L 556 4666 
z
" transform="scale(0.015625)"/>
      </defs>
      <use xlink:href="#DejaVuSans-55"/>
      <use xlink:href="#DejaVuSans-6e" x="73.193359"/>
      <use xlink:href="#DejaVuSans-64" x="136.572266"/>
      <use xlink:href="#DejaVuSans-65" x="200.048828"/>
      <use xlink:href="#DejaVuSans-72" x="261.572266"/>
      <use xlink:href="#DejaVuSans-20" x="302.685547"/>
      <use xlink:href="#DejaVuSans-56" x="334.472656"/>
      <use xlink:href="#DejaVuSans-4d" x="402.880859"/>
      <use xlink:href="#DejaVuSans-2c" x="489.160156"/>
      <use xlink:href="#DejaVuSans-20" x="520.947266"/>
      <use xlink:href="#DejaVuSans-6e" x="552.734375"/>
      <use xlink:href="#DejaVuSans-e6" x="616.113281"/>
      <use xlink:href="#DejaVuSans-72" x="714.306641"/>
      <use xlink:href="#DejaVuSans-6d" x="753.669922"/>
      <use xlink:href="#DejaVuSans-65" x="851.082031"/>
      <use xlink:href="#DejaVuSans-73" x="912.605469"/>
      <use xlink:href="#DejaVuSans-74" x="964.705078"/>
      <use xlink:href="#DejaVuSans-20" x="1003.914062"/>
      <use xlink:href="#DejaVuSans-61" x="1035.701172"/>
      <use xlink:href="#DejaVuSans-72" x="1096.980469"/>
      <use xlink:href="#DejaVuSans-65" x="1135.84375"/>
      <use xlink:href="#DejaVuSans-6e" x="1197.367188"/>
      <use xlink:href="#DejaVuSans-61" x="1260.746094"/>
     </g>
    </g>
    <g id="patch_54">
     <path d="M 294.434557 389.831064 
L 311.094557 389.831064 
L 311.094557 384.000064 
L 294.434557 384.000064 
z
" style="fill: #008000"/>
    </g>
    <g id="text_23">
     <!-- Under VM, lengst unna arena -->
     <g transform="translate(317.758557 389.831064) scale(0.0833 -0.0833)">
      <use xlink:href="#DejaVuSans-55"/>
      <use xlink:href="#DejaVuSans-6e" x="73.193359"/>
      <use xlink:href="#DejaVuSans-64" x="136.572266"/>
      <use xlink:href="#DejaVuSans-65" x="200.048828"/>
      <use xlink:href="#DejaVuSans-72" x="261.572266"/>
      <use xlink:href="#DejaVuSans-20" x="302.685547"/>
      <use xlink:href="#DejaVuSans-56" x="334.472656"/>
      <use xlink:href="#DejaVuSans-4d" x="402.880859"/>
      <use xlink:href="#DejaVuSans-2c" x="489.160156"/>
      <use xlink:href="#DejaVuSans-20" x="520.947266"/>
      <use xlink:href="#DejaVuSans-6c" x="552.734375"/>
      <use xlink:href="#DejaVuSans-65" x="580.517578"/>
      <use xlink:href="#DejaVuSans-6e" x="642.041016"/>
      <use xlink:href="#DejaVuSans-67" x="705.419922"/>
      <use xlink:href="#DejaVuSans-73" x="768.896484"/>
      <use xlink:href="#DejaVuSans-74" x="820.996094"/>
      <use xlink:href="#DejaVuSans-20" x="860.205078"/>
      <use xlink:href="#DejaVuSans-75" x="891.992188"/>
      <use xlink:href="#DejaVuSans-6e" x="955.371094"/>
      <use xlink:href="#DejaVuSans-6e" x="1018.75"/>
      <use xlink:href="#DejaVuSans-61" x="1082.128906"/>
      <use xlink:href="#DejaVuSans-20" x="1143.408203"/>
      <use xlink:href="#DejaVuSans-61" x="1175.195312"/>
      <use xlink:href="#DejaVuSans-72" x="1236.474609"/>
      <use xlink:href="#DejaVuSans-65" x="1275.337891"/>
      <use xlink:href="#DejaVuSans-6e" x="1336.861328"/>
      <use xlink:href="#DejaVuSans-61" x="1400.240234"/>
     </g>
    </g>
    <g id="patch_55">
     <path d="M 456.160205 377.604186 
L 472.820205 377.604186 
L 472.820205 371.773186 
L 456.160205 371.773186 
z
" style="fill: #90ee90"/>
    </g>
    <g id="text_24">
     <!-- Under VM, nærmest arena -->
     <g transform="translate(479.484205 377.604186) scale(0.0833 -0.0833)">
      <use xlink:href="#DejaVuSans-55"/>
      <use xlink:href="#DejaVuSans-6e" x="73.193359"/>
      <use xlink:href="#DejaVuSans-64" x="136.572266"/>
      <use xlink:href="#DejaVuSans-65" x="200.048828"/>
      <use xlink:href="#DejaVuSans-72" x="261.572266"/>
      <use xlink:href="#DejaVuSans-20" x="302.685547"/>
      <use xlink:href="#DejaVuSans-56" x="334.472656"/>
      <use xlink:href="#DejaVuSans-4d" x="402.880859"/>
      <use xlink:href="#DejaVuSans-2c" x="489.160156"/>
      <use xlink:href="#DejaVuSans-20" x="520.947266"/>
      <use xlink:href="#DejaVuSans-6e" x="552.734375"/>
      <use xlink:href="#DejaVuSans-e6" x="616.113281"/>
      <use xlink:href="#DejaVuSans-72" x="714.306641"/>
      <use xlink:href="#DejaVuSans-6d" x="753.669922"/>
      <use xlink:href="#DejaVuSans-65" x="851.082031"/>
      <use xlink:href="#DejaVuSans-73" x="912.605469"/>
      <use xlink:href="#DejaVuSans-74" x="964.705078"/>
      <use xlink:href="#DejaVuSans-20" x="1003.914062"/>
      <use xlink:href="#DejaVuSans-61" x="1035.701172"/>
      <use xlink:href="#DejaVuSans-72" x="1096.980469"/>
      <use xlink:href="#DejaVuSans-65" x="1135.84375"/>
      <use xlink:href="#DejaVuSans-6e" x="1197.367188"/>
      <use xlink:href="#DejaVuSans-61" x="1260.746094"/>
     </g>
    </g>
    <g id="patch_56">
     <path d="M 456.160205 389.831064 
L 472.820205 389.831064 
L 472.820205 384.000064 
L 456.160205 384.000064 
z
" style="fill: #008000"/>
    </g>
    <g id="text_25">
     <!-- Under VM, lengst unna arena -->
     <g transform="translate(479.484205 389.831064) scale(0.0833 -0.0833)">
      <use xlink:href="#DejaVuSans-55"/>
      <use xlink:href="#DejaVuSans-6e" x="73.193359"/>
      <use xlink:href="#DejaVuSans-64" x="136.572266"/>
      <use xlink:href="#DejaVuSans-65" x="200.048828"/>
      <use xlink:href="#DejaVuSans-72" x="261.572266"/>
      <use xlink:href="#DejaVuSans-20" x="302.685547"/>
      <use xlink:href="#DejaVuSans-56" x="334.472656"/>
      <use xlink:href="#DejaVuSans-4d" x="402.880859"/>
      <use xlink:href="#DejaVuSans-2c" x="489.160156"/>
      <use xlink:href="#DejaVuSans-20" x="520.947266"/>
      <use xlink:href="#DejaVuSans-6c" x="552.734375"/>
      <use xlink:href="#DejaVuSans-65" x="580.517578"/>
      <use xlink:href="#DejaVuSans-6e" x="642.041016"/>
      <use xlink:href="#DejaVuSans-67" x="705.419922"/>
      <use xlink:href="#DejaVuSans-73" x="768.896484"/>
      <use xlink:href="#DejaVuSans-74" x="820.996094"/>
      <use xlink:href="#DejaVuSans-20" x="860.205078"/>
      <use xlink:href="#DejaVuSans-75" x="891.992188"/>
      <use xlink:href="#DejaVuSans-6e" x="955.371094"/>
      <use xlink:href="#DejaVuSans-6e" x="1018.75"/>
      <use xlink:href="#DejaVuSans-61" x="1082.128906"/>
      <use xlink:href="#DejaVuSans-20" x="1143.408203"/>
      <use xlink:href="#DejaVuSans-61" x="1175.195312"/>
      <use xlink:href="#DejaVuSans-72" x="1236.474609"/>
      <use xlink:href="#DejaVuSans-65" x="1275.337891"/>
      <use xlink:href="#DejaVuSans-6e" x="1336.861328"/>
      <use xlink:href="#DejaVuSans-61" x="1400.240234"/>
     </g>
    </g>
   </g>
  </g>
 </g>
 <defs>
  <clipPath id="p3b434d2bb2">
   <rect x="40.603125" y="23.735625" width="664.63" height="295.68875"/>
  </clipPath>
 </defs>
</svg>
