<?xml version="1.0" encoding="utf-8" standalone="no"?>
<!DOCTYPE svg PUBLIC "-//W3C//DTD SVG 1.1//EN"
  "http://www.w3.org/Graphics/SVG/1.1/DTD/svg11.dtd">
<svg xmlns:xlink="http://www.w3.org/1999/xlink" width="720pt" height="360pt" viewBox="0 0 720 360" xmlns="http://www.w3.org/2000/svg" version="1.1">
 <metadata>
  <rdf:RDF xmlns:dc="http://purl.org/dc/elements/1.1/" xmlns:cc="http://creativecommons.org/ns#" xmlns:rdf="http://www.w3.org/1999/02/22-rdf-syntax-ns#">
   <cc:Work>
    <dc:type rdf:resource="http://purl.org/dc/dcmitype/StillImage"/>
    <dc:date>2025-03-12T14:12:08.196880</dc:date>
    <dc:format>image/svg+xml</dc:format>
    <dc:creator>
     <cc:Agent>
      <dc:title>Matplotlib v3.8.4, https://matplotlib.org/</dc:title>
     </cc:Agent>
    </dc:creator>
   </cc:Work>
  </rdf:RDF>
 </metadata>
 <defs>
  <style type="text/css">*{stroke-linejoin: round; stroke-linecap: butt}</style>
 </defs>
 <g id="figure_1">
  <g id="patch_1">
   <path d="M 0 360 
L 720 360 
L 720 0 
L 0 0 
z
" style="fill: #ffffff"/>
  </g>
  <g id="axes_1">
   <g id="patch_2">
    <path d="M 90 320.4 
L 648 320.4 
L 648 43.2 
L 90 43.2 
z
" style="fill: #ffffff"/>
   </g>
   <g id="matplotlib.axis_1">
    <g id="xtick_1">
     <g id="line2d_1">
      <path d="M 115.221144 320.4 
L 115.221144 43.2 
" clip-path="url(#p94544b6177)" style="fill: none; stroke: #b0b0b0; stroke-width: 0.8; stroke-linecap: square"/>
     </g>
     <g id="line2d_2">
      <defs>
       <path id="m50c5afd7af" d="M 0 0 
L 0 3.5 
" style="stroke: #000000; stroke-width: 0.8"/>
      </defs>
      <g>
       <use xlink:href="#m50c5afd7af" x="115.221144" y="320.4" style="stroke: #000000; stroke-width: 0.8"/>
      </g>
     </g>
     <g id="text_1">
      <!-- 0 -->
      <g transform="translate(112.039894 334.998438) scale(0.1 -0.1)">
       <defs>
        <path id="DejaVuSans-30" d="M 2034 4250 
Q 1547 4250 1301 3770 
Q 1056 3291 1056 2328 
Q 1056 1369 1301 889 
Q 1547 409 2034 409 
Q 2525 409 2770 889 
Q 3016 1369 3016 2328 
Q 3016 3291 2770 3770 
Q 2525 4250 2034 4250 
z
M 2034 4750 
Q 2819 4750 3233 4129 
Q 3647 3509 3647 2328 
Q 3647 1150 3233 529 
Q 2819 -91 2034 -91 
Q 1250 -91 836 529 
Q 422 1150 422 2328 
Q 422 3509 836 4129 
Q 1250 4750 2034 4750 
z
" transform="scale(0.015625)"/>
       </defs>
       <use xlink:href="#DejaVuSans-30"/>
      </g>
     </g>
    </g>
    <g id="xtick_2">
     <g id="line2d_3">
      <path d="M 200.716547 320.4 
L 200.716547 43.2 
" clip-path="url(#p94544b6177)" style="fill: none; stroke: #b0b0b0; stroke-width: 0.8; stroke-linecap: square"/>
     </g>
     <g id="line2d_4">
      <g>
       <use xlink:href="#m50c5afd7af" x="200.716547" y="320.4" style="stroke: #000000; stroke-width: 0.8"/>
      </g>
     </g>
     <g id="text_2">
      <!-- 10 -->
      <g transform="translate(194.354047 334.998438) scale(0.1 -0.1)">
       <defs>
        <path id="DejaVuSans-31" d="M 794 531 
L 1825 531 
L 1825 4091 
L 703 3866 
L 703 4441 
L 1819 4666 
L 2450 4666 
L 2450 531 
L 3481 531 
L 3481 0 
L 794 0 
L 794 531 
z
" transform="scale(0.015625)"/>
       </defs>
       <use xlink:href="#DejaVuSans-31"/>
       <use xlink:href="#DejaVuSans-30" x="63.623047"/>
      </g>
     </g>
    </g>
    <g id="xtick_3">
     <g id="line2d_5">
      <path d="M 286.211951 320.4 
L 286.211951 43.2 
" clip-path="url(#p94544b6177)" style="fill: none; stroke: #b0b0b0; stroke-width: 0.8; stroke-linecap: square"/>
     </g>
     <g id="line2d_6">
      <g>
       <use xlink:href="#m50c5afd7af" x="286.211951" y="320.4" style="stroke: #000000; stroke-width: 0.8"/>
      </g>
     </g>
     <g id="text_3">
      <!-- 20 -->
      <g transform="translate(279.849451 334.998438) scale(0.1 -0.1)">
       <defs>
        <path id="DejaVuSans-32" d="M 1228 531 
L 3431 531 
L 3431 0 
L 469 0 
L 469 531 
Q 828 903 1448 1529 
Q 2069 2156 2228 2338 
Q 2531 2678 2651 2914 
Q 2772 3150 2772 3378 
Q 2772 3750 2511 3984 
Q 2250 4219 1831 4219 
Q 1534 4219 1204 4116 
Q 875 4013 500 3803 
L 500 4441 
Q 881 4594 1212 4672 
Q 1544 4750 1819 4750 
Q 2544 4750 2975 4387 
Q 3406 4025 3406 3419 
Q 3406 3131 3298 2873 
Q 3191 2616 2906 2266 
Q 2828 2175 2409 1742 
Q 1991 1309 1228 531 
z
" transform="scale(0.015625)"/>
       </defs>
       <use xlink:href="#DejaVuSans-32"/>
       <use xlink:href="#DejaVuSans-30" x="63.623047"/>
      </g>
     </g>
    </g>
    <g id="xtick_4">
     <g id="line2d_7">
      <path d="M 371.707354 320.4 
L 371.707354 43.2 
" clip-path="url(#p94544b6177)" style="fill: none; stroke: #b0b0b0; stroke-width: 0.8; stroke-linecap: square"/>
     </g>
     <g id="line2d_8">
      <g>
       <use xlink:href="#m50c5afd7af" x="371.707354" y="320.4" style="stroke: #000000; stroke-width: 0.8"/>
      </g>
     </g>
     <g id="text_4">
      <!-- 30 -->
      <g transform="translate(365.344854 334.998438) scale(0.1 -0.1)">
       <defs>
        <path id="DejaVuSans-33" d="M 2597 2516 
Q 3050 2419 3304 2112 
Q 3559 1806 3559 1356 
Q 3559 666 3084 287 
Q 2609 -91 1734 -91 
Q 1441 -91 1130 -33 
Q 819 25 488 141 
L 488 750 
Q 750 597 1062 519 
Q 1375 441 1716 441 
Q 2309 441 2620 675 
Q 2931 909 2931 1356 
Q 2931 1769 2642 2001 
Q 2353 2234 1838 2234 
L 1294 2234 
L 1294 2753 
L 1863 2753 
Q 2328 2753 2575 2939 
Q 2822 3125 2822 3475 
Q 2822 3834 2567 4026 
Q 2313 4219 1838 4219 
Q 1578 4219 1281 4162 
Q 984 4106 628 3988 
L 628 4550 
Q 988 4650 1302 4700 
Q 1616 4750 1894 4750 
Q 2613 4750 3031 4423 
Q 3450 4097 3450 3541 
Q 3450 3153 3228 2886 
Q 3006 2619 2597 2516 
z
" transform="scale(0.015625)"/>
       </defs>
       <use xlink:href="#DejaVuSans-33"/>
       <use xlink:href="#DejaVuSans-30" x="63.623047"/>
      </g>
     </g>
    </g>
    <g id="xtick_5">
     <g id="line2d_9">
      <path d="M 457.202758 320.4 
L 457.202758 43.2 
" clip-path="url(#p94544b6177)" style="fill: none; stroke: #b0b0b0; stroke-width: 0.8; stroke-linecap: square"/>
     </g>
     <g id="line2d_10">
      <g>
       <use xlink:href="#m50c5afd7af" x="457.202758" y="320.4" style="stroke: #000000; stroke-width: 0.8"/>
      </g>
     </g>
     <g id="text_5">
      <!-- 40 -->
      <g transform="translate(450.840258 334.998438) scale(0.1 -0.1)">
       <defs>
        <path id="DejaVuSans-34" d="M 2419 4116 
L 825 1625 
L 2419 1625 
L 2419 4116 
z
M 2253 4666 
L 3047 4666 
L 3047 1625 
L 3713 1625 
L 3713 1100 
L 3047 1100 
L 3047 0 
L 2419 0 
L 2419 1100 
L 313 1100 
L 313 1709 
L 2253 4666 
z
" transform="scale(0.015625)"/>
       </defs>
       <use xlink:href="#DejaVuSans-34"/>
       <use xlink:href="#DejaVuSans-30" x="63.623047"/>
      </g>
     </g>
    </g>
    <g id="xtick_6">
     <g id="line2d_11">
      <path d="M 542.698161 320.4 
L 542.698161 43.2 
" clip-path="url(#p94544b6177)" style="fill: none; stroke: #b0b0b0; stroke-width: 0.8; stroke-linecap: square"/>
     </g>
     <g id="line2d_12">
      <g>
       <use xlink:href="#m50c5afd7af" x="542.698161" y="320.4" style="stroke: #000000; stroke-width: 0.8"/>
      </g>
     </g>
     <g id="text_6">
      <!-- 50 -->
      <g transform="translate(536.335661 334.998438) scale(0.1 -0.1)">
       <defs>
        <path id="DejaVuSans-35" d="M 691 4666 
L 3169 4666 
L 3169 4134 
L 1269 4134 
L 1269 2991 
Q 1406 3038 1543 3061 
Q 1681 3084 1819 3084 
Q 2600 3084 3056 2656 
Q 3513 2228 3513 1497 
Q 3513 744 3044 326 
Q 2575 -91 1722 -91 
Q 1428 -91 1123 -41 
Q 819 9 494 109 
L 494 744 
Q 775 591 1075 516 
Q 1375 441 1709 441 
Q 2250 441 2565 725 
Q 2881 1009 2881 1497 
Q 2881 1984 2565 2268 
Q 2250 2553 1709 2553 
Q 1456 2553 1204 2497 
Q 953 2441 691 2322 
L 691 4666 
z
" transform="scale(0.015625)"/>
       </defs>
       <use xlink:href="#DejaVuSans-35"/>
       <use xlink:href="#DejaVuSans-30" x="63.623047"/>
      </g>
     </g>
    </g>
    <g id="xtick_7">
     <g id="line2d_13">
      <path d="M 628.193565 320.4 
L 628.193565 43.2 
" clip-path="url(#p94544b6177)" style="fill: none; stroke: #b0b0b0; stroke-width: 0.8; stroke-linecap: square"/>
     </g>
     <g id="line2d_14">
      <g>
       <use xlink:href="#m50c5afd7af" x="628.193565" y="320.4" style="stroke: #000000; stroke-width: 0.8"/>
      </g>
     </g>
     <g id="text_7">
      <!-- 60 -->
      <g transform="translate(621.831065 334.998438) scale(0.1 -0.1)">
       <defs>
        <path id="DejaVuSans-36" d="M 2113 2584 
Q 1688 2584 1439 2293 
Q 1191 2003 1191 1497 
Q 1191 994 1439 701 
Q 1688 409 2113 409 
Q 2538 409 2786 701 
Q 3034 994 3034 1497 
Q 3034 2003 2786 2293 
Q 2538 2584 2113 2584 
z
M 3366 4563 
L 3366 3988 
Q 3128 4100 2886 4159 
Q 2644 4219 2406 4219 
Q 1781 4219 1451 3797 
Q 1122 3375 1075 2522 
Q 1259 2794 1537 2939 
Q 1816 3084 2150 3084 
Q 2853 3084 3261 2657 
Q 3669 2231 3669 1497 
Q 3669 778 3244 343 
Q 2819 -91 2113 -91 
Q 1303 -91 875 529 
Q 447 1150 447 2328 
Q 447 3434 972 4092 
Q 1497 4750 2381 4750 
Q 2619 4750 2861 4703 
Q 3103 4656 3366 4563 
z
" transform="scale(0.015625)"/>
       </defs>
       <use xlink:href="#DejaVuSans-36"/>
       <use xlink:href="#DejaVuSans-30" x="63.623047"/>
      </g>
     </g>
    </g>
    <g id="text_8">
     <!-- Tid (minutter) -->
     <g transform="translate(334.399219 348.676562) scale(0.1 -0.1)">
      <defs>
       <path id="DejaVuSans-54" d="M -19 4666 
L 3928 4666 
L 3928 4134 
L 2272 4134 
L 2272 0 
L 1638 0 
L 1638 4134 
L -19 4134 
L -19 4666 
z
" transform="scale(0.015625)"/>
       <path id="DejaVuSans-69" d="M 603 3500 
L 1178 3500 
L 1178 0 
L 603 0 
L 603 3500 
z
M 603 4863 
L 1178 4863 
L 1178 4134 
L 603 4134 
L 603 4863 
z
" transform="scale(0.015625)"/>
       <path id="DejaVuSans-64" d="M 2906 2969 
L 2906 4863 
L 3481 4863 
L 3481 0 
L 2906 0 
L 2906 525 
Q 2725 213 2448 61 
Q 2172 -91 1784 -91 
Q 1150 -91 751 415 
Q 353 922 353 1747 
Q 353 2572 751 3078 
Q 1150 3584 1784 3584 
Q 2172 3584 2448 3432 
Q 2725 3281 2906 2969 
z
M 947 1747 
Q 947 1113 1208 752 
Q 1469 391 1925 391 
Q 2381 391 2643 752 
Q 2906 1113 2906 1747 
Q 2906 2381 2643 2742 
Q 2381 3103 1925 3103 
Q 1469 3103 1208 2742 
Q 947 2381 947 1747 
z
" transform="scale(0.015625)"/>
       <path id="DejaVuSans-20" transform="scale(0.015625)"/>
       <path id="DejaVuSans-28" d="M 1984 4856 
Q 1566 4138 1362 3434 
Q 1159 2731 1159 2009 
Q 1159 1288 1364 580 
Q 1569 -128 1984 -844 
L 1484 -844 
Q 1016 -109 783 600 
Q 550 1309 550 2009 
Q 550 2706 781 3412 
Q 1013 4119 1484 4856 
L 1984 4856 
z
" transform="scale(0.015625)"/>
       <path id="DejaVuSans-6d" d="M 3328 2828 
Q 3544 3216 3844 3400 
Q 4144 3584 4550 3584 
Q 5097 3584 5394 3201 
Q 5691 2819 5691 2113 
L 5691 0 
L 5113 0 
L 5113 2094 
Q 5113 2597 4934 2840 
Q 4756 3084 4391 3084 
Q 3944 3084 3684 2787 
Q 3425 2491 3425 1978 
L 3425 0 
L 2847 0 
L 2847 2094 
Q 2847 2600 2669 2842 
Q 2491 3084 2119 3084 
Q 1678 3084 1418 2786 
Q 1159 2488 1159 1978 
L 1159 0 
L 581 0 
L 581 3500 
L 1159 3500 
L 1159 2956 
Q 1356 3278 1631 3431 
Q 1906 3584 2284 3584 
Q 2666 3584 2933 3390 
Q 3200 3197 3328 2828 
z
" transform="scale(0.015625)"/>
       <path id="DejaVuSans-6e" d="M 3513 2113 
L 3513 0 
L 2938 0 
L 2938 2094 
Q 2938 2591 2744 2837 
Q 2550 3084 2163 3084 
Q 1697 3084 1428 2787 
Q 1159 2491 1159 1978 
L 1159 0 
L 581 0 
L 581 3500 
L 1159 3500 
L 1159 2956 
Q 1366 3272 1645 3428 
Q 1925 3584 2291 3584 
Q 2894 3584 3203 3211 
Q 3513 2838 3513 2113 
z
" transform="scale(0.015625)"/>
       <path id="DejaVuSans-75" d="M 544 1381 
L 544 3500 
L 1119 3500 
L 1119 1403 
Q 1119 906 1312 657 
Q 1506 409 1894 409 
Q 2359 409 2629 706 
Q 2900 1003 2900 1516 
L 2900 3500 
L 3475 3500 
L 3475 0 
L 2900 0 
L 2900 538 
Q 2691 219 2414 64 
Q 2138 -91 1772 -91 
Q 1169 -91 856 284 
Q 544 659 544 1381 
z
M 1991 3584 
L 1991 3584 
z
" transform="scale(0.015625)"/>
       <path id="DejaVuSans-74" d="M 1172 4494 
L 1172 3500 
L 2356 3500 
L 2356 3053 
L 1172 3053 
L 1172 1153 
Q 1172 725 1289 603 
Q 1406 481 1766 481 
L 2356 481 
L 2356 0 
L 1766 0 
Q 1100 0 847 248 
Q 594 497 594 1153 
L 594 3053 
L 172 3053 
L 172 3500 
L 594 3500 
L 594 4494 
L 1172 4494 
z
" transform="scale(0.015625)"/>
       <path id="DejaVuSans-65" d="M 3597 1894 
L 3597 1613 
L 953 1613 
Q 991 1019 1311 708 
Q 1631 397 2203 397 
Q 2534 397 2845 478 
Q 3156 559 3463 722 
L 3463 178 
Q 3153 47 2828 -22 
Q 2503 -91 2169 -91 
Q 1331 -91 842 396 
Q 353 884 353 1716 
Q 353 2575 817 3079 
Q 1281 3584 2069 3584 
Q 2775 3584 3186 3129 
Q 3597 2675 3597 1894 
z
M 3022 2063 
Q 3016 2534 2758 2815 
Q 2500 3097 2075 3097 
Q 1594 3097 1305 2825 
Q 1016 2553 972 2059 
L 3022 2063 
z
" transform="scale(0.015625)"/>
       <path id="DejaVuSans-72" d="M 2631 2963 
Q 2534 3019 2420 3045 
Q 2306 3072 2169 3072 
Q 1681 3072 1420 2755 
Q 1159 2438 1159 1844 
L 1159 0 
L 581 0 
L 581 3500 
L 1159 3500 
L 1159 2956 
Q 1341 3275 1631 3429 
Q 1922 3584 2338 3584 
Q 2397 3584 2469 3576 
Q 2541 3569 2628 3553 
L 2631 2963 
z
" transform="scale(0.015625)"/>
       <path id="DejaVuSans-29" d="M 513 4856 
L 1013 4856 
Q 1481 4119 1714 3412 
Q 1947 2706 1947 2009 
Q 1947 1309 1714 600 
Q 1481 -109 1013 -844 
L 513 -844 
Q 928 -128 1133 580 
Q 1338 1288 1338 2009 
Q 1338 2731 1133 3434 
Q 928 4138 513 4856 
z
" transform="scale(0.015625)"/>
      </defs>
      <use xlink:href="#DejaVuSans-54"/>
      <use xlink:href="#DejaVuSans-69" x="57.958984"/>
      <use xlink:href="#DejaVuSans-64" x="85.742188"/>
      <use xlink:href="#DejaVuSans-20" x="149.21875"/>
      <use xlink:href="#DejaVuSans-28" x="181.005859"/>
      <use xlink:href="#DejaVuSans-6d" x="220.019531"/>
      <use xlink:href="#DejaVuSans-69" x="317.431641"/>
      <use xlink:href="#DejaVuSans-6e" x="345.214844"/>
      <use xlink:href="#DejaVuSans-75" x="408.59375"/>
      <use xlink:href="#DejaVuSans-74" x="471.972656"/>
      <use xlink:href="#DejaVuSans-74" x="511.181641"/>
      <use xlink:href="#DejaVuSans-65" x="550.390625"/>
      <use xlink:href="#DejaVuSans-72" x="611.914062"/>
      <use xlink:href="#DejaVuSans-29" x="653.027344"/>
     </g>
    </g>
   </g>
   <g id="matplotlib.axis_2">
    <g id="ytick_1">
     <g id="line2d_15">
      <path d="M 90 310.15514 
L 648 310.15514 
" clip-path="url(#p94544b6177)" style="fill: none; stroke: #b0b0b0; stroke-width: 0.8; stroke-linecap: square"/>
     </g>
     <g id="line2d_16">
      <defs>
       <path id="m5eceeb107a" d="M 0 0 
L -3.5 0 
" style="stroke: #000000; stroke-width: 0.8"/>
      </defs>
      <g>
       <use xlink:href="#m5eceeb107a" x="90" y="310.15514" style="stroke: #000000; stroke-width: 0.8"/>
      </g>
     </g>
     <g id="text_9">
      <!-- 44 -->
      <g transform="translate(70.275 313.954359) scale(0.1 -0.1)">
       <use xlink:href="#DejaVuSans-34"/>
       <use xlink:href="#DejaVuSans-34" x="63.623047"/>
      </g>
     </g>
    </g>
    <g id="ytick_2">
     <g id="line2d_17">
      <path d="M 90 263.052336 
L 648 263.052336 
" clip-path="url(#p94544b6177)" style="fill: none; stroke: #b0b0b0; stroke-width: 0.8; stroke-linecap: square"/>
     </g>
     <g id="line2d_18">
      <g>
       <use xlink:href="#m5eceeb107a" x="90" y="263.052336" style="stroke: #000000; stroke-width: 0.8"/>
      </g>
     </g>
     <g id="text_10">
      <!-- 46 -->
      <g transform="translate(70.275 266.851555) scale(0.1 -0.1)">
       <use xlink:href="#DejaVuSans-34"/>
       <use xlink:href="#DejaVuSans-36" x="63.623047"/>
      </g>
     </g>
    </g>
    <g id="ytick_3">
     <g id="line2d_19">
      <path d="M 90 215.949533 
L 648 215.949533 
" clip-path="url(#p94544b6177)" style="fill: none; stroke: #b0b0b0; stroke-width: 0.8; stroke-linecap: square"/>
     </g>
     <g id="line2d_20">
      <g>
       <use xlink:href="#m5eceeb107a" x="90" y="215.949533" style="stroke: #000000; stroke-width: 0.8"/>
      </g>
     </g>
     <g id="text_11">
      <!-- 48 -->
      <g transform="translate(70.275 219.748751) scale(0.1 -0.1)">
       <defs>
        <path id="DejaVuSans-38" d="M 2034 2216 
Q 1584 2216 1326 1975 
Q 1069 1734 1069 1313 
Q 1069 891 1326 650 
Q 1584 409 2034 409 
Q 2484 409 2743 651 
Q 3003 894 3003 1313 
Q 3003 1734 2745 1975 
Q 2488 2216 2034 2216 
z
M 1403 2484 
Q 997 2584 770 2862 
Q 544 3141 544 3541 
Q 544 4100 942 4425 
Q 1341 4750 2034 4750 
Q 2731 4750 3128 4425 
Q 3525 4100 3525 3541 
Q 3525 3141 3298 2862 
Q 3072 2584 2669 2484 
Q 3125 2378 3379 2068 
Q 3634 1759 3634 1313 
Q 3634 634 3220 271 
Q 2806 -91 2034 -91 
Q 1263 -91 848 271 
Q 434 634 434 1313 
Q 434 1759 690 2068 
Q 947 2378 1403 2484 
z
M 1172 3481 
Q 1172 3119 1398 2916 
Q 1625 2713 2034 2713 
Q 2441 2713 2670 2916 
Q 2900 3119 2900 3481 
Q 2900 3844 2670 4047 
Q 2441 4250 2034 4250 
Q 1625 4250 1398 4047 
Q 1172 3844 1172 3481 
z
" transform="scale(0.015625)"/>
       </defs>
       <use xlink:href="#DejaVuSans-34"/>
       <use xlink:href="#DejaVuSans-38" x="63.623047"/>
      </g>
     </g>
    </g>
    <g id="ytick_4">
     <g id="line2d_21">
      <path d="M 90 168.846729 
L 648 168.846729 
" clip-path="url(#p94544b6177)" style="fill: none; stroke: #b0b0b0; stroke-width: 0.8; stroke-linecap: square"/>
     </g>
     <g id="line2d_22">
      <g>
       <use xlink:href="#m5eceeb107a" x="90" y="168.846729" style="stroke: #000000; stroke-width: 0.8"/>
      </g>
     </g>
     <g id="text_12">
      <!-- 50 -->
      <g transform="translate(70.275 172.645948) scale(0.1 -0.1)">
       <use xlink:href="#DejaVuSans-35"/>
       <use xlink:href="#DejaVuSans-30" x="63.623047"/>
      </g>
     </g>
    </g>
    <g id="ytick_5">
     <g id="line2d_23">
      <path d="M 90 121.743925 
L 648 121.743925 
" clip-path="url(#p94544b6177)" style="fill: none; stroke: #b0b0b0; stroke-width: 0.8; stroke-linecap: square"/>
     </g>
     <g id="line2d_24">
      <g>
       <use xlink:href="#m5eceeb107a" x="90" y="121.743925" style="stroke: #000000; stroke-width: 0.8"/>
      </g>
     </g>
     <g id="text_13">
      <!-- 52 -->
      <g transform="translate(70.275 125.543144) scale(0.1 -0.1)">
       <use xlink:href="#DejaVuSans-35"/>
       <use xlink:href="#DejaVuSans-32" x="63.623047"/>
      </g>
     </g>
    </g>
    <g id="ytick_6">
     <g id="line2d_25">
      <path d="M 90 74.641121 
L 648 74.641121 
" clip-path="url(#p94544b6177)" style="fill: none; stroke: #b0b0b0; stroke-width: 0.8; stroke-linecap: square"/>
     </g>
     <g id="line2d_26">
      <g>
       <use xlink:href="#m5eceeb107a" x="90" y="74.641121" style="stroke: #000000; stroke-width: 0.8"/>
      </g>
     </g>
     <g id="text_14">
      <!-- 54 -->
      <g transform="translate(70.275 78.44034) scale(0.1 -0.1)">
       <use xlink:href="#DejaVuSans-35"/>
       <use xlink:href="#DejaVuSans-34" x="63.623047"/>
      </g>
     </g>
    </g>
    <g id="text_15">
     <!-- Lydnivå LAeq (dB) -->
     <g transform="translate(64.195312 227.010937) rotate(-90) scale(0.1 -0.1)">
      <defs>
       <path id="DejaVuSans-4c" d="M 628 4666 
L 1259 4666 
L 1259 531 
L 3531 531 
L 3531 0 
L 628 0 
L 628 4666 
z
" transform="scale(0.015625)"/>
       <path id="DejaVuSans-79" d="M 2059 -325 
Q 1816 -950 1584 -1140 
Q 1353 -1331 966 -1331 
L 506 -1331 
L 506 -850 
L 844 -850 
Q 1081 -850 1212 -737 
Q 1344 -625 1503 -206 
L 1606 56 
L 191 3500 
L 800 3500 
L 1894 763 
L 2988 3500 
L 3597 3500 
L 2059 -325 
z
" transform="scale(0.015625)"/>
       <path id="DejaVuSans-76" d="M 191 3500 
L 800 3500 
L 1894 563 
L 2988 3500 
L 3597 3500 
L 2284 0 
L 1503 0 
L 191 3500 
z
" transform="scale(0.015625)"/>
       <path id="DejaVuSans-e5" d="M 2194 1759 
Q 1497 1759 1228 1600 
Q 959 1441 959 1056 
Q 959 750 1161 570 
Q 1363 391 1709 391 
Q 2188 391 2477 730 
Q 2766 1069 2766 1631 
L 2766 1759 
L 2194 1759 
z
M 3341 1997 
L 3341 0 
L 2766 0 
L 2766 531 
Q 2569 213 2275 61 
Q 1981 -91 1556 -91 
Q 1019 -91 701 211 
Q 384 513 384 1019 
Q 384 1609 779 1909 
Q 1175 2209 1959 2209 
L 2766 2209 
L 2766 2266 
Q 2766 2663 2505 2880 
Q 2244 3097 1772 3097 
Q 1472 3097 1187 3025 
Q 903 2953 641 2809 
L 641 3341 
Q 956 3463 1253 3523 
Q 1550 3584 1831 3584 
Q 2591 3584 2966 3190 
Q 3341 2797 3341 1997 
z
M 2331 4763 
Q 2331 4959 2193 5096 
Q 2056 5234 1856 5234 
Q 1653 5234 1517 5098 
Q 1381 4963 1381 4763 
Q 1381 4559 1517 4423 
Q 1653 4288 1856 4288 
Q 2056 4288 2193 4425 
Q 2331 4563 2331 4763 
z
M 2713 4763 
Q 2713 4403 2464 4153 
Q 2216 3903 1856 3903 
Q 1497 3903 1248 4153 
Q 1000 4403 1000 4763 
Q 1000 5122 1248 5370 
Q 1497 5619 1856 5619 
Q 2216 5619 2464 5370 
Q 2713 5122 2713 4763 
z
" transform="scale(0.015625)"/>
       <path id="DejaVuSans-41" d="M 2188 4044 
L 1331 1722 
L 3047 1722 
L 2188 4044 
z
M 1831 4666 
L 2547 4666 
L 4325 0 
L 3669 0 
L 3244 1197 
L 1141 1197 
L 716 0 
L 50 0 
L 1831 4666 
z
" transform="scale(0.015625)"/>
       <path id="DejaVuSans-71" d="M 947 1747 
Q 947 1113 1208 752 
Q 1469 391 1925 391 
Q 2381 391 2643 752 
Q 2906 1113 2906 1747 
Q 2906 2381 2643 2742 
Q 2381 3103 1925 3103 
Q 1469 3103 1208 2742 
Q 947 2381 947 1747 
z
M 2906 525 
Q 2725 213 2448 61 
Q 2172 -91 1784 -91 
Q 1150 -91 751 415 
Q 353 922 353 1747 
Q 353 2572 751 3078 
Q 1150 3584 1784 3584 
Q 2172 3584 2448 3432 
Q 2725 3281 2906 2969 
L 2906 3500 
L 3481 3500 
L 3481 -1331 
L 2906 -1331 
L 2906 525 
z
" transform="scale(0.015625)"/>
       <path id="DejaVuSans-42" d="M 1259 2228 
L 1259 519 
L 2272 519 
Q 2781 519 3026 730 
Q 3272 941 3272 1375 
Q 3272 1813 3026 2020 
Q 2781 2228 2272 2228 
L 1259 2228 
z
M 1259 4147 
L 1259 2741 
L 2194 2741 
Q 2656 2741 2882 2914 
Q 3109 3088 3109 3444 
Q 3109 3797 2882 3972 
Q 2656 4147 2194 4147 
L 1259 4147 
z
M 628 4666 
L 2241 4666 
Q 2963 4666 3353 4366 
Q 3744 4066 3744 3513 
Q 3744 3084 3544 2831 
Q 3344 2578 2956 2516 
Q 3422 2416 3680 2098 
Q 3938 1781 3938 1306 
Q 3938 681 3513 340 
Q 3088 0 2303 0 
L 628 0 
L 628 4666 
z
" transform="scale(0.015625)"/>
      </defs>
      <use xlink:href="#DejaVuSans-4c"/>
      <use xlink:href="#DejaVuSans-79" x="46.587891"/>
      <use xlink:href="#DejaVuSans-64" x="105.767578"/>
      <use xlink:href="#DejaVuSans-6e" x="169.244141"/>
      <use xlink:href="#DejaVuSans-69" x="232.623047"/>
      <use xlink:href="#DejaVuSans-76" x="260.40625"/>
      <use xlink:href="#DejaVuSans-e5" x="319.585938"/>
      <use xlink:href="#DejaVuSans-20" x="380.865234"/>
      <use xlink:href="#DejaVuSans-4c" x="412.652344"/>
      <use xlink:href="#DejaVuSans-41" x="470.615234"/>
      <use xlink:href="#DejaVuSans-65" x="537.273438"/>
      <use xlink:href="#DejaVuSans-71" x="598.796875"/>
      <use xlink:href="#DejaVuSans-20" x="662.273438"/>
      <use xlink:href="#DejaVuSans-28" x="694.060547"/>
      <use xlink:href="#DejaVuSans-64" x="733.074219"/>
      <use xlink:href="#DejaVuSans-42" x="796.550781"/>
      <use xlink:href="#DejaVuSans-29" x="865.154297"/>
     </g>
    </g>
   </g>
   <g id="line2d_27">
    <path d="M 115.363636 197.108411 
L 121.06333 197.108411 
L 126.763023 140.585047 
L 132.462717 157.071028 
L 138.162411 206.528972 
L 143.862104 192.398131 
L 149.561798 227.725234 
L 155.261491 194.753271 
L 160.961185 215.949533 
L 166.660878 241.856075 
L 172.360572 114.678505 
L 178.060266 171.201869 
L 183.759959 157.071028 
L 189.459653 175.91215 
L 195.159346 192.398131 
L 200.85904 204.173832 
L 206.558733 164.136449 
L 212.258427 255.986916 
L 217.958121 244.211215 
L 223.657814 197.108411 
L 229.357508 230.080374 
L 235.057201 201.818692 
L 240.756895 187.68785 
L 246.456588 239.500935 
L 252.156282 168.846729 
L 257.855975 154.715888 
L 263.555669 185.33271 
L 269.255363 154.715888 
L 274.955056 150.005607 
L 280.65475 187.68785 
L 286.354443 220.659813 
L 292.054137 213.594393 
L 297.75383 291.314019 
L 303.453524 131.164486 
L 309.153218 142.940187 
L 314.852911 133.519626 
L 320.552605 190.042991 
L 326.252298 190.042991 
L 331.951992 197.108411 
L 337.651685 211.239252 
L 343.351379 211.239252 
L 349.051073 112.323364 
L 354.750766 244.211215 
L 360.45046 182.97757 
L 366.150153 187.68785 
L 371.849847 128.809346 
L 377.54954 204.173832 
L 383.249234 213.594393 
L 388.948927 291.314019 
L 394.648621 126.454206 
L 400.348315 277.183178 
L 406.048008 192.398131 
L 411.747702 95.837383 
L 417.447395 225.370093 
L 423.147089 206.528972 
L 428.846782 244.211215 
L 434.546476 150.005607 
L 440.24617 241.856075 
L 445.945863 175.91215 
L 451.645557 55.8 
L 457.34525 199.463551 
L 463.044944 140.585047 
L 468.744637 128.809346 
L 474.444331 138.229907 
L 480.144025 131.164486 
L 485.843718 197.108411 
L 491.543412 133.519626 
L 497.243105 178.26729 
L 502.942799 192.398131 
L 508.642492 227.725234 
L 514.342186 135.874766 
L 520.041879 147.650467 
L 525.741573 161.781308 
L 531.441267 213.594393 
L 537.14096 142.940187 
L 542.840654 107.613084 
L 548.540347 213.594393 
L 554.240041 192.398131 
L 559.939734 218.304673 
L 565.639428 244.211215 
L 571.339122 263.052336 
L 577.038815 253.631776 
L 582.738509 277.183178 
L 588.438202 274.828037 
L 594.137896 161.781308 
L 599.837589 204.173832 
L 605.537283 208.884112 
L 611.236977 126.454206 
L 616.93667 215.949533 
L 622.636364 201.818692 
" clip-path="url(#p94544b6177)" style="fill: none; stroke: #1f77b4; stroke-width: 1.5; stroke-linecap: square"/>
    <defs>
     <path id="m538a9d96b7" d="M 0 3 
C 0.795609 3 1.55874 2.683901 2.12132 2.12132 
C 2.683901 1.55874 3 0.795609 3 0 
C 3 -0.795609 2.683901 -1.55874 2.12132 -2.12132 
C 1.55874 -2.683901 0.795609 -3 0 -3 
C -0.795609 -3 -1.55874 -2.683901 -2.12132 -2.12132 
C -2.683901 -1.55874 -3 -0.795609 -3 0 
C -3 0.795609 -2.683901 1.55874 -2.12132 2.12132 
C -1.55874 2.683901 -0.795609 3 0 3 
z
" style="stroke: #1f77b4"/>
    </defs>
    <g clip-path="url(#p94544b6177)">
     <use xlink:href="#m538a9d96b7" x="115.363636" y="197.108411" style="fill: #1f77b4; stroke: #1f77b4"/>
     <use xlink:href="#m538a9d96b7" x="121.06333" y="197.108411" style="fill: #1f77b4; stroke: #1f77b4"/>
     <use xlink:href="#m538a9d96b7" x="126.763023" y="140.585047" style="fill: #1f77b4; stroke: #1f77b4"/>
     <use xlink:href="#m538a9d96b7" x="132.462717" y="157.071028" style="fill: #1f77b4; stroke: #1f77b4"/>
     <use xlink:href="#m538a9d96b7" x="138.162411" y="206.528972" style="fill: #1f77b4; stroke: #1f77b4"/>
     <use xlink:href="#m538a9d96b7" x="143.862104" y="192.398131" style="fill: #1f77b4; stroke: #1f77b4"/>
     <use xlink:href="#m538a9d96b7" x="149.561798" y="227.725234" style="fill: #1f77b4; stroke: #1f77b4"/>
     <use xlink:href="#m538a9d96b7" x="155.261491" y="194.753271" style="fill: #1f77b4; stroke: #1f77b4"/>
     <use xlink:href="#m538a9d96b7" x="160.961185" y="215.949533" style="fill: #1f77b4; stroke: #1f77b4"/>
     <use xlink:href="#m538a9d96b7" x="166.660878" y="241.856075" style="fill: #1f77b4; stroke: #1f77b4"/>
     <use xlink:href="#m538a9d96b7" x="172.360572" y="114.678505" style="fill: #1f77b4; stroke: #1f77b4"/>
     <use xlink:href="#m538a9d96b7" x="178.060266" y="171.201869" style="fill: #1f77b4; stroke: #1f77b4"/>
     <use xlink:href="#m538a9d96b7" x="183.759959" y="157.071028" style="fill: #1f77b4; stroke: #1f77b4"/>
     <use xlink:href="#m538a9d96b7" x="189.459653" y="175.91215" style="fill: #1f77b4; stroke: #1f77b4"/>
     <use xlink:href="#m538a9d96b7" x="195.159346" y="192.398131" style="fill: #1f77b4; stroke: #1f77b4"/>
     <use xlink:href="#m538a9d96b7" x="200.85904" y="204.173832" style="fill: #1f77b4; stroke: #1f77b4"/>
     <use xlink:href="#m538a9d96b7" x="206.558733" y="164.136449" style="fill: #1f77b4; stroke: #1f77b4"/>
     <use xlink:href="#m538a9d96b7" x="212.258427" y="255.986916" style="fill: #1f77b4; stroke: #1f77b4"/>
     <use xlink:href="#m538a9d96b7" x="217.958121" y="244.211215" style="fill: #1f77b4; stroke: #1f77b4"/>
     <use xlink:href="#m538a9d96b7" x="223.657814" y="197.108411" style="fill: #1f77b4; stroke: #1f77b4"/>
     <use xlink:href="#m538a9d96b7" x="229.357508" y="230.080374" style="fill: #1f77b4; stroke: #1f77b4"/>
     <use xlink:href="#m538a9d96b7" x="235.057201" y="201.818692" style="fill: #1f77b4; stroke: #1f77b4"/>
     <use xlink:href="#m538a9d96b7" x="240.756895" y="187.68785" style="fill: #1f77b4; stroke: #1f77b4"/>
     <use xlink:href="#m538a9d96b7" x="246.456588" y="239.500935" style="fill: #1f77b4; stroke: #1f77b4"/>
     <use xlink:href="#m538a9d96b7" x="252.156282" y="168.846729" style="fill: #1f77b4; stroke: #1f77b4"/>
     <use xlink:href="#m538a9d96b7" x="257.855975" y="154.715888" style="fill: #1f77b4; stroke: #1f77b4"/>
     <use xlink:href="#m538a9d96b7" x="263.555669" y="185.33271" style="fill: #1f77b4; stroke: #1f77b4"/>
     <use xlink:href="#m538a9d96b7" x="269.255363" y="154.715888" style="fill: #1f77b4; stroke: #1f77b4"/>
     <use xlink:href="#m538a9d96b7" x="274.955056" y="150.005607" style="fill: #1f77b4; stroke: #1f77b4"/>
     <use xlink:href="#m538a9d96b7" x="280.65475" y="187.68785" style="fill: #1f77b4; stroke: #1f77b4"/>
     <use xlink:href="#m538a9d96b7" x="286.354443" y="220.659813" style="fill: #1f77b4; stroke: #1f77b4"/>
     <use xlink:href="#m538a9d96b7" x="292.054137" y="213.594393" style="fill: #1f77b4; stroke: #1f77b4"/>
     <use xlink:href="#m538a9d96b7" x="297.75383" y="291.314019" style="fill: #1f77b4; stroke: #1f77b4"/>
     <use xlink:href="#m538a9d96b7" x="303.453524" y="131.164486" style="fill: #1f77b4; stroke: #1f77b4"/>
     <use xlink:href="#m538a9d96b7" x="309.153218" y="142.940187" style="fill: #1f77b4; stroke: #1f77b4"/>
     <use xlink:href="#m538a9d96b7" x="314.852911" y="133.519626" style="fill: #1f77b4; stroke: #1f77b4"/>
     <use xlink:href="#m538a9d96b7" x="320.552605" y="190.042991" style="fill: #1f77b4; stroke: #1f77b4"/>
     <use xlink:href="#m538a9d96b7" x="326.252298" y="190.042991" style="fill: #1f77b4; stroke: #1f77b4"/>
     <use xlink:href="#m538a9d96b7" x="331.951992" y="197.108411" style="fill: #1f77b4; stroke: #1f77b4"/>
     <use xlink:href="#m538a9d96b7" x="337.651685" y="211.239252" style="fill: #1f77b4; stroke: #1f77b4"/>
     <use xlink:href="#m538a9d96b7" x="343.351379" y="211.239252" style="fill: #1f77b4; stroke: #1f77b4"/>
     <use xlink:href="#m538a9d96b7" x="349.051073" y="112.323364" style="fill: #1f77b4; stroke: #1f77b4"/>
     <use xlink:href="#m538a9d96b7" x="354.750766" y="244.211215" style="fill: #1f77b4; stroke: #1f77b4"/>
     <use xlink:href="#m538a9d96b7" x="360.45046" y="182.97757" style="fill: #1f77b4; stroke: #1f77b4"/>
     <use xlink:href="#m538a9d96b7" x="366.150153" y="187.68785" style="fill: #1f77b4; stroke: #1f77b4"/>
     <use xlink:href="#m538a9d96b7" x="371.849847" y="128.809346" style="fill: #1f77b4; stroke: #1f77b4"/>
     <use xlink:href="#m538a9d96b7" x="377.54954" y="204.173832" style="fill: #1f77b4; stroke: #1f77b4"/>
     <use xlink:href="#m538a9d96b7" x="383.249234" y="213.594393" style="fill: #1f77b4; stroke: #1f77b4"/>
     <use xlink:href="#m538a9d96b7" x="388.948927" y="291.314019" style="fill: #1f77b4; stroke: #1f77b4"/>
     <use xlink:href="#m538a9d96b7" x="394.648621" y="126.454206" style="fill: #1f77b4; stroke: #1f77b4"/>
     <use xlink:href="#m538a9d96b7" x="400.348315" y="277.183178" style="fill: #1f77b4; stroke: #1f77b4"/>
     <use xlink:href="#m538a9d96b7" x="406.048008" y="192.398131" style="fill: #1f77b4; stroke: #1f77b4"/>
     <use xlink:href="#m538a9d96b7" x="411.747702" y="95.837383" style="fill: #1f77b4; stroke: #1f77b4"/>
     <use xlink:href="#m538a9d96b7" x="417.447395" y="225.370093" style="fill: #1f77b4; stroke: #1f77b4"/>
     <use xlink:href="#m538a9d96b7" x="423.147089" y="206.528972" style="fill: #1f77b4; stroke: #1f77b4"/>
     <use xlink:href="#m538a9d96b7" x="428.846782" y="244.211215" style="fill: #1f77b4; stroke: #1f77b4"/>
     <use xlink:href="#m538a9d96b7" x="434.546476" y="150.005607" style="fill: #1f77b4; stroke: #1f77b4"/>
     <use xlink:href="#m538a9d96b7" x="440.24617" y="241.856075" style="fill: #1f77b4; stroke: #1f77b4"/>
     <use xlink:href="#m538a9d96b7" x="445.945863" y="175.91215" style="fill: #1f77b4; stroke: #1f77b4"/>
     <use xlink:href="#m538a9d96b7" x="451.645557" y="55.8" style="fill: #1f77b4; stroke: #1f77b4"/>
     <use xlink:href="#m538a9d96b7" x="457.34525" y="199.463551" style="fill: #1f77b4; stroke: #1f77b4"/>
     <use xlink:href="#m538a9d96b7" x="463.044944" y="140.585047" style="fill: #1f77b4; stroke: #1f77b4"/>
     <use xlink:href="#m538a9d96b7" x="468.744637" y="128.809346" style="fill: #1f77b4; stroke: #1f77b4"/>
     <use xlink:href="#m538a9d96b7" x="474.444331" y="138.229907" style="fill: #1f77b4; stroke: #1f77b4"/>
     <use xlink:href="#m538a9d96b7" x="480.144025" y="131.164486" style="fill: #1f77b4; stroke: #1f77b4"/>
     <use xlink:href="#m538a9d96b7" x="485.843718" y="197.108411" style="fill: #1f77b4; stroke: #1f77b4"/>
     <use xlink:href="#m538a9d96b7" x="491.543412" y="133.519626" style="fill: #1f77b4; stroke: #1f77b4"/>
     <use xlink:href="#m538a9d96b7" x="497.243105" y="178.26729" style="fill: #1f77b4; stroke: #1f77b4"/>
     <use xlink:href="#m538a9d96b7" x="502.942799" y="192.398131" style="fill: #1f77b4; stroke: #1f77b4"/>
     <use xlink:href="#m538a9d96b7" x="508.642492" y="227.725234" style="fill: #1f77b4; stroke: #1f77b4"/>
     <use xlink:href="#m538a9d96b7" x="514.342186" y="135.874766" style="fill: #1f77b4; stroke: #1f77b4"/>
     <use xlink:href="#m538a9d96b7" x="520.041879" y="147.650467" style="fill: #1f77b4; stroke: #1f77b4"/>
     <use xlink:href="#m538a9d96b7" x="525.741573" y="161.781308" style="fill: #1f77b4; stroke: #1f77b4"/>
     <use xlink:href="#m538a9d96b7" x="531.441267" y="213.594393" style="fill: #1f77b4; stroke: #1f77b4"/>
     <use xlink:href="#m538a9d96b7" x="537.14096" y="142.940187" style="fill: #1f77b4; stroke: #1f77b4"/>
     <use xlink:href="#m538a9d96b7" x="542.840654" y="107.613084" style="fill: #1f77b4; stroke: #1f77b4"/>
     <use xlink:href="#m538a9d96b7" x="548.540347" y="213.594393" style="fill: #1f77b4; stroke: #1f77b4"/>
     <use xlink:href="#m538a9d96b7" x="554.240041" y="192.398131" style="fill: #1f77b4; stroke: #1f77b4"/>
     <use xlink:href="#m538a9d96b7" x="559.939734" y="218.304673" style="fill: #1f77b4; stroke: #1f77b4"/>
     <use xlink:href="#m538a9d96b7" x="565.639428" y="244.211215" style="fill: #1f77b4; stroke: #1f77b4"/>
     <use xlink:href="#m538a9d96b7" x="571.339122" y="263.052336" style="fill: #1f77b4; stroke: #1f77b4"/>
     <use xlink:href="#m538a9d96b7" x="577.038815" y="253.631776" style="fill: #1f77b4; stroke: #1f77b4"/>
     <use xlink:href="#m538a9d96b7" x="582.738509" y="277.183178" style="fill: #1f77b4; stroke: #1f77b4"/>
     <use xlink:href="#m538a9d96b7" x="588.438202" y="274.828037" style="fill: #1f77b4; stroke: #1f77b4"/>
     <use xlink:href="#m538a9d96b7" x="594.137896" y="161.781308" style="fill: #1f77b4; stroke: #1f77b4"/>
     <use xlink:href="#m538a9d96b7" x="599.837589" y="204.173832" style="fill: #1f77b4; stroke: #1f77b4"/>
     <use xlink:href="#m538a9d96b7" x="605.537283" y="208.884112" style="fill: #1f77b4; stroke: #1f77b4"/>
     <use xlink:href="#m538a9d96b7" x="611.236977" y="126.454206" style="fill: #1f77b4; stroke: #1f77b4"/>
     <use xlink:href="#m538a9d96b7" x="616.93667" y="215.949533" style="fill: #1f77b4; stroke: #1f77b4"/>
     <use xlink:href="#m538a9d96b7" x="622.636364" y="201.818692" style="fill: #1f77b4; stroke: #1f77b4"/>
    </g>
   </g>
   <g id="line2d_28">
    <path d="M 115.363636 218.304673 
L 121.06333 175.91215 
L 126.763023 147.650467 
L 132.462717 185.33271 
L 138.162411 201.818692 
L 143.862104 173.557009 
L 149.561798 223.014953 
L 155.261491 190.042991 
L 160.961185 201.818692 
L 166.660878 220.659813 
L 172.360572 69.930841 
L 178.060266 138.229907 
L 183.759959 164.136449 
L 189.459653 166.491589 
L 195.159346 173.557009 
L 200.85904 208.884112 
L 206.558733 157.071028 
L 212.258427 253.631776 
L 217.958121 232.435514 
L 223.657814 201.818692 
L 229.357508 206.528972 
L 235.057201 225.370093 
L 240.756895 173.557009 
L 246.456588 286.603738 
L 252.156282 138.229907 
L 257.855975 131.164486 
L 263.555669 175.91215 
L 269.255363 190.042991 
L 274.955056 119.388785 
L 280.65475 168.846729 
L 286.354443 237.145794 
L 292.054137 211.239252 
L 297.75383 258.342056 
L 303.453524 105.257944 
L 309.153218 133.519626 
L 314.852911 140.585047 
L 320.552605 159.426168 
L 326.252298 168.846729 
L 331.951992 171.201869 
L 337.651685 201.818692 
L 343.351379 161.781308 
L 349.051073 147.650467 
L 354.750766 211.239252 
L 360.45046 150.005607 
L 366.150153 248.921495 
L 371.849847 105.257944 
L 377.54954 227.725234 
L 383.249234 194.753271 
L 388.948927 293.669159 
L 394.648621 126.454206 
L 400.348315 286.603738 
L 406.048008 192.398131 
L 411.747702 150.005607 
L 417.447395 218.304673 
L 423.147089 206.528972 
L 428.846782 272.472897 
L 434.546476 234.790654 
L 440.24617 307.8 
L 445.945863 182.97757 
L 451.645557 197.108411 
L 457.34525 218.304673 
L 463.044944 147.650467 
L 468.744637 145.295327 
L 474.444331 159.426168 
L 480.144025 147.650467 
L 485.843718 182.97757 
L 491.543412 173.557009 
L 497.243105 199.463551 
L 502.942799 194.753271 
L 508.642492 230.080374 
L 514.342186 145.295327 
L 520.041879 164.136449 
L 525.741573 180.62243 
L 531.441267 279.538318 
L 537.14096 147.650467 
L 542.840654 93.482243 
L 548.540347 199.463551 
L 554.240041 175.91215 
L 559.939734 180.62243 
L 565.639428 234.790654 
L 571.339122 251.276636 
L 577.038815 218.304673 
L 582.738509 298.379439 
L 588.438202 284.248598 
L 594.137896 161.781308 
L 599.837589 227.725234 
L 605.537283 190.042991 
L 611.236977 109.968224 
L 616.93667 232.435514 
L 622.636364 208.884112 
" clip-path="url(#p94544b6177)" style="fill: none; stroke: #ff7f0e; stroke-width: 1.5; stroke-linecap: square"/>
    <defs>
     <path id="mb84ced3948" d="M -3 3 
L 3 3 
L 3 -3 
L -3 -3 
z
" style="stroke: #ff7f0e; stroke-linejoin: miter"/>
    </defs>
    <g clip-path="url(#p94544b6177)">
     <use xlink:href="#mb84ced3948" x="115.363636" y="218.304673" style="fill: #ff7f0e; stroke: #ff7f0e; stroke-linejoin: miter"/>
     <use xlink:href="#mb84ced3948" x="121.06333" y="175.91215" style="fill: #ff7f0e; stroke: #ff7f0e; stroke-linejoin: miter"/>
     <use xlink:href="#mb84ced3948" x="126.763023" y="147.650467" style="fill: #ff7f0e; stroke: #ff7f0e; stroke-linejoin: miter"/>
     <use xlink:href="#mb84ced3948" x="132.462717" y="185.33271" style="fill: #ff7f0e; stroke: #ff7f0e; stroke-linejoin: miter"/>
     <use xlink:href="#mb84ced3948" x="138.162411" y="201.818692" style="fill: #ff7f0e; stroke: #ff7f0e; stroke-linejoin: miter"/>
     <use xlink:href="#mb84ced3948" x="143.862104" y="173.557009" style="fill: #ff7f0e; stroke: #ff7f0e; stroke-linejoin: miter"/>
     <use xlink:href="#mb84ced3948" x="149.561798" y="223.014953" style="fill: #ff7f0e; stroke: #ff7f0e; stroke-linejoin: miter"/>
     <use xlink:href="#mb84ced3948" x="155.261491" y="190.042991" style="fill: #ff7f0e; stroke: #ff7f0e; stroke-linejoin: miter"/>
     <use xlink:href="#mb84ced3948" x="160.961185" y="201.818692" style="fill: #ff7f0e; stroke: #ff7f0e; stroke-linejoin: miter"/>
     <use xlink:href="#mb84ced3948" x="166.660878" y="220.659813" style="fill: #ff7f0e; stroke: #ff7f0e; stroke-linejoin: miter"/>
     <use xlink:href="#mb84ced3948" x="172.360572" y="69.930841" style="fill: #ff7f0e; stroke: #ff7f0e; stroke-linejoin: miter"/>
     <use xlink:href="#mb84ced3948" x="178.060266" y="138.229907" style="fill: #ff7f0e; stroke: #ff7f0e; stroke-linejoin: miter"/>
     <use xlink:href="#mb84ced3948" x="183.759959" y="164.136449" style="fill: #ff7f0e; stroke: #ff7f0e; stroke-linejoin: miter"/>
     <use xlink:href="#mb84ced3948" x="189.459653" y="166.491589" style="fill: #ff7f0e; stroke: #ff7f0e; stroke-linejoin: miter"/>
     <use xlink:href="#mb84ced3948" x="195.159346" y="173.557009" style="fill: #ff7f0e; stroke: #ff7f0e; stroke-linejoin: miter"/>
     <use xlink:href="#mb84ced3948" x="200.85904" y="208.884112" style="fill: #ff7f0e; stroke: #ff7f0e; stroke-linejoin: miter"/>
     <use xlink:href="#mb84ced3948" x="206.558733" y="157.071028" style="fill: #ff7f0e; stroke: #ff7f0e; stroke-linejoin: miter"/>
     <use xlink:href="#mb84ced3948" x="212.258427" y="253.631776" style="fill: #ff7f0e; stroke: #ff7f0e; stroke-linejoin: miter"/>
     <use xlink:href="#mb84ced3948" x="217.958121" y="232.435514" style="fill: #ff7f0e; stroke: #ff7f0e; stroke-linejoin: miter"/>
     <use xlink:href="#mb84ced3948" x="223.657814" y="201.818692" style="fill: #ff7f0e; stroke: #ff7f0e; stroke-linejoin: miter"/>
     <use xlink:href="#mb84ced3948" x="229.357508" y="206.528972" style="fill: #ff7f0e; stroke: #ff7f0e; stroke-linejoin: miter"/>
     <use xlink:href="#mb84ced3948" x="235.057201" y="225.370093" style="fill: #ff7f0e; stroke: #ff7f0e; stroke-linejoin: miter"/>
     <use xlink:href="#mb84ced3948" x="240.756895" y="173.557009" style="fill: #ff7f0e; stroke: #ff7f0e; stroke-linejoin: miter"/>
     <use xlink:href="#mb84ced3948" x="246.456588" y="286.603738" style="fill: #ff7f0e; stroke: #ff7f0e; stroke-linejoin: miter"/>
     <use xlink:href="#mb84ced3948" x="252.156282" y="138.229907" style="fill: #ff7f0e; stroke: #ff7f0e; stroke-linejoin: miter"/>
     <use xlink:href="#mb84ced3948" x="257.855975" y="131.164486" style="fill: #ff7f0e; stroke: #ff7f0e; stroke-linejoin: miter"/>
     <use xlink:href="#mb84ced3948" x="263.555669" y="175.91215" style="fill: #ff7f0e; stroke: #ff7f0e; stroke-linejoin: miter"/>
     <use xlink:href="#mb84ced3948" x="269.255363" y="190.042991" style="fill: #ff7f0e; stroke: #ff7f0e; stroke-linejoin: miter"/>
     <use xlink:href="#mb84ced3948" x="274.955056" y="119.388785" style="fill: #ff7f0e; stroke: #ff7f0e; stroke-linejoin: miter"/>
     <use xlink:href="#mb84ced3948" x="280.65475" y="168.846729" style="fill: #ff7f0e; stroke: #ff7f0e; stroke-linejoin: miter"/>
     <use xlink:href="#mb84ced3948" x="286.354443" y="237.145794" style="fill: #ff7f0e; stroke: #ff7f0e; stroke-linejoin: miter"/>
     <use xlink:href="#mb84ced3948" x="292.054137" y="211.239252" style="fill: #ff7f0e; stroke: #ff7f0e; stroke-linejoin: miter"/>
     <use xlink:href="#mb84ced3948" x="297.75383" y="258.342056" style="fill: #ff7f0e; stroke: #ff7f0e; stroke-linejoin: miter"/>
     <use xlink:href="#mb84ced3948" x="303.453524" y="105.257944" style="fill: #ff7f0e; stroke: #ff7f0e; stroke-linejoin: miter"/>
     <use xlink:href="#mb84ced3948" x="309.153218" y="133.519626" style="fill: #ff7f0e; stroke: #ff7f0e; stroke-linejoin: miter"/>
     <use xlink:href="#mb84ced3948" x="314.852911" y="140.585047" style="fill: #ff7f0e; stroke: #ff7f0e; stroke-linejoin: miter"/>
     <use xlink:href="#mb84ced3948" x="320.552605" y="159.426168" style="fill: #ff7f0e; stroke: #ff7f0e; stroke-linejoin: miter"/>
     <use xlink:href="#mb84ced3948" x="326.252298" y="168.846729" style="fill: #ff7f0e; stroke: #ff7f0e; stroke-linejoin: miter"/>
     <use xlink:href="#mb84ced3948" x="331.951992" y="171.201869" style="fill: #ff7f0e; stroke: #ff7f0e; stroke-linejoin: miter"/>
     <use xlink:href="#mb84ced3948" x="337.651685" y="201.818692" style="fill: #ff7f0e; stroke: #ff7f0e; stroke-linejoin: miter"/>
     <use xlink:href="#mb84ced3948" x="343.351379" y="161.781308" style="fill: #ff7f0e; stroke: #ff7f0e; stroke-linejoin: miter"/>
     <use xlink:href="#mb84ced3948" x="349.051073" y="147.650467" style="fill: #ff7f0e; stroke: #ff7f0e; stroke-linejoin: miter"/>
     <use xlink:href="#mb84ced3948" x="354.750766" y="211.239252" style="fill: #ff7f0e; stroke: #ff7f0e; stroke-linejoin: miter"/>
     <use xlink:href="#mb84ced3948" x="360.45046" y="150.005607" style="fill: #ff7f0e; stroke: #ff7f0e; stroke-linejoin: miter"/>
     <use xlink:href="#mb84ced3948" x="366.150153" y="248.921495" style="fill: #ff7f0e; stroke: #ff7f0e; stroke-linejoin: miter"/>
     <use xlink:href="#mb84ced3948" x="371.849847" y="105.257944" style="fill: #ff7f0e; stroke: #ff7f0e; stroke-linejoin: miter"/>
     <use xlink:href="#mb84ced3948" x="377.54954" y="227.725234" style="fill: #ff7f0e; stroke: #ff7f0e; stroke-linejoin: miter"/>
     <use xlink:href="#mb84ced3948" x="383.249234" y="194.753271" style="fill: #ff7f0e; stroke: #ff7f0e; stroke-linejoin: miter"/>
     <use xlink:href="#mb84ced3948" x="388.948927" y="293.669159" style="fill: #ff7f0e; stroke: #ff7f0e; stroke-linejoin: miter"/>
     <use xlink:href="#mb84ced3948" x="394.648621" y="126.454206" style="fill: #ff7f0e; stroke: #ff7f0e; stroke-linejoin: miter"/>
     <use xlink:href="#mb84ced3948" x="400.348315" y="286.603738" style="fill: #ff7f0e; stroke: #ff7f0e; stroke-linejoin: miter"/>
     <use xlink:href="#mb84ced3948" x="406.048008" y="192.398131" style="fill: #ff7f0e; stroke: #ff7f0e; stroke-linejoin: miter"/>
     <use xlink:href="#mb84ced3948" x="411.747702" y="150.005607" style="fill: #ff7f0e; stroke: #ff7f0e; stroke-linejoin: miter"/>
     <use xlink:href="#mb84ced3948" x="417.447395" y="218.304673" style="fill: #ff7f0e; stroke: #ff7f0e; stroke-linejoin: miter"/>
     <use xlink:href="#mb84ced3948" x="423.147089" y="206.528972" style="fill: #ff7f0e; stroke: #ff7f0e; stroke-linejoin: miter"/>
     <use xlink:href="#mb84ced3948" x="428.846782" y="272.472897" style="fill: #ff7f0e; stroke: #ff7f0e; stroke-linejoin: miter"/>
     <use xlink:href="#mb84ced3948" x="434.546476" y="234.790654" style="fill: #ff7f0e; stroke: #ff7f0e; stroke-linejoin: miter"/>
     <use xlink:href="#mb84ced3948" x="440.24617" y="307.8" style="fill: #ff7f0e; stroke: #ff7f0e; stroke-linejoin: miter"/>
     <use xlink:href="#mb84ced3948" x="445.945863" y="182.97757" style="fill: #ff7f0e; stroke: #ff7f0e; stroke-linejoin: miter"/>
     <use xlink:href="#mb84ced3948" x="451.645557" y="197.108411" style="fill: #ff7f0e; stroke: #ff7f0e; stroke-linejoin: miter"/>
     <use xlink:href="#mb84ced3948" x="457.34525" y="218.304673" style="fill: #ff7f0e; stroke: #ff7f0e; stroke-linejoin: miter"/>
     <use xlink:href="#mb84ced3948" x="463.044944" y="147.650467" style="fill: #ff7f0e; stroke: #ff7f0e; stroke-linejoin: miter"/>
     <use xlink:href="#mb84ced3948" x="468.744637" y="145.295327" style="fill: #ff7f0e; stroke: #ff7f0e; stroke-linejoin: miter"/>
     <use xlink:href="#mb84ced3948" x="474.444331" y="159.426168" style="fill: #ff7f0e; stroke: #ff7f0e; stroke-linejoin: miter"/>
     <use xlink:href="#mb84ced3948" x="480.144025" y="147.650467" style="fill: #ff7f0e; stroke: #ff7f0e; stroke-linejoin: miter"/>
     <use xlink:href="#mb84ced3948" x="485.843718" y="182.97757" style="fill: #ff7f0e; stroke: #ff7f0e; stroke-linejoin: miter"/>
     <use xlink:href="#mb84ced3948" x="491.543412" y="173.557009" style="fill: #ff7f0e; stroke: #ff7f0e; stroke-linejoin: miter"/>
     <use xlink:href="#mb84ced3948" x="497.243105" y="199.463551" style="fill: #ff7f0e; stroke: #ff7f0e; stroke-linejoin: miter"/>
     <use xlink:href="#mb84ced3948" x="502.942799" y="194.753271" style="fill: #ff7f0e; stroke: #ff7f0e; stroke-linejoin: miter"/>
     <use xlink:href="#mb84ced3948" x="508.642492" y="230.080374" style="fill: #ff7f0e; stroke: #ff7f0e; stroke-linejoin: miter"/>
     <use xlink:href="#mb84ced3948" x="514.342186" y="145.295327" style="fill: #ff7f0e; stroke: #ff7f0e; stroke-linejoin: miter"/>
     <use xlink:href="#mb84ced3948" x="520.041879" y="164.136449" style="fill: #ff7f0e; stroke: #ff7f0e; stroke-linejoin: miter"/>
     <use xlink:href="#mb84ced3948" x="525.741573" y="180.62243" style="fill: #ff7f0e; stroke: #ff7f0e; stroke-linejoin: miter"/>
     <use xlink:href="#mb84ced3948" x="531.441267" y="279.538318" style="fill: #ff7f0e; stroke: #ff7f0e; stroke-linejoin: miter"/>
     <use xlink:href="#mb84ced3948" x="537.14096" y="147.650467" style="fill: #ff7f0e; stroke: #ff7f0e; stroke-linejoin: miter"/>
     <use xlink:href="#mb84ced3948" x="542.840654" y="93.482243" style="fill: #ff7f0e; stroke: #ff7f0e; stroke-linejoin: miter"/>
     <use xlink:href="#mb84ced3948" x="548.540347" y="199.463551" style="fill: #ff7f0e; stroke: #ff7f0e; stroke-linejoin: miter"/>
     <use xlink:href="#mb84ced3948" x="554.240041" y="175.91215" style="fill: #ff7f0e; stroke: #ff7f0e; stroke-linejoin: miter"/>
     <use xlink:href="#mb84ced3948" x="559.939734" y="180.62243" style="fill: #ff7f0e; stroke: #ff7f0e; stroke-linejoin: miter"/>
     <use xlink:href="#mb84ced3948" x="565.639428" y="234.790654" style="fill: #ff7f0e; stroke: #ff7f0e; stroke-linejoin: miter"/>
     <use xlink:href="#mb84ced3948" x="571.339122" y="251.276636" style="fill: #ff7f0e; stroke: #ff7f0e; stroke-linejoin: miter"/>
     <use xlink:href="#mb84ced3948" x="577.038815" y="218.304673" style="fill: #ff7f0e; stroke: #ff7f0e; stroke-linejoin: miter"/>
     <use xlink:href="#mb84ced3948" x="582.738509" y="298.379439" style="fill: #ff7f0e; stroke: #ff7f0e; stroke-linejoin: miter"/>
     <use xlink:href="#mb84ced3948" x="588.438202" y="284.248598" style="fill: #ff7f0e; stroke: #ff7f0e; stroke-linejoin: miter"/>
     <use xlink:href="#mb84ced3948" x="594.137896" y="161.781308" style="fill: #ff7f0e; stroke: #ff7f0e; stroke-linejoin: miter"/>
     <use xlink:href="#mb84ced3948" x="599.837589" y="227.725234" style="fill: #ff7f0e; stroke: #ff7f0e; stroke-linejoin: miter"/>
     <use xlink:href="#mb84ced3948" x="605.537283" y="190.042991" style="fill: #ff7f0e; stroke: #ff7f0e; stroke-linejoin: miter"/>
     <use xlink:href="#mb84ced3948" x="611.236977" y="109.968224" style="fill: #ff7f0e; stroke: #ff7f0e; stroke-linejoin: miter"/>
     <use xlink:href="#mb84ced3948" x="616.93667" y="232.435514" style="fill: #ff7f0e; stroke: #ff7f0e; stroke-linejoin: miter"/>
     <use xlink:href="#mb84ced3948" x="622.636364" y="208.884112" style="fill: #ff7f0e; stroke: #ff7f0e; stroke-linejoin: miter"/>
    </g>
   </g>
   <g id="patch_3">
    <path d="M 90 320.4 
L 90 43.2 
" style="fill: none; stroke: #000000; stroke-width: 0.8; stroke-linejoin: miter; stroke-linecap: square"/>
   </g>
   <g id="patch_4">
    <path d="M 648 320.4 
L 648 43.2 
" style="fill: none; stroke: #000000; stroke-width: 0.8; stroke-linejoin: miter; stroke-linecap: square"/>
   </g>
   <g id="patch_5">
    <path d="M 90 320.4 
L 648 320.4 
" style="fill: none; stroke: #000000; stroke-width: 0.8; stroke-linejoin: miter; stroke-linecap: square"/>
   </g>
   <g id="patch_6">
    <path d="M 90 43.2 
L 648 43.2 
" style="fill: none; stroke: #000000; stroke-width: 0.8; stroke-linejoin: miter; stroke-linecap: square"/>
   </g>
   <g id="text_16">
    <!-- Mot Byåsen, før VM -->
    <g transform="translate(310.67625 37.2) scale(0.12 -0.12)">
     <defs>
      <path id="DejaVuSans-4d" d="M 628 4666 
L 1569 4666 
L 2759 1491 
L 3956 4666 
L 4897 4666 
L 4897 0 
L 4281 0 
L 4281 4097 
L 3078 897 
L 2444 897 
L 1241 4097 
L 1241 0 
L 628 0 
L 628 4666 
z
" transform="scale(0.015625)"/>
      <path id="DejaVuSans-6f" d="M 1959 3097 
Q 1497 3097 1228 2736 
Q 959 2375 959 1747 
Q 959 1119 1226 758 
Q 1494 397 1959 397 
Q 2419 397 2687 759 
Q 2956 1122 2956 1747 
Q 2956 2369 2687 2733 
Q 2419 3097 1959 3097 
z
M 1959 3584 
Q 2709 3584 3137 3096 
Q 3566 2609 3566 1747 
Q 3566 888 3137 398 
Q 2709 -91 1959 -91 
Q 1206 -91 779 398 
Q 353 888 353 1747 
Q 353 2609 779 3096 
Q 1206 3584 1959 3584 
z
" transform="scale(0.015625)"/>
      <path id="DejaVuSans-73" d="M 2834 3397 
L 2834 2853 
Q 2591 2978 2328 3040 
Q 2066 3103 1784 3103 
Q 1356 3103 1142 2972 
Q 928 2841 928 2578 
Q 928 2378 1081 2264 
Q 1234 2150 1697 2047 
L 1894 2003 
Q 2506 1872 2764 1633 
Q 3022 1394 3022 966 
Q 3022 478 2636 193 
Q 2250 -91 1575 -91 
Q 1294 -91 989 -36 
Q 684 19 347 128 
L 347 722 
Q 666 556 975 473 
Q 1284 391 1588 391 
Q 1994 391 2212 530 
Q 2431 669 2431 922 
Q 2431 1156 2273 1281 
Q 2116 1406 1581 1522 
L 1381 1569 
Q 847 1681 609 1914 
Q 372 2147 372 2553 
Q 372 3047 722 3315 
Q 1072 3584 1716 3584 
Q 2034 3584 2315 3537 
Q 2597 3491 2834 3397 
z
" transform="scale(0.015625)"/>
      <path id="DejaVuSans-2c" d="M 750 794 
L 1409 794 
L 1409 256 
L 897 -744 
L 494 -744 
L 750 256 
L 750 794 
z
" transform="scale(0.015625)"/>
      <path id="DejaVuSans-66" d="M 2375 4863 
L 2375 4384 
L 1825 4384 
Q 1516 4384 1395 4259 
Q 1275 4134 1275 3809 
L 1275 3500 
L 2222 3500 
L 2222 3053 
L 1275 3053 
L 1275 0 
L 697 0 
L 697 3053 
L 147 3053 
L 147 3500 
L 697 3500 
L 697 3744 
Q 697 4328 969 4595 
Q 1241 4863 1831 4863 
L 2375 4863 
z
" transform="scale(0.015625)"/>
      <path id="DejaVuSans-f8" d="M 2828 2503 
L 1306 653 
Q 1434 522 1595 459 
Q 1756 397 1959 397 
Q 2419 397 2687 759 
Q 2956 1122 2956 1747 
Q 2956 1994 2925 2176 
Q 2894 2359 2828 2503 
z
M 2606 2841 
Q 2475 2969 2314 3033 
Q 2153 3097 1959 3097 
Q 1488 3097 1223 2730 
Q 959 2363 959 1703 
Q 959 1478 989 1306 
Q 1019 1134 1081 991 
L 2606 2841 
z
M 691 519 
Q 522 759 437 1067 
Q 353 1375 353 1747 
Q 353 2609 779 3096 
Q 1206 3584 1959 3584 
Q 2250 3584 2498 3504 
Q 2747 3425 2956 3263 
L 3391 3788 
L 3688 3541 
L 3231 2981 
Q 3397 2741 3481 2431 
Q 3566 2122 3566 1747 
Q 3566 888 3137 398 
Q 2709 -91 1959 -91 
Q 1659 -91 1407 -9 
Q 1156 72 959 231 
L 525 -294 
L 225 -50 
L 691 519 
z
" transform="scale(0.015625)"/>
      <path id="DejaVuSans-56" d="M 1831 0 
L 50 4666 
L 709 4666 
L 2188 738 
L 3669 4666 
L 4325 4666 
L 2547 0 
L 1831 0 
z
" transform="scale(0.015625)"/>
     </defs>
     <use xlink:href="#DejaVuSans-4d"/>
     <use xlink:href="#DejaVuSans-6f" x="86.279297"/>
     <use xlink:href="#DejaVuSans-74" x="147.460938"/>
     <use xlink:href="#DejaVuSans-20" x="186.669922"/>
     <use xlink:href="#DejaVuSans-42" x="218.457031"/>
     <use xlink:href="#DejaVuSans-79" x="287.060547"/>
     <use xlink:href="#DejaVuSans-e5" x="346.240234"/>
     <use xlink:href="#DejaVuSans-73" x="407.519531"/>
     <use xlink:href="#DejaVuSans-65" x="459.619141"/>
     <use xlink:href="#DejaVuSans-6e" x="521.142578"/>
     <use xlink:href="#DejaVuSans-2c" x="584.521484"/>
     <use xlink:href="#DejaVuSans-20" x="616.308594"/>
     <use xlink:href="#DejaVuSans-66" x="648.095703"/>
     <use xlink:href="#DejaVuSans-f8" x="683.300781"/>
     <use xlink:href="#DejaVuSans-72" x="744.482422"/>
     <use xlink:href="#DejaVuSans-20" x="785.595703"/>
     <use xlink:href="#DejaVuSans-56" x="817.382812"/>
     <use xlink:href="#DejaVuSans-4d" x="885.791016"/>
    </g>
   </g>
   <g id="legend_1">
    <g id="patch_7">
     <path d="M 558.404688 80.55625 
L 641 80.55625 
Q 643 80.55625 643 78.55625 
L 643 50.2 
Q 643 48.2 641 48.2 
L 558.404688 48.2 
Q 556.404688 48.2 556.404688 50.2 
L 556.404688 78.55625 
Q 556.404688 80.55625 558.404688 80.55625 
z
" style="fill: #ffffff; opacity: 0.8; stroke: #cccccc; stroke-linejoin: miter"/>
    </g>
    <g id="line2d_29">
     <path d="M 560.404688 56.298437 
L 570.404688 56.298437 
L 580.404688 56.298437 
" style="fill: none; stroke: #1f77b4; stroke-width: 1.5; stroke-linecap: square"/>
     <g>
      <use xlink:href="#m538a9d96b7" x="570.404688" y="56.298437" style="fill: #1f77b4; stroke: #1f77b4"/>
     </g>
    </g>
    <g id="text_17">
     <!-- Channel 1 -->
     <g transform="translate(588.404688 59.798437) scale(0.1 -0.1)">
      <defs>
       <path id="DejaVuSans-43" d="M 4122 4306 
L 4122 3641 
Q 3803 3938 3442 4084 
Q 3081 4231 2675 4231 
Q 1875 4231 1450 3742 
Q 1025 3253 1025 2328 
Q 1025 1406 1450 917 
Q 1875 428 2675 428 
Q 3081 428 3442 575 
Q 3803 722 4122 1019 
L 4122 359 
Q 3791 134 3420 21 
Q 3050 -91 2638 -91 
Q 1578 -91 968 557 
Q 359 1206 359 2328 
Q 359 3453 968 4101 
Q 1578 4750 2638 4750 
Q 3056 4750 3426 4639 
Q 3797 4528 4122 4306 
z
" transform="scale(0.015625)"/>
       <path id="DejaVuSans-68" d="M 3513 2113 
L 3513 0 
L 2938 0 
L 2938 2094 
Q 2938 2591 2744 2837 
Q 2550 3084 2163 3084 
Q 1697 3084 1428 2787 
Q 1159 2491 1159 1978 
L 1159 0 
L 581 0 
L 581 4863 
L 1159 4863 
L 1159 2956 
Q 1366 3272 1645 3428 
Q 1925 3584 2291 3584 
Q 2894 3584 3203 3211 
Q 3513 2838 3513 2113 
z
" transform="scale(0.015625)"/>
       <path id="DejaVuSans-61" d="M 2194 1759 
Q 1497 1759 1228 1600 
Q 959 1441 959 1056 
Q 959 750 1161 570 
Q 1363 391 1709 391 
Q 2188 391 2477 730 
Q 2766 1069 2766 1631 
L 2766 1759 
L 2194 1759 
z
M 3341 1997 
L 3341 0 
L 2766 0 
L 2766 531 
Q 2569 213 2275 61 
Q 1981 -91 1556 -91 
Q 1019 -91 701 211 
Q 384 513 384 1019 
Q 384 1609 779 1909 
Q 1175 2209 1959 2209 
L 2766 2209 
L 2766 2266 
Q 2766 2663 2505 2880 
Q 2244 3097 1772 3097 
Q 1472 3097 1187 3025 
Q 903 2953 641 2809 
L 641 3341 
Q 956 3463 1253 3523 
Q 1550 3584 1831 3584 
Q 2591 3584 2966 3190 
Q 3341 2797 3341 1997 
z
" transform="scale(0.015625)"/>
       <path id="DejaVuSans-6c" d="M 603 4863 
L 1178 4863 
L 1178 0 
L 603 0 
L 603 4863 
z
" transform="scale(0.015625)"/>
      </defs>
      <use xlink:href="#DejaVuSans-43"/>
      <use xlink:href="#DejaVuSans-68" x="69.824219"/>
      <use xlink:href="#DejaVuSans-61" x="133.203125"/>
      <use xlink:href="#DejaVuSans-6e" x="194.482422"/>
      <use xlink:href="#DejaVuSans-6e" x="257.861328"/>
      <use xlink:href="#DejaVuSans-65" x="321.240234"/>
      <use xlink:href="#DejaVuSans-6c" x="382.763672"/>
      <use xlink:href="#DejaVuSans-20" x="410.546875"/>
      <use xlink:href="#DejaVuSans-31" x="442.333984"/>
     </g>
    </g>
    <g id="line2d_30">
     <path d="M 560.404688 70.976562 
L 570.404688 70.976562 
L 580.404688 70.976562 
" style="fill: none; stroke: #ff7f0e; stroke-width: 1.5; stroke-linecap: square"/>
     <g>
      <use xlink:href="#mb84ced3948" x="570.404688" y="70.976562" style="fill: #ff7f0e; stroke: #ff7f0e; stroke-linejoin: miter"/>
     </g>
    </g>
    <g id="text_18">
     <!-- Channel 2 -->
     <g transform="translate(588.404688 74.476562) scale(0.1 -0.1)">
      <use xlink:href="#DejaVuSans-43"/>
      <use xlink:href="#DejaVuSans-68" x="69.824219"/>
      <use xlink:href="#DejaVuSans-61" x="133.203125"/>
      <use xlink:href="#DejaVuSans-6e" x="194.482422"/>
      <use xlink:href="#DejaVuSans-6e" x="257.861328"/>
      <use xlink:href="#DejaVuSans-65" x="321.240234"/>
      <use xlink:href="#DejaVuSans-6c" x="382.763672"/>
      <use xlink:href="#DejaVuSans-20" x="410.546875"/>
      <use xlink:href="#DejaVuSans-32" x="442.333984"/>
     </g>
    </g>
   </g>
  </g>
 </g>
 <defs>
  <clipPath id="p94544b6177">
   <rect x="90" y="43.2" width="558" height="277.2"/>
  </clipPath>
 </defs>
</svg>
