<?xml version="1.0" encoding="utf-8" standalone="no"?>
<!DOCTYPE svg PUBLIC "-//W3C//DTD SVG 1.1//EN"
  "http://www.w3.org/Graphics/SVG/1.1/DTD/svg11.dtd">
<svg xmlns:xlink="http://www.w3.org/1999/xlink" width="720pt" height="360pt" viewBox="0 0 720 360" xmlns="http://www.w3.org/2000/svg" version="1.1">
 <metadata>
  <rdf:RDF xmlns:dc="http://purl.org/dc/elements/1.1/" xmlns:cc="http://creativecommons.org/ns#" xmlns:rdf="http://www.w3.org/1999/02/22-rdf-syntax-ns#">
   <cc:Work>
    <dc:type rdf:resource="http://purl.org/dc/dcmitype/StillImage"/>
    <dc:date>2025-03-19T09:24:14.157937</dc:date>
    <dc:format>image/svg+xml</dc:format>
    <dc:creator>
     <cc:Agent>
      <dc:title>Matplotlib v3.9.3, https://matplotlib.org/</dc:title>
     </cc:Agent>
    </dc:creator>
   </cc:Work>
  </rdf:RDF>
 </metadata>
 <defs>
  <style type="text/css">*{stroke-linejoin: round; stroke-linecap: butt}</style>
 </defs>
 <g id="figure_1">
  <g id="patch_1">
   <path d="M 0 360 
L 720 360 
L 720 0 
L 0 0 
z
" style="fill: #ffffff"/>
  </g>
  <g id="axes_1">
   <g id="patch_2">
    <path d="M 90 320.4 
L 648 320.4 
L 648 43.2 
L 90 43.2 
z
" style="fill: #ffffff"/>
   </g>
   <g id="matplotlib.axis_1">
    <g id="xtick_1">
     <g id="line2d_1">
      <path d="M 115.221144 320.4 
L 115.221144 43.2 
" clip-path="url(#pec9f5182fa)" style="fill: none; stroke: #b0b0b0; stroke-width: 0.8; stroke-linecap: square"/>
     </g>
     <g id="line2d_2">
      <defs>
       <path id="m27fda1ba60" d="M 0 0 
L 0 3.5 
" style="stroke: #000000; stroke-width: 0.8"/>
      </defs>
      <g>
       <use xlink:href="#m27fda1ba60" x="115.221144" y="320.4" style="stroke: #000000; stroke-width: 0.8"/>
      </g>
     </g>
     <g id="text_1">
      <!-- 0 -->
      <g transform="translate(112.039894 334.998438) scale(0.1 -0.1)">
       <defs>
        <path id="DejaVuSans-30" d="M 2034 4250 
Q 1547 4250 1301 3770 
Q 1056 3291 1056 2328 
Q 1056 1369 1301 889 
Q 1547 409 2034 409 
Q 2525 409 2770 889 
Q 3016 1369 3016 2328 
Q 3016 3291 2770 3770 
Q 2525 4250 2034 4250 
z
M 2034 4750 
Q 2819 4750 3233 4129 
Q 3647 3509 3647 2328 
Q 3647 1150 3233 529 
Q 2819 -91 2034 -91 
Q 1250 -91 836 529 
Q 422 1150 422 2328 
Q 422 3509 836 4129 
Q 1250 4750 2034 4750 
z
" transform="scale(0.015625)"/>
       </defs>
       <use xlink:href="#DejaVuSans-30"/>
      </g>
     </g>
    </g>
    <g id="xtick_2">
     <g id="line2d_3">
      <path d="M 200.716547 320.4 
L 200.716547 43.2 
" clip-path="url(#pec9f5182fa)" style="fill: none; stroke: #b0b0b0; stroke-width: 0.8; stroke-linecap: square"/>
     </g>
     <g id="line2d_4">
      <g>
       <use xlink:href="#m27fda1ba60" x="200.716547" y="320.4" style="stroke: #000000; stroke-width: 0.8"/>
      </g>
     </g>
     <g id="text_2">
      <!-- 10 -->
      <g transform="translate(194.354047 334.998438) scale(0.1 -0.1)">
       <defs>
        <path id="DejaVuSans-31" d="M 794 531 
L 1825 531 
L 1825 4091 
L 703 3866 
L 703 4441 
L 1819 4666 
L 2450 4666 
L 2450 531 
L 3481 531 
L 3481 0 
L 794 0 
L 794 531 
z
" transform="scale(0.015625)"/>
       </defs>
       <use xlink:href="#DejaVuSans-31"/>
       <use xlink:href="#DejaVuSans-30" x="63.623047"/>
      </g>
     </g>
    </g>
    <g id="xtick_3">
     <g id="line2d_5">
      <path d="M 286.211951 320.4 
L 286.211951 43.2 
" clip-path="url(#pec9f5182fa)" style="fill: none; stroke: #b0b0b0; stroke-width: 0.8; stroke-linecap: square"/>
     </g>
     <g id="line2d_6">
      <g>
       <use xlink:href="#m27fda1ba60" x="286.211951" y="320.4" style="stroke: #000000; stroke-width: 0.8"/>
      </g>
     </g>
     <g id="text_3">
      <!-- 20 -->
      <g transform="translate(279.849451 334.998438) scale(0.1 -0.1)">
       <defs>
        <path id="DejaVuSans-32" d="M 1228 531 
L 3431 531 
L 3431 0 
L 469 0 
L 469 531 
Q 828 903 1448 1529 
Q 2069 2156 2228 2338 
Q 2531 2678 2651 2914 
Q 2772 3150 2772 3378 
Q 2772 3750 2511 3984 
Q 2250 4219 1831 4219 
Q 1534 4219 1204 4116 
Q 875 4013 500 3803 
L 500 4441 
Q 881 4594 1212 4672 
Q 1544 4750 1819 4750 
Q 2544 4750 2975 4387 
Q 3406 4025 3406 3419 
Q 3406 3131 3298 2873 
Q 3191 2616 2906 2266 
Q 2828 2175 2409 1742 
Q 1991 1309 1228 531 
z
" transform="scale(0.015625)"/>
       </defs>
       <use xlink:href="#DejaVuSans-32"/>
       <use xlink:href="#DejaVuSans-30" x="63.623047"/>
      </g>
     </g>
    </g>
    <g id="xtick_4">
     <g id="line2d_7">
      <path d="M 371.707354 320.4 
L 371.707354 43.2 
" clip-path="url(#pec9f5182fa)" style="fill: none; stroke: #b0b0b0; stroke-width: 0.8; stroke-linecap: square"/>
     </g>
     <g id="line2d_8">
      <g>
       <use xlink:href="#m27fda1ba60" x="371.707354" y="320.4" style="stroke: #000000; stroke-width: 0.8"/>
      </g>
     </g>
     <g id="text_4">
      <!-- 30 -->
      <g transform="translate(365.344854 334.998438) scale(0.1 -0.1)">
       <defs>
        <path id="DejaVuSans-33" d="M 2597 2516 
Q 3050 2419 3304 2112 
Q 3559 1806 3559 1356 
Q 3559 666 3084 287 
Q 2609 -91 1734 -91 
Q 1441 -91 1130 -33 
Q 819 25 488 141 
L 488 750 
Q 750 597 1062 519 
Q 1375 441 1716 441 
Q 2309 441 2620 675 
Q 2931 909 2931 1356 
Q 2931 1769 2642 2001 
Q 2353 2234 1838 2234 
L 1294 2234 
L 1294 2753 
L 1863 2753 
Q 2328 2753 2575 2939 
Q 2822 3125 2822 3475 
Q 2822 3834 2567 4026 
Q 2313 4219 1838 4219 
Q 1578 4219 1281 4162 
Q 984 4106 628 3988 
L 628 4550 
Q 988 4650 1302 4700 
Q 1616 4750 1894 4750 
Q 2613 4750 3031 4423 
Q 3450 4097 3450 3541 
Q 3450 3153 3228 2886 
Q 3006 2619 2597 2516 
z
" transform="scale(0.015625)"/>
       </defs>
       <use xlink:href="#DejaVuSans-33"/>
       <use xlink:href="#DejaVuSans-30" x="63.623047"/>
      </g>
     </g>
    </g>
    <g id="xtick_5">
     <g id="line2d_9">
      <path d="M 457.202758 320.4 
L 457.202758 43.2 
" clip-path="url(#pec9f5182fa)" style="fill: none; stroke: #b0b0b0; stroke-width: 0.8; stroke-linecap: square"/>
     </g>
     <g id="line2d_10">
      <g>
       <use xlink:href="#m27fda1ba60" x="457.202758" y="320.4" style="stroke: #000000; stroke-width: 0.8"/>
      </g>
     </g>
     <g id="text_5">
      <!-- 40 -->
      <g transform="translate(450.840258 334.998438) scale(0.1 -0.1)">
       <defs>
        <path id="DejaVuSans-34" d="M 2419 4116 
L 825 1625 
L 2419 1625 
L 2419 4116 
z
M 2253 4666 
L 3047 4666 
L 3047 1625 
L 3713 1625 
L 3713 1100 
L 3047 1100 
L 3047 0 
L 2419 0 
L 2419 1100 
L 313 1100 
L 313 1709 
L 2253 4666 
z
" transform="scale(0.015625)"/>
       </defs>
       <use xlink:href="#DejaVuSans-34"/>
       <use xlink:href="#DejaVuSans-30" x="63.623047"/>
      </g>
     </g>
    </g>
    <g id="xtick_6">
     <g id="line2d_11">
      <path d="M 542.698161 320.4 
L 542.698161 43.2 
" clip-path="url(#pec9f5182fa)" style="fill: none; stroke: #b0b0b0; stroke-width: 0.8; stroke-linecap: square"/>
     </g>
     <g id="line2d_12">
      <g>
       <use xlink:href="#m27fda1ba60" x="542.698161" y="320.4" style="stroke: #000000; stroke-width: 0.8"/>
      </g>
     </g>
     <g id="text_6">
      <!-- 50 -->
      <g transform="translate(536.335661 334.998438) scale(0.1 -0.1)">
       <defs>
        <path id="DejaVuSans-35" d="M 691 4666 
L 3169 4666 
L 3169 4134 
L 1269 4134 
L 1269 2991 
Q 1406 3038 1543 3061 
Q 1681 3084 1819 3084 
Q 2600 3084 3056 2656 
Q 3513 2228 3513 1497 
Q 3513 744 3044 326 
Q 2575 -91 1722 -91 
Q 1428 -91 1123 -41 
Q 819 9 494 109 
L 494 744 
Q 775 591 1075 516 
Q 1375 441 1709 441 
Q 2250 441 2565 725 
Q 2881 1009 2881 1497 
Q 2881 1984 2565 2268 
Q 2250 2553 1709 2553 
Q 1456 2553 1204 2497 
Q 953 2441 691 2322 
L 691 4666 
z
" transform="scale(0.015625)"/>
       </defs>
       <use xlink:href="#DejaVuSans-35"/>
       <use xlink:href="#DejaVuSans-30" x="63.623047"/>
      </g>
     </g>
    </g>
    <g id="xtick_7">
     <g id="line2d_13">
      <path d="M 628.193565 320.4 
L 628.193565 43.2 
" clip-path="url(#pec9f5182fa)" style="fill: none; stroke: #b0b0b0; stroke-width: 0.8; stroke-linecap: square"/>
     </g>
     <g id="line2d_14">
      <g>
       <use xlink:href="#m27fda1ba60" x="628.193565" y="320.4" style="stroke: #000000; stroke-width: 0.8"/>
      </g>
     </g>
     <g id="text_7">
      <!-- 60 -->
      <g transform="translate(621.831065 334.998438) scale(0.1 -0.1)">
       <defs>
        <path id="DejaVuSans-36" d="M 2113 2584 
Q 1688 2584 1439 2293 
Q 1191 2003 1191 1497 
Q 1191 994 1439 701 
Q 1688 409 2113 409 
Q 2538 409 2786 701 
Q 3034 994 3034 1497 
Q 3034 2003 2786 2293 
Q 2538 2584 2113 2584 
z
M 3366 4563 
L 3366 3988 
Q 3128 4100 2886 4159 
Q 2644 4219 2406 4219 
Q 1781 4219 1451 3797 
Q 1122 3375 1075 2522 
Q 1259 2794 1537 2939 
Q 1816 3084 2150 3084 
Q 2853 3084 3261 2657 
Q 3669 2231 3669 1497 
Q 3669 778 3244 343 
Q 2819 -91 2113 -91 
Q 1303 -91 875 529 
Q 447 1150 447 2328 
Q 447 3434 972 4092 
Q 1497 4750 2381 4750 
Q 2619 4750 2861 4703 
Q 3103 4656 3366 4563 
z
" transform="scale(0.015625)"/>
       </defs>
       <use xlink:href="#DejaVuSans-36"/>
       <use xlink:href="#DejaVuSans-30" x="63.623047"/>
      </g>
     </g>
    </g>
    <g id="text_8">
     <!-- Tid (minutter) -->
     <g transform="translate(334.399219 348.676562) scale(0.1 -0.1)">
      <defs>
       <path id="DejaVuSans-54" d="M -19 4666 
L 3928 4666 
L 3928 4134 
L 2272 4134 
L 2272 0 
L 1638 0 
L 1638 4134 
L -19 4134 
L -19 4666 
z
" transform="scale(0.015625)"/>
       <path id="DejaVuSans-69" d="M 603 3500 
L 1178 3500 
L 1178 0 
L 603 0 
L 603 3500 
z
M 603 4863 
L 1178 4863 
L 1178 4134 
L 603 4134 
L 603 4863 
z
" transform="scale(0.015625)"/>
       <path id="DejaVuSans-64" d="M 2906 2969 
L 2906 4863 
L 3481 4863 
L 3481 0 
L 2906 0 
L 2906 525 
Q 2725 213 2448 61 
Q 2172 -91 1784 -91 
Q 1150 -91 751 415 
Q 353 922 353 1747 
Q 353 2572 751 3078 
Q 1150 3584 1784 3584 
Q 2172 3584 2448 3432 
Q 2725 3281 2906 2969 
z
M 947 1747 
Q 947 1113 1208 752 
Q 1469 391 1925 391 
Q 2381 391 2643 752 
Q 2906 1113 2906 1747 
Q 2906 2381 2643 2742 
Q 2381 3103 1925 3103 
Q 1469 3103 1208 2742 
Q 947 2381 947 1747 
z
" transform="scale(0.015625)"/>
       <path id="DejaVuSans-20" transform="scale(0.015625)"/>
       <path id="DejaVuSans-28" d="M 1984 4856 
Q 1566 4138 1362 3434 
Q 1159 2731 1159 2009 
Q 1159 1288 1364 580 
Q 1569 -128 1984 -844 
L 1484 -844 
Q 1016 -109 783 600 
Q 550 1309 550 2009 
Q 550 2706 781 3412 
Q 1013 4119 1484 4856 
L 1984 4856 
z
" transform="scale(0.015625)"/>
       <path id="DejaVuSans-6d" d="M 3328 2828 
Q 3544 3216 3844 3400 
Q 4144 3584 4550 3584 
Q 5097 3584 5394 3201 
Q 5691 2819 5691 2113 
L 5691 0 
L 5113 0 
L 5113 2094 
Q 5113 2597 4934 2840 
Q 4756 3084 4391 3084 
Q 3944 3084 3684 2787 
Q 3425 2491 3425 1978 
L 3425 0 
L 2847 0 
L 2847 2094 
Q 2847 2600 2669 2842 
Q 2491 3084 2119 3084 
Q 1678 3084 1418 2786 
Q 1159 2488 1159 1978 
L 1159 0 
L 581 0 
L 581 3500 
L 1159 3500 
L 1159 2956 
Q 1356 3278 1631 3431 
Q 1906 3584 2284 3584 
Q 2666 3584 2933 3390 
Q 3200 3197 3328 2828 
z
" transform="scale(0.015625)"/>
       <path id="DejaVuSans-6e" d="M 3513 2113 
L 3513 0 
L 2938 0 
L 2938 2094 
Q 2938 2591 2744 2837 
Q 2550 3084 2163 3084 
Q 1697 3084 1428 2787 
Q 1159 2491 1159 1978 
L 1159 0 
L 581 0 
L 581 3500 
L 1159 3500 
L 1159 2956 
Q 1366 3272 1645 3428 
Q 1925 3584 2291 3584 
Q 2894 3584 3203 3211 
Q 3513 2838 3513 2113 
z
" transform="scale(0.015625)"/>
       <path id="DejaVuSans-75" d="M 544 1381 
L 544 3500 
L 1119 3500 
L 1119 1403 
Q 1119 906 1312 657 
Q 1506 409 1894 409 
Q 2359 409 2629 706 
Q 2900 1003 2900 1516 
L 2900 3500 
L 3475 3500 
L 3475 0 
L 2900 0 
L 2900 538 
Q 2691 219 2414 64 
Q 2138 -91 1772 -91 
Q 1169 -91 856 284 
Q 544 659 544 1381 
z
M 1991 3584 
L 1991 3584 
z
" transform="scale(0.015625)"/>
       <path id="DejaVuSans-74" d="M 1172 4494 
L 1172 3500 
L 2356 3500 
L 2356 3053 
L 1172 3053 
L 1172 1153 
Q 1172 725 1289 603 
Q 1406 481 1766 481 
L 2356 481 
L 2356 0 
L 1766 0 
Q 1100 0 847 248 
Q 594 497 594 1153 
L 594 3053 
L 172 3053 
L 172 3500 
L 594 3500 
L 594 4494 
L 1172 4494 
z
" transform="scale(0.015625)"/>
       <path id="DejaVuSans-65" d="M 3597 1894 
L 3597 1613 
L 953 1613 
Q 991 1019 1311 708 
Q 1631 397 2203 397 
Q 2534 397 2845 478 
Q 3156 559 3463 722 
L 3463 178 
Q 3153 47 2828 -22 
Q 2503 -91 2169 -91 
Q 1331 -91 842 396 
Q 353 884 353 1716 
Q 353 2575 817 3079 
Q 1281 3584 2069 3584 
Q 2775 3584 3186 3129 
Q 3597 2675 3597 1894 
z
M 3022 2063 
Q 3016 2534 2758 2815 
Q 2500 3097 2075 3097 
Q 1594 3097 1305 2825 
Q 1016 2553 972 2059 
L 3022 2063 
z
" transform="scale(0.015625)"/>
       <path id="DejaVuSans-72" d="M 2631 2963 
Q 2534 3019 2420 3045 
Q 2306 3072 2169 3072 
Q 1681 3072 1420 2755 
Q 1159 2438 1159 1844 
L 1159 0 
L 581 0 
L 581 3500 
L 1159 3500 
L 1159 2956 
Q 1341 3275 1631 3429 
Q 1922 3584 2338 3584 
Q 2397 3584 2469 3576 
Q 2541 3569 2628 3553 
L 2631 2963 
z
" transform="scale(0.015625)"/>
       <path id="DejaVuSans-29" d="M 513 4856 
L 1013 4856 
Q 1481 4119 1714 3412 
Q 1947 2706 1947 2009 
Q 1947 1309 1714 600 
Q 1481 -109 1013 -844 
L 513 -844 
Q 928 -128 1133 580 
Q 1338 1288 1338 2009 
Q 1338 2731 1133 3434 
Q 928 4138 513 4856 
z
" transform="scale(0.015625)"/>
      </defs>
      <use xlink:href="#DejaVuSans-54"/>
      <use xlink:href="#DejaVuSans-69" x="57.958984"/>
      <use xlink:href="#DejaVuSans-64" x="85.742188"/>
      <use xlink:href="#DejaVuSans-20" x="149.21875"/>
      <use xlink:href="#DejaVuSans-28" x="181.005859"/>
      <use xlink:href="#DejaVuSans-6d" x="220.019531"/>
      <use xlink:href="#DejaVuSans-69" x="317.431641"/>
      <use xlink:href="#DejaVuSans-6e" x="345.214844"/>
      <use xlink:href="#DejaVuSans-75" x="408.59375"/>
      <use xlink:href="#DejaVuSans-74" x="471.972656"/>
      <use xlink:href="#DejaVuSans-74" x="511.181641"/>
      <use xlink:href="#DejaVuSans-65" x="550.390625"/>
      <use xlink:href="#DejaVuSans-72" x="611.914062"/>
      <use xlink:href="#DejaVuSans-29" x="653.027344"/>
     </g>
    </g>
   </g>
   <g id="matplotlib.axis_2">
    <g id="ytick_1">
     <g id="line2d_15">
      <path d="M 90 281.566562 
L 648 281.566562 
" clip-path="url(#pec9f5182fa)" style="fill: none; stroke: #b0b0b0; stroke-width: 0.8; stroke-linecap: square"/>
     </g>
     <g id="line2d_16">
      <defs>
       <path id="m9ef7d2a347" d="M 0 0 
L -3.5 0 
" style="stroke: #000000; stroke-width: 0.8"/>
      </defs>
      <g>
       <use xlink:href="#m9ef7d2a347" x="90" y="281.566562" style="stroke: #000000; stroke-width: 0.8"/>
      </g>
     </g>
     <g id="text_9">
      <!-- 45 -->
      <g transform="translate(70.275 285.36578) scale(0.1 -0.1)">
       <use xlink:href="#DejaVuSans-34"/>
       <use xlink:href="#DejaVuSans-35" x="63.623047"/>
      </g>
     </g>
    </g>
    <g id="ytick_2">
     <g id="line2d_17">
      <path d="M 90 241.818927 
L 648 241.818927 
" clip-path="url(#pec9f5182fa)" style="fill: none; stroke: #b0b0b0; stroke-width: 0.8; stroke-linecap: square"/>
     </g>
     <g id="line2d_18">
      <g>
       <use xlink:href="#m9ef7d2a347" x="90" y="241.818927" style="stroke: #000000; stroke-width: 0.8"/>
      </g>
     </g>
     <g id="text_10">
      <!-- 50 -->
      <g transform="translate(70.275 245.618146) scale(0.1 -0.1)">
       <use xlink:href="#DejaVuSans-35"/>
       <use xlink:href="#DejaVuSans-30" x="63.623047"/>
      </g>
     </g>
    </g>
    <g id="ytick_3">
     <g id="line2d_19">
      <path d="M 90 202.071293 
L 648 202.071293 
" clip-path="url(#pec9f5182fa)" style="fill: none; stroke: #b0b0b0; stroke-width: 0.8; stroke-linecap: square"/>
     </g>
     <g id="line2d_20">
      <g>
       <use xlink:href="#m9ef7d2a347" x="90" y="202.071293" style="stroke: #000000; stroke-width: 0.8"/>
      </g>
     </g>
     <g id="text_11">
      <!-- 55 -->
      <g transform="translate(70.275 205.870512) scale(0.1 -0.1)">
       <use xlink:href="#DejaVuSans-35"/>
       <use xlink:href="#DejaVuSans-35" x="63.623047"/>
      </g>
     </g>
    </g>
    <g id="ytick_4">
     <g id="line2d_21">
      <path d="M 90 162.323659 
L 648 162.323659 
" clip-path="url(#pec9f5182fa)" style="fill: none; stroke: #b0b0b0; stroke-width: 0.8; stroke-linecap: square"/>
     </g>
     <g id="line2d_22">
      <g>
       <use xlink:href="#m9ef7d2a347" x="90" y="162.323659" style="stroke: #000000; stroke-width: 0.8"/>
      </g>
     </g>
     <g id="text_12">
      <!-- 60 -->
      <g transform="translate(70.275 166.122878) scale(0.1 -0.1)">
       <use xlink:href="#DejaVuSans-36"/>
       <use xlink:href="#DejaVuSans-30" x="63.623047"/>
      </g>
     </g>
    </g>
    <g id="ytick_5">
     <g id="line2d_23">
      <path d="M 90 122.576025 
L 648 122.576025 
" clip-path="url(#pec9f5182fa)" style="fill: none; stroke: #b0b0b0; stroke-width: 0.8; stroke-linecap: square"/>
     </g>
     <g id="line2d_24">
      <g>
       <use xlink:href="#m9ef7d2a347" x="90" y="122.576025" style="stroke: #000000; stroke-width: 0.8"/>
      </g>
     </g>
     <g id="text_13">
      <!-- 65 -->
      <g transform="translate(70.275 126.375244) scale(0.1 -0.1)">
       <use xlink:href="#DejaVuSans-36"/>
       <use xlink:href="#DejaVuSans-35" x="63.623047"/>
      </g>
     </g>
    </g>
    <g id="ytick_6">
     <g id="line2d_25">
      <path d="M 90 82.828391 
L 648 82.828391 
" clip-path="url(#pec9f5182fa)" style="fill: none; stroke: #b0b0b0; stroke-width: 0.8; stroke-linecap: square"/>
     </g>
     <g id="line2d_26">
      <g>
       <use xlink:href="#m9ef7d2a347" x="90" y="82.828391" style="stroke: #000000; stroke-width: 0.8"/>
      </g>
     </g>
     <g id="text_14">
      <!-- 70 -->
      <g transform="translate(70.275 86.62761) scale(0.1 -0.1)">
       <defs>
        <path id="DejaVuSans-37" d="M 525 4666 
L 3525 4666 
L 3525 4397 
L 1831 0 
L 1172 0 
L 2766 4134 
L 525 4134 
L 525 4666 
z
" transform="scale(0.015625)"/>
       </defs>
       <use xlink:href="#DejaVuSans-37"/>
       <use xlink:href="#DejaVuSans-30" x="63.623047"/>
      </g>
     </g>
    </g>
    <g id="text_15">
     <!-- Lydnivå LAeq (dB) -->
     <g transform="translate(64.195312 227.010937) rotate(-90) scale(0.1 -0.1)">
      <defs>
       <path id="DejaVuSans-4c" d="M 628 4666 
L 1259 4666 
L 1259 531 
L 3531 531 
L 3531 0 
L 628 0 
L 628 4666 
z
" transform="scale(0.015625)"/>
       <path id="DejaVuSans-79" d="M 2059 -325 
Q 1816 -950 1584 -1140 
Q 1353 -1331 966 -1331 
L 506 -1331 
L 506 -850 
L 844 -850 
Q 1081 -850 1212 -737 
Q 1344 -625 1503 -206 
L 1606 56 
L 191 3500 
L 800 3500 
L 1894 763 
L 2988 3500 
L 3597 3500 
L 2059 -325 
z
" transform="scale(0.015625)"/>
       <path id="DejaVuSans-76" d="M 191 3500 
L 800 3500 
L 1894 563 
L 2988 3500 
L 3597 3500 
L 2284 0 
L 1503 0 
L 191 3500 
z
" transform="scale(0.015625)"/>
       <path id="DejaVuSans-e5" d="M 2194 1759 
Q 1497 1759 1228 1600 
Q 959 1441 959 1056 
Q 959 750 1161 570 
Q 1363 391 1709 391 
Q 2188 391 2477 730 
Q 2766 1069 2766 1631 
L 2766 1759 
L 2194 1759 
z
M 3341 1997 
L 3341 0 
L 2766 0 
L 2766 531 
Q 2569 213 2275 61 
Q 1981 -91 1556 -91 
Q 1019 -91 701 211 
Q 384 513 384 1019 
Q 384 1609 779 1909 
Q 1175 2209 1959 2209 
L 2766 2209 
L 2766 2266 
Q 2766 2663 2505 2880 
Q 2244 3097 1772 3097 
Q 1472 3097 1187 3025 
Q 903 2953 641 2809 
L 641 3341 
Q 956 3463 1253 3523 
Q 1550 3584 1831 3584 
Q 2591 3584 2966 3190 
Q 3341 2797 3341 1997 
z
M 2331 4763 
Q 2331 4959 2193 5096 
Q 2056 5234 1856 5234 
Q 1653 5234 1517 5098 
Q 1381 4963 1381 4763 
Q 1381 4559 1517 4423 
Q 1653 4288 1856 4288 
Q 2056 4288 2193 4425 
Q 2331 4563 2331 4763 
z
M 2712 4763 
Q 2712 4403 2463 4153 
Q 2215 3903 1856 3903 
Q 1497 3903 1248 4153 
Q 1000 4403 1000 4763 
Q 1000 5122 1248 5370 
Q 1497 5619 1856 5619 
Q 2215 5619 2463 5370 
Q 2712 5122 2712 4763 
z
" transform="scale(0.015625)"/>
       <path id="DejaVuSans-41" d="M 2188 4044 
L 1331 1722 
L 3047 1722 
L 2188 4044 
z
M 1831 4666 
L 2547 4666 
L 4325 0 
L 3669 0 
L 3244 1197 
L 1141 1197 
L 716 0 
L 50 0 
L 1831 4666 
z
" transform="scale(0.015625)"/>
       <path id="DejaVuSans-71" d="M 947 1747 
Q 947 1113 1208 752 
Q 1469 391 1925 391 
Q 2381 391 2643 752 
Q 2906 1113 2906 1747 
Q 2906 2381 2643 2742 
Q 2381 3103 1925 3103 
Q 1469 3103 1208 2742 
Q 947 2381 947 1747 
z
M 2906 525 
Q 2725 213 2448 61 
Q 2172 -91 1784 -91 
Q 1150 -91 751 415 
Q 353 922 353 1747 
Q 353 2572 751 3078 
Q 1150 3584 1784 3584 
Q 2172 3584 2448 3432 
Q 2725 3281 2906 2969 
L 2906 3500 
L 3481 3500 
L 3481 -1331 
L 2906 -1331 
L 2906 525 
z
" transform="scale(0.015625)"/>
       <path id="DejaVuSans-42" d="M 1259 2228 
L 1259 519 
L 2272 519 
Q 2781 519 3026 730 
Q 3272 941 3272 1375 
Q 3272 1813 3026 2020 
Q 2781 2228 2272 2228 
L 1259 2228 
z
M 1259 4147 
L 1259 2741 
L 2194 2741 
Q 2656 2741 2882 2914 
Q 3109 3088 3109 3444 
Q 3109 3797 2882 3972 
Q 2656 4147 2194 4147 
L 1259 4147 
z
M 628 4666 
L 2241 4666 
Q 2963 4666 3353 4366 
Q 3744 4066 3744 3513 
Q 3744 3084 3544 2831 
Q 3344 2578 2956 2516 
Q 3422 2416 3680 2098 
Q 3938 1781 3938 1306 
Q 3938 681 3513 340 
Q 3088 0 2303 0 
L 628 0 
L 628 4666 
z
" transform="scale(0.015625)"/>
      </defs>
      <use xlink:href="#DejaVuSans-4c"/>
      <use xlink:href="#DejaVuSans-79" x="46.587891"/>
      <use xlink:href="#DejaVuSans-64" x="105.767578"/>
      <use xlink:href="#DejaVuSans-6e" x="169.244141"/>
      <use xlink:href="#DejaVuSans-69" x="232.623047"/>
      <use xlink:href="#DejaVuSans-76" x="260.40625"/>
      <use xlink:href="#DejaVuSans-e5" x="319.585938"/>
      <use xlink:href="#DejaVuSans-20" x="380.865234"/>
      <use xlink:href="#DejaVuSans-4c" x="412.652344"/>
      <use xlink:href="#DejaVuSans-41" x="470.615234"/>
      <use xlink:href="#DejaVuSans-65" x="537.273438"/>
      <use xlink:href="#DejaVuSans-71" x="598.796875"/>
      <use xlink:href="#DejaVuSans-20" x="662.273438"/>
      <use xlink:href="#DejaVuSans-28" x="694.060547"/>
      <use xlink:href="#DejaVuSans-64" x="733.074219"/>
      <use xlink:href="#DejaVuSans-42" x="796.550781"/>
      <use xlink:href="#DejaVuSans-29" x="865.154297"/>
     </g>
    </g>
   </g>
   <g id="line2d_27">
    <path d="M 115.363636 113.036593 
L 121.06333 205.251104 
L 126.763023 259.307886 
L 132.462717 173.452997 
L 138.162411 248.973502 
L 143.862104 287.926183 
L 149.561798 201.276341 
L 155.261491 178.222713 
L 160.961185 180.607571 
L 166.660878 151.194322 
L 172.360572 162.323659 
L 178.060266 143.244795 
L 183.759959 198.891483 
L 189.459653 191.736909 
L 195.159346 135.295268 
L 200.85904 69.314196 
L 206.558733 170.273186 
L 212.258427 158.348896 
L 217.958121 145.629653 
L 223.657814 227.509779 
L 229.357508 269.642271 
L 235.057201 241.023975 
L 240.756895 162.323659 
L 246.456588 124.165931 
L 252.156282 136.090221 
L 257.855975 210.02082 
L 263.555669 90.777918 
L 269.255363 182.992429 
L 274.955056 65.339432 
L 280.65475 184.582334 
L 286.354443 106.676972 
L 292.054137 116.216404 
L 297.75383 113.036593 
L 303.453524 141.65489 
L 309.153218 178.222713 
L 314.852911 73.288959 
L 320.552605 242.61388 
L 326.252298 140.859937 
L 331.951992 163.913565 
L 337.651685 241.818927 
L 343.351379 134.500315 
L 349.051073 194.916719 
L 354.750766 124.165931 
L 360.45046 144.8347 
L 366.150153 114.626498 
L 371.849847 176.632808 
L 377.54954 167.093375 
L 383.249234 121.781073 
L 388.948927 78.853628 
L 394.648621 143.244795 
L 400.348315 152.784227 
L 406.048008 260.102839 
L 411.747702 147.219558 
L 417.447395 156.758991 
L 423.147089 236.254259 
L 428.846782 168.683281 
L 434.546476 241.818927 
L 440.24617 216.380442 
L 445.945863 190.941956 
L 451.645557 55.8 
L 457.34525 145.629653 
L 463.044944 206.841009 
L 468.744637 242.61388 
L 474.444331 206.046057 
L 480.144025 150.399369 
L 485.843718 256.128076 
L 491.543412 217.970347 
L 497.243105 181.402524 
L 502.942799 231.484543 
L 508.642492 140.859937 
L 514.342186 184.582334 
L 520.041879 111.446688 
L 525.741573 144.039748 
L 531.441267 176.632808 
L 537.14096 180.607571 
L 542.840654 214.790536 
L 548.540347 139.270032 
L 554.240041 163.118612 
L 559.939734 209.225868 
L 565.639428 121.781073 
L 571.339122 149.604416 
L 577.038815 150.399369 
L 582.738509 90.777918 
L 588.438202 127.345741 
L 594.137896 195.711672 
L 599.837589 218.7653 
L 605.537283 127.345741 
L 611.236977 169.478233 
L 616.93667 231.484543 
L 622.636364 255.333123 
" clip-path="url(#pec9f5182fa)" style="fill: none; stroke: #1f77b4; stroke-width: 1.5; stroke-linecap: square"/>
    <defs>
     <path id="mfe4e6ec3cb" d="M 0 3 
C 0.795609 3 1.55874 2.683901 2.12132 2.12132 
C 2.683901 1.55874 3 0.795609 3 0 
C 3 -0.795609 2.683901 -1.55874 2.12132 -2.12132 
C 1.55874 -2.683901 0.795609 -3 0 -3 
C -0.795609 -3 -1.55874 -2.683901 -2.12132 -2.12132 
C -2.683901 -1.55874 -3 -0.795609 -3 0 
C -3 0.795609 -2.683901 1.55874 -2.12132 2.12132 
C -1.55874 2.683901 -0.795609 3 0 3 
z
" style="stroke: #1f77b4"/>
    </defs>
    <g clip-path="url(#pec9f5182fa)">
     <use xlink:href="#mfe4e6ec3cb" x="115.363636" y="113.036593" style="fill: #1f77b4; stroke: #1f77b4"/>
     <use xlink:href="#mfe4e6ec3cb" x="121.06333" y="205.251104" style="fill: #1f77b4; stroke: #1f77b4"/>
     <use xlink:href="#mfe4e6ec3cb" x="126.763023" y="259.307886" style="fill: #1f77b4; stroke: #1f77b4"/>
     <use xlink:href="#mfe4e6ec3cb" x="132.462717" y="173.452997" style="fill: #1f77b4; stroke: #1f77b4"/>
     <use xlink:href="#mfe4e6ec3cb" x="138.162411" y="248.973502" style="fill: #1f77b4; stroke: #1f77b4"/>
     <use xlink:href="#mfe4e6ec3cb" x="143.862104" y="287.926183" style="fill: #1f77b4; stroke: #1f77b4"/>
     <use xlink:href="#mfe4e6ec3cb" x="149.561798" y="201.276341" style="fill: #1f77b4; stroke: #1f77b4"/>
     <use xlink:href="#mfe4e6ec3cb" x="155.261491" y="178.222713" style="fill: #1f77b4; stroke: #1f77b4"/>
     <use xlink:href="#mfe4e6ec3cb" x="160.961185" y="180.607571" style="fill: #1f77b4; stroke: #1f77b4"/>
     <use xlink:href="#mfe4e6ec3cb" x="166.660878" y="151.194322" style="fill: #1f77b4; stroke: #1f77b4"/>
     <use xlink:href="#mfe4e6ec3cb" x="172.360572" y="162.323659" style="fill: #1f77b4; stroke: #1f77b4"/>
     <use xlink:href="#mfe4e6ec3cb" x="178.060266" y="143.244795" style="fill: #1f77b4; stroke: #1f77b4"/>
     <use xlink:href="#mfe4e6ec3cb" x="183.759959" y="198.891483" style="fill: #1f77b4; stroke: #1f77b4"/>
     <use xlink:href="#mfe4e6ec3cb" x="189.459653" y="191.736909" style="fill: #1f77b4; stroke: #1f77b4"/>
     <use xlink:href="#mfe4e6ec3cb" x="195.159346" y="135.295268" style="fill: #1f77b4; stroke: #1f77b4"/>
     <use xlink:href="#mfe4e6ec3cb" x="200.85904" y="69.314196" style="fill: #1f77b4; stroke: #1f77b4"/>
     <use xlink:href="#mfe4e6ec3cb" x="206.558733" y="170.273186" style="fill: #1f77b4; stroke: #1f77b4"/>
     <use xlink:href="#mfe4e6ec3cb" x="212.258427" y="158.348896" style="fill: #1f77b4; stroke: #1f77b4"/>
     <use xlink:href="#mfe4e6ec3cb" x="217.958121" y="145.629653" style="fill: #1f77b4; stroke: #1f77b4"/>
     <use xlink:href="#mfe4e6ec3cb" x="223.657814" y="227.509779" style="fill: #1f77b4; stroke: #1f77b4"/>
     <use xlink:href="#mfe4e6ec3cb" x="229.357508" y="269.642271" style="fill: #1f77b4; stroke: #1f77b4"/>
     <use xlink:href="#mfe4e6ec3cb" x="235.057201" y="241.023975" style="fill: #1f77b4; stroke: #1f77b4"/>
     <use xlink:href="#mfe4e6ec3cb" x="240.756895" y="162.323659" style="fill: #1f77b4; stroke: #1f77b4"/>
     <use xlink:href="#mfe4e6ec3cb" x="246.456588" y="124.165931" style="fill: #1f77b4; stroke: #1f77b4"/>
     <use xlink:href="#mfe4e6ec3cb" x="252.156282" y="136.090221" style="fill: #1f77b4; stroke: #1f77b4"/>
     <use xlink:href="#mfe4e6ec3cb" x="257.855975" y="210.02082" style="fill: #1f77b4; stroke: #1f77b4"/>
     <use xlink:href="#mfe4e6ec3cb" x="263.555669" y="90.777918" style="fill: #1f77b4; stroke: #1f77b4"/>
     <use xlink:href="#mfe4e6ec3cb" x="269.255363" y="182.992429" style="fill: #1f77b4; stroke: #1f77b4"/>
     <use xlink:href="#mfe4e6ec3cb" x="274.955056" y="65.339432" style="fill: #1f77b4; stroke: #1f77b4"/>
     <use xlink:href="#mfe4e6ec3cb" x="280.65475" y="184.582334" style="fill: #1f77b4; stroke: #1f77b4"/>
     <use xlink:href="#mfe4e6ec3cb" x="286.354443" y="106.676972" style="fill: #1f77b4; stroke: #1f77b4"/>
     <use xlink:href="#mfe4e6ec3cb" x="292.054137" y="116.216404" style="fill: #1f77b4; stroke: #1f77b4"/>
     <use xlink:href="#mfe4e6ec3cb" x="297.75383" y="113.036593" style="fill: #1f77b4; stroke: #1f77b4"/>
     <use xlink:href="#mfe4e6ec3cb" x="303.453524" y="141.65489" style="fill: #1f77b4; stroke: #1f77b4"/>
     <use xlink:href="#mfe4e6ec3cb" x="309.153218" y="178.222713" style="fill: #1f77b4; stroke: #1f77b4"/>
     <use xlink:href="#mfe4e6ec3cb" x="314.852911" y="73.288959" style="fill: #1f77b4; stroke: #1f77b4"/>
     <use xlink:href="#mfe4e6ec3cb" x="320.552605" y="242.61388" style="fill: #1f77b4; stroke: #1f77b4"/>
     <use xlink:href="#mfe4e6ec3cb" x="326.252298" y="140.859937" style="fill: #1f77b4; stroke: #1f77b4"/>
     <use xlink:href="#mfe4e6ec3cb" x="331.951992" y="163.913565" style="fill: #1f77b4; stroke: #1f77b4"/>
     <use xlink:href="#mfe4e6ec3cb" x="337.651685" y="241.818927" style="fill: #1f77b4; stroke: #1f77b4"/>
     <use xlink:href="#mfe4e6ec3cb" x="343.351379" y="134.500315" style="fill: #1f77b4; stroke: #1f77b4"/>
     <use xlink:href="#mfe4e6ec3cb" x="349.051073" y="194.916719" style="fill: #1f77b4; stroke: #1f77b4"/>
     <use xlink:href="#mfe4e6ec3cb" x="354.750766" y="124.165931" style="fill: #1f77b4; stroke: #1f77b4"/>
     <use xlink:href="#mfe4e6ec3cb" x="360.45046" y="144.8347" style="fill: #1f77b4; stroke: #1f77b4"/>
     <use xlink:href="#mfe4e6ec3cb" x="366.150153" y="114.626498" style="fill: #1f77b4; stroke: #1f77b4"/>
     <use xlink:href="#mfe4e6ec3cb" x="371.849847" y="176.632808" style="fill: #1f77b4; stroke: #1f77b4"/>
     <use xlink:href="#mfe4e6ec3cb" x="377.54954" y="167.093375" style="fill: #1f77b4; stroke: #1f77b4"/>
     <use xlink:href="#mfe4e6ec3cb" x="383.249234" y="121.781073" style="fill: #1f77b4; stroke: #1f77b4"/>
     <use xlink:href="#mfe4e6ec3cb" x="388.948927" y="78.853628" style="fill: #1f77b4; stroke: #1f77b4"/>
     <use xlink:href="#mfe4e6ec3cb" x="394.648621" y="143.244795" style="fill: #1f77b4; stroke: #1f77b4"/>
     <use xlink:href="#mfe4e6ec3cb" x="400.348315" y="152.784227" style="fill: #1f77b4; stroke: #1f77b4"/>
     <use xlink:href="#mfe4e6ec3cb" x="406.048008" y="260.102839" style="fill: #1f77b4; stroke: #1f77b4"/>
     <use xlink:href="#mfe4e6ec3cb" x="411.747702" y="147.219558" style="fill: #1f77b4; stroke: #1f77b4"/>
     <use xlink:href="#mfe4e6ec3cb" x="417.447395" y="156.758991" style="fill: #1f77b4; stroke: #1f77b4"/>
     <use xlink:href="#mfe4e6ec3cb" x="423.147089" y="236.254259" style="fill: #1f77b4; stroke: #1f77b4"/>
     <use xlink:href="#mfe4e6ec3cb" x="428.846782" y="168.683281" style="fill: #1f77b4; stroke: #1f77b4"/>
     <use xlink:href="#mfe4e6ec3cb" x="434.546476" y="241.818927" style="fill: #1f77b4; stroke: #1f77b4"/>
     <use xlink:href="#mfe4e6ec3cb" x="440.24617" y="216.380442" style="fill: #1f77b4; stroke: #1f77b4"/>
     <use xlink:href="#mfe4e6ec3cb" x="445.945863" y="190.941956" style="fill: #1f77b4; stroke: #1f77b4"/>
     <use xlink:href="#mfe4e6ec3cb" x="451.645557" y="55.8" style="fill: #1f77b4; stroke: #1f77b4"/>
     <use xlink:href="#mfe4e6ec3cb" x="457.34525" y="145.629653" style="fill: #1f77b4; stroke: #1f77b4"/>
     <use xlink:href="#mfe4e6ec3cb" x="463.044944" y="206.841009" style="fill: #1f77b4; stroke: #1f77b4"/>
     <use xlink:href="#mfe4e6ec3cb" x="468.744637" y="242.61388" style="fill: #1f77b4; stroke: #1f77b4"/>
     <use xlink:href="#mfe4e6ec3cb" x="474.444331" y="206.046057" style="fill: #1f77b4; stroke: #1f77b4"/>
     <use xlink:href="#mfe4e6ec3cb" x="480.144025" y="150.399369" style="fill: #1f77b4; stroke: #1f77b4"/>
     <use xlink:href="#mfe4e6ec3cb" x="485.843718" y="256.128076" style="fill: #1f77b4; stroke: #1f77b4"/>
     <use xlink:href="#mfe4e6ec3cb" x="491.543412" y="217.970347" style="fill: #1f77b4; stroke: #1f77b4"/>
     <use xlink:href="#mfe4e6ec3cb" x="497.243105" y="181.402524" style="fill: #1f77b4; stroke: #1f77b4"/>
     <use xlink:href="#mfe4e6ec3cb" x="502.942799" y="231.484543" style="fill: #1f77b4; stroke: #1f77b4"/>
     <use xlink:href="#mfe4e6ec3cb" x="508.642492" y="140.859937" style="fill: #1f77b4; stroke: #1f77b4"/>
     <use xlink:href="#mfe4e6ec3cb" x="514.342186" y="184.582334" style="fill: #1f77b4; stroke: #1f77b4"/>
     <use xlink:href="#mfe4e6ec3cb" x="520.041879" y="111.446688" style="fill: #1f77b4; stroke: #1f77b4"/>
     <use xlink:href="#mfe4e6ec3cb" x="525.741573" y="144.039748" style="fill: #1f77b4; stroke: #1f77b4"/>
     <use xlink:href="#mfe4e6ec3cb" x="531.441267" y="176.632808" style="fill: #1f77b4; stroke: #1f77b4"/>
     <use xlink:href="#mfe4e6ec3cb" x="537.14096" y="180.607571" style="fill: #1f77b4; stroke: #1f77b4"/>
     <use xlink:href="#mfe4e6ec3cb" x="542.840654" y="214.790536" style="fill: #1f77b4; stroke: #1f77b4"/>
     <use xlink:href="#mfe4e6ec3cb" x="548.540347" y="139.270032" style="fill: #1f77b4; stroke: #1f77b4"/>
     <use xlink:href="#mfe4e6ec3cb" x="554.240041" y="163.118612" style="fill: #1f77b4; stroke: #1f77b4"/>
     <use xlink:href="#mfe4e6ec3cb" x="559.939734" y="209.225868" style="fill: #1f77b4; stroke: #1f77b4"/>
     <use xlink:href="#mfe4e6ec3cb" x="565.639428" y="121.781073" style="fill: #1f77b4; stroke: #1f77b4"/>
     <use xlink:href="#mfe4e6ec3cb" x="571.339122" y="149.604416" style="fill: #1f77b4; stroke: #1f77b4"/>
     <use xlink:href="#mfe4e6ec3cb" x="577.038815" y="150.399369" style="fill: #1f77b4; stroke: #1f77b4"/>
     <use xlink:href="#mfe4e6ec3cb" x="582.738509" y="90.777918" style="fill: #1f77b4; stroke: #1f77b4"/>
     <use xlink:href="#mfe4e6ec3cb" x="588.438202" y="127.345741" style="fill: #1f77b4; stroke: #1f77b4"/>
     <use xlink:href="#mfe4e6ec3cb" x="594.137896" y="195.711672" style="fill: #1f77b4; stroke: #1f77b4"/>
     <use xlink:href="#mfe4e6ec3cb" x="599.837589" y="218.7653" style="fill: #1f77b4; stroke: #1f77b4"/>
     <use xlink:href="#mfe4e6ec3cb" x="605.537283" y="127.345741" style="fill: #1f77b4; stroke: #1f77b4"/>
     <use xlink:href="#mfe4e6ec3cb" x="611.236977" y="169.478233" style="fill: #1f77b4; stroke: #1f77b4"/>
     <use xlink:href="#mfe4e6ec3cb" x="616.93667" y="231.484543" style="fill: #1f77b4; stroke: #1f77b4"/>
     <use xlink:href="#mfe4e6ec3cb" x="622.636364" y="255.333123" style="fill: #1f77b4; stroke: #1f77b4"/>
    </g>
   </g>
   <g id="line2d_28">
    <path d="M 115.363636 278.386751 
L 121.06333 216.380442 
L 126.763023 220.355205 
L 132.462717 205.251104 
L 138.162411 230.68959 
L 143.862104 246.588644 
L 149.561798 307.8 
L 155.261491 212.405678 
L 160.961185 170.273186 
L 166.660878 237.844164 
L 172.360572 233.074448 
L 178.060266 224.329968 
L 183.759959 242.61388 
L 189.459653 262.487697 
L 195.159346 276.796845 
L 200.85904 225.124921 
L 206.558733 196.506625 
L 212.258427 271.232177 
L 217.958121 194.121767 
L 223.657814 206.046057 
L 229.357508 231.484543 
L 235.057201 259.307886 
L 240.756895 249.768454 
L 246.456588 224.329968 
L 252.156282 259.307886 
L 257.855975 255.333123 
L 263.555669 213.200631 
L 269.255363 283.95142 
L 274.955056 202.071293 
L 280.65475 284.746372 
L 286.354443 222.740063 
L 292.054137 219.560252 
L 297.75383 242.61388 
L 303.453524 214.790536 
L 309.153218 227.509779 
L 314.852911 239.434069 
L 320.552605 208.430915 
L 326.252298 207.635962 
L 331.951992 273.617035 
L 337.651685 215.585489 
L 343.351379 213.200631 
L 349.051073 237.049211 
L 354.750766 217.970347 
L 360.45046 281.566562 
L 366.150153 229.894637 
L 371.849847 227.509779 
L 377.54954 217.175394 
L 383.249234 218.7653 
L 388.948927 191.736909 
L 394.648621 224.329968 
L 400.348315 221.150158 
L 406.048008 233.074448 
L 411.747702 222.740063 
L 417.447395 253.743218 
L 423.147089 250.563407 
L 428.846782 230.68959 
L 434.546476 244.998738 
L 440.24617 233.869401 
L 445.945863 167.093375 
L 451.645557 239.434069 
L 457.34525 251.35836 
L 463.044944 244.998738 
L 468.744637 232.279495 
L 474.444331 242.61388 
L 480.144025 244.203785 
L 485.843718 242.61388 
L 491.543412 237.049211 
L 497.243105 221.150158 
L 502.942799 198.891483 
L 508.642492 250.563407 
L 514.342186 221.150158 
L 520.041879 248.178549 
L 525.741573 223.535016 
L 531.441267 245.793691 
L 537.14096 242.61388 
L 542.840654 206.841009 
L 548.540347 253.743218 
L 554.240041 235.459306 
L 559.939734 233.869401 
L 565.639428 252.948265 
L 571.339122 257.717981 
L 577.038815 217.970347 
L 582.738509 222.740063 
L 588.438202 225.124921 
L 594.137896 202.866246 
L 599.837589 208.430915 
L 605.537283 211.610726 
L 611.236977 240.229022 
L 616.93667 223.535016 
L 622.636364 225.124921 
" clip-path="url(#pec9f5182fa)" style="fill: none; stroke: #ff7f0e; stroke-width: 1.5; stroke-linecap: square"/>
    <defs>
     <path id="maaa169261b" d="M -3 3 
L 3 3 
L 3 -3 
L -3 -3 
z
" style="stroke: #ff7f0e; stroke-linejoin: miter"/>
    </defs>
    <g clip-path="url(#pec9f5182fa)">
     <use xlink:href="#maaa169261b" x="115.363636" y="278.386751" style="fill: #ff7f0e; stroke: #ff7f0e; stroke-linejoin: miter"/>
     <use xlink:href="#maaa169261b" x="121.06333" y="216.380442" style="fill: #ff7f0e; stroke: #ff7f0e; stroke-linejoin: miter"/>
     <use xlink:href="#maaa169261b" x="126.763023" y="220.355205" style="fill: #ff7f0e; stroke: #ff7f0e; stroke-linejoin: miter"/>
     <use xlink:href="#maaa169261b" x="132.462717" y="205.251104" style="fill: #ff7f0e; stroke: #ff7f0e; stroke-linejoin: miter"/>
     <use xlink:href="#maaa169261b" x="138.162411" y="230.68959" style="fill: #ff7f0e; stroke: #ff7f0e; stroke-linejoin: miter"/>
     <use xlink:href="#maaa169261b" x="143.862104" y="246.588644" style="fill: #ff7f0e; stroke: #ff7f0e; stroke-linejoin: miter"/>
     <use xlink:href="#maaa169261b" x="149.561798" y="307.8" style="fill: #ff7f0e; stroke: #ff7f0e; stroke-linejoin: miter"/>
     <use xlink:href="#maaa169261b" x="155.261491" y="212.405678" style="fill: #ff7f0e; stroke: #ff7f0e; stroke-linejoin: miter"/>
     <use xlink:href="#maaa169261b" x="160.961185" y="170.273186" style="fill: #ff7f0e; stroke: #ff7f0e; stroke-linejoin: miter"/>
     <use xlink:href="#maaa169261b" x="166.660878" y="237.844164" style="fill: #ff7f0e; stroke: #ff7f0e; stroke-linejoin: miter"/>
     <use xlink:href="#maaa169261b" x="172.360572" y="233.074448" style="fill: #ff7f0e; stroke: #ff7f0e; stroke-linejoin: miter"/>
     <use xlink:href="#maaa169261b" x="178.060266" y="224.329968" style="fill: #ff7f0e; stroke: #ff7f0e; stroke-linejoin: miter"/>
     <use xlink:href="#maaa169261b" x="183.759959" y="242.61388" style="fill: #ff7f0e; stroke: #ff7f0e; stroke-linejoin: miter"/>
     <use xlink:href="#maaa169261b" x="189.459653" y="262.487697" style="fill: #ff7f0e; stroke: #ff7f0e; stroke-linejoin: miter"/>
     <use xlink:href="#maaa169261b" x="195.159346" y="276.796845" style="fill: #ff7f0e; stroke: #ff7f0e; stroke-linejoin: miter"/>
     <use xlink:href="#maaa169261b" x="200.85904" y="225.124921" style="fill: #ff7f0e; stroke: #ff7f0e; stroke-linejoin: miter"/>
     <use xlink:href="#maaa169261b" x="206.558733" y="196.506625" style="fill: #ff7f0e; stroke: #ff7f0e; stroke-linejoin: miter"/>
     <use xlink:href="#maaa169261b" x="212.258427" y="271.232177" style="fill: #ff7f0e; stroke: #ff7f0e; stroke-linejoin: miter"/>
     <use xlink:href="#maaa169261b" x="217.958121" y="194.121767" style="fill: #ff7f0e; stroke: #ff7f0e; stroke-linejoin: miter"/>
     <use xlink:href="#maaa169261b" x="223.657814" y="206.046057" style="fill: #ff7f0e; stroke: #ff7f0e; stroke-linejoin: miter"/>
     <use xlink:href="#maaa169261b" x="229.357508" y="231.484543" style="fill: #ff7f0e; stroke: #ff7f0e; stroke-linejoin: miter"/>
     <use xlink:href="#maaa169261b" x="235.057201" y="259.307886" style="fill: #ff7f0e; stroke: #ff7f0e; stroke-linejoin: miter"/>
     <use xlink:href="#maaa169261b" x="240.756895" y="249.768454" style="fill: #ff7f0e; stroke: #ff7f0e; stroke-linejoin: miter"/>
     <use xlink:href="#maaa169261b" x="246.456588" y="224.329968" style="fill: #ff7f0e; stroke: #ff7f0e; stroke-linejoin: miter"/>
     <use xlink:href="#maaa169261b" x="252.156282" y="259.307886" style="fill: #ff7f0e; stroke: #ff7f0e; stroke-linejoin: miter"/>
     <use xlink:href="#maaa169261b" x="257.855975" y="255.333123" style="fill: #ff7f0e; stroke: #ff7f0e; stroke-linejoin: miter"/>
     <use xlink:href="#maaa169261b" x="263.555669" y="213.200631" style="fill: #ff7f0e; stroke: #ff7f0e; stroke-linejoin: miter"/>
     <use xlink:href="#maaa169261b" x="269.255363" y="283.95142" style="fill: #ff7f0e; stroke: #ff7f0e; stroke-linejoin: miter"/>
     <use xlink:href="#maaa169261b" x="274.955056" y="202.071293" style="fill: #ff7f0e; stroke: #ff7f0e; stroke-linejoin: miter"/>
     <use xlink:href="#maaa169261b" x="280.65475" y="284.746372" style="fill: #ff7f0e; stroke: #ff7f0e; stroke-linejoin: miter"/>
     <use xlink:href="#maaa169261b" x="286.354443" y="222.740063" style="fill: #ff7f0e; stroke: #ff7f0e; stroke-linejoin: miter"/>
     <use xlink:href="#maaa169261b" x="292.054137" y="219.560252" style="fill: #ff7f0e; stroke: #ff7f0e; stroke-linejoin: miter"/>
     <use xlink:href="#maaa169261b" x="297.75383" y="242.61388" style="fill: #ff7f0e; stroke: #ff7f0e; stroke-linejoin: miter"/>
     <use xlink:href="#maaa169261b" x="303.453524" y="214.790536" style="fill: #ff7f0e; stroke: #ff7f0e; stroke-linejoin: miter"/>
     <use xlink:href="#maaa169261b" x="309.153218" y="227.509779" style="fill: #ff7f0e; stroke: #ff7f0e; stroke-linejoin: miter"/>
     <use xlink:href="#maaa169261b" x="314.852911" y="239.434069" style="fill: #ff7f0e; stroke: #ff7f0e; stroke-linejoin: miter"/>
     <use xlink:href="#maaa169261b" x="320.552605" y="208.430915" style="fill: #ff7f0e; stroke: #ff7f0e; stroke-linejoin: miter"/>
     <use xlink:href="#maaa169261b" x="326.252298" y="207.635962" style="fill: #ff7f0e; stroke: #ff7f0e; stroke-linejoin: miter"/>
     <use xlink:href="#maaa169261b" x="331.951992" y="273.617035" style="fill: #ff7f0e; stroke: #ff7f0e; stroke-linejoin: miter"/>
     <use xlink:href="#maaa169261b" x="337.651685" y="215.585489" style="fill: #ff7f0e; stroke: #ff7f0e; stroke-linejoin: miter"/>
     <use xlink:href="#maaa169261b" x="343.351379" y="213.200631" style="fill: #ff7f0e; stroke: #ff7f0e; stroke-linejoin: miter"/>
     <use xlink:href="#maaa169261b" x="349.051073" y="237.049211" style="fill: #ff7f0e; stroke: #ff7f0e; stroke-linejoin: miter"/>
     <use xlink:href="#maaa169261b" x="354.750766" y="217.970347" style="fill: #ff7f0e; stroke: #ff7f0e; stroke-linejoin: miter"/>
     <use xlink:href="#maaa169261b" x="360.45046" y="281.566562" style="fill: #ff7f0e; stroke: #ff7f0e; stroke-linejoin: miter"/>
     <use xlink:href="#maaa169261b" x="366.150153" y="229.894637" style="fill: #ff7f0e; stroke: #ff7f0e; stroke-linejoin: miter"/>
     <use xlink:href="#maaa169261b" x="371.849847" y="227.509779" style="fill: #ff7f0e; stroke: #ff7f0e; stroke-linejoin: miter"/>
     <use xlink:href="#maaa169261b" x="377.54954" y="217.175394" style="fill: #ff7f0e; stroke: #ff7f0e; stroke-linejoin: miter"/>
     <use xlink:href="#maaa169261b" x="383.249234" y="218.7653" style="fill: #ff7f0e; stroke: #ff7f0e; stroke-linejoin: miter"/>
     <use xlink:href="#maaa169261b" x="388.948927" y="191.736909" style="fill: #ff7f0e; stroke: #ff7f0e; stroke-linejoin: miter"/>
     <use xlink:href="#maaa169261b" x="394.648621" y="224.329968" style="fill: #ff7f0e; stroke: #ff7f0e; stroke-linejoin: miter"/>
     <use xlink:href="#maaa169261b" x="400.348315" y="221.150158" style="fill: #ff7f0e; stroke: #ff7f0e; stroke-linejoin: miter"/>
     <use xlink:href="#maaa169261b" x="406.048008" y="233.074448" style="fill: #ff7f0e; stroke: #ff7f0e; stroke-linejoin: miter"/>
     <use xlink:href="#maaa169261b" x="411.747702" y="222.740063" style="fill: #ff7f0e; stroke: #ff7f0e; stroke-linejoin: miter"/>
     <use xlink:href="#maaa169261b" x="417.447395" y="253.743218" style="fill: #ff7f0e; stroke: #ff7f0e; stroke-linejoin: miter"/>
     <use xlink:href="#maaa169261b" x="423.147089" y="250.563407" style="fill: #ff7f0e; stroke: #ff7f0e; stroke-linejoin: miter"/>
     <use xlink:href="#maaa169261b" x="428.846782" y="230.68959" style="fill: #ff7f0e; stroke: #ff7f0e; stroke-linejoin: miter"/>
     <use xlink:href="#maaa169261b" x="434.546476" y="244.998738" style="fill: #ff7f0e; stroke: #ff7f0e; stroke-linejoin: miter"/>
     <use xlink:href="#maaa169261b" x="440.24617" y="233.869401" style="fill: #ff7f0e; stroke: #ff7f0e; stroke-linejoin: miter"/>
     <use xlink:href="#maaa169261b" x="445.945863" y="167.093375" style="fill: #ff7f0e; stroke: #ff7f0e; stroke-linejoin: miter"/>
     <use xlink:href="#maaa169261b" x="451.645557" y="239.434069" style="fill: #ff7f0e; stroke: #ff7f0e; stroke-linejoin: miter"/>
     <use xlink:href="#maaa169261b" x="457.34525" y="251.35836" style="fill: #ff7f0e; stroke: #ff7f0e; stroke-linejoin: miter"/>
     <use xlink:href="#maaa169261b" x="463.044944" y="244.998738" style="fill: #ff7f0e; stroke: #ff7f0e; stroke-linejoin: miter"/>
     <use xlink:href="#maaa169261b" x="468.744637" y="232.279495" style="fill: #ff7f0e; stroke: #ff7f0e; stroke-linejoin: miter"/>
     <use xlink:href="#maaa169261b" x="474.444331" y="242.61388" style="fill: #ff7f0e; stroke: #ff7f0e; stroke-linejoin: miter"/>
     <use xlink:href="#maaa169261b" x="480.144025" y="244.203785" style="fill: #ff7f0e; stroke: #ff7f0e; stroke-linejoin: miter"/>
     <use xlink:href="#maaa169261b" x="485.843718" y="242.61388" style="fill: #ff7f0e; stroke: #ff7f0e; stroke-linejoin: miter"/>
     <use xlink:href="#maaa169261b" x="491.543412" y="237.049211" style="fill: #ff7f0e; stroke: #ff7f0e; stroke-linejoin: miter"/>
     <use xlink:href="#maaa169261b" x="497.243105" y="221.150158" style="fill: #ff7f0e; stroke: #ff7f0e; stroke-linejoin: miter"/>
     <use xlink:href="#maaa169261b" x="502.942799" y="198.891483" style="fill: #ff7f0e; stroke: #ff7f0e; stroke-linejoin: miter"/>
     <use xlink:href="#maaa169261b" x="508.642492" y="250.563407" style="fill: #ff7f0e; stroke: #ff7f0e; stroke-linejoin: miter"/>
     <use xlink:href="#maaa169261b" x="514.342186" y="221.150158" style="fill: #ff7f0e; stroke: #ff7f0e; stroke-linejoin: miter"/>
     <use xlink:href="#maaa169261b" x="520.041879" y="248.178549" style="fill: #ff7f0e; stroke: #ff7f0e; stroke-linejoin: miter"/>
     <use xlink:href="#maaa169261b" x="525.741573" y="223.535016" style="fill: #ff7f0e; stroke: #ff7f0e; stroke-linejoin: miter"/>
     <use xlink:href="#maaa169261b" x="531.441267" y="245.793691" style="fill: #ff7f0e; stroke: #ff7f0e; stroke-linejoin: miter"/>
     <use xlink:href="#maaa169261b" x="537.14096" y="242.61388" style="fill: #ff7f0e; stroke: #ff7f0e; stroke-linejoin: miter"/>
     <use xlink:href="#maaa169261b" x="542.840654" y="206.841009" style="fill: #ff7f0e; stroke: #ff7f0e; stroke-linejoin: miter"/>
     <use xlink:href="#maaa169261b" x="548.540347" y="253.743218" style="fill: #ff7f0e; stroke: #ff7f0e; stroke-linejoin: miter"/>
     <use xlink:href="#maaa169261b" x="554.240041" y="235.459306" style="fill: #ff7f0e; stroke: #ff7f0e; stroke-linejoin: miter"/>
     <use xlink:href="#maaa169261b" x="559.939734" y="233.869401" style="fill: #ff7f0e; stroke: #ff7f0e; stroke-linejoin: miter"/>
     <use xlink:href="#maaa169261b" x="565.639428" y="252.948265" style="fill: #ff7f0e; stroke: #ff7f0e; stroke-linejoin: miter"/>
     <use xlink:href="#maaa169261b" x="571.339122" y="257.717981" style="fill: #ff7f0e; stroke: #ff7f0e; stroke-linejoin: miter"/>
     <use xlink:href="#maaa169261b" x="577.038815" y="217.970347" style="fill: #ff7f0e; stroke: #ff7f0e; stroke-linejoin: miter"/>
     <use xlink:href="#maaa169261b" x="582.738509" y="222.740063" style="fill: #ff7f0e; stroke: #ff7f0e; stroke-linejoin: miter"/>
     <use xlink:href="#maaa169261b" x="588.438202" y="225.124921" style="fill: #ff7f0e; stroke: #ff7f0e; stroke-linejoin: miter"/>
     <use xlink:href="#maaa169261b" x="594.137896" y="202.866246" style="fill: #ff7f0e; stroke: #ff7f0e; stroke-linejoin: miter"/>
     <use xlink:href="#maaa169261b" x="599.837589" y="208.430915" style="fill: #ff7f0e; stroke: #ff7f0e; stroke-linejoin: miter"/>
     <use xlink:href="#maaa169261b" x="605.537283" y="211.610726" style="fill: #ff7f0e; stroke: #ff7f0e; stroke-linejoin: miter"/>
     <use xlink:href="#maaa169261b" x="611.236977" y="240.229022" style="fill: #ff7f0e; stroke: #ff7f0e; stroke-linejoin: miter"/>
     <use xlink:href="#maaa169261b" x="616.93667" y="223.535016" style="fill: #ff7f0e; stroke: #ff7f0e; stroke-linejoin: miter"/>
     <use xlink:href="#maaa169261b" x="622.636364" y="225.124921" style="fill: #ff7f0e; stroke: #ff7f0e; stroke-linejoin: miter"/>
    </g>
   </g>
   <g id="patch_3">
    <path d="M 90 320.4 
L 90 43.2 
" style="fill: none; stroke: #000000; stroke-width: 0.8; stroke-linejoin: miter; stroke-linecap: square"/>
   </g>
   <g id="patch_4">
    <path d="M 648 320.4 
L 648 43.2 
" style="fill: none; stroke: #000000; stroke-width: 0.8; stroke-linejoin: miter; stroke-linecap: square"/>
   </g>
   <g id="patch_5">
    <path d="M 90 320.4 
L 648 320.4 
" style="fill: none; stroke: #000000; stroke-width: 0.8; stroke-linejoin: miter; stroke-linecap: square"/>
   </g>
   <g id="patch_6">
    <path d="M 90 43.2 
L 648 43.2 
" style="fill: none; stroke: #000000; stroke-width: 0.8; stroke-linejoin: miter; stroke-linecap: square"/>
   </g>
   <g id="text_16">
    <!-- Mot Flatåsen, før VM -->
    <g transform="translate(307.197187 37.2) scale(0.12 -0.12)">
     <defs>
      <path id="DejaVuSans-4d" d="M 628 4666 
L 1569 4666 
L 2759 1491 
L 3956 4666 
L 4897 4666 
L 4897 0 
L 4281 0 
L 4281 4097 
L 3078 897 
L 2444 897 
L 1241 4097 
L 1241 0 
L 628 0 
L 628 4666 
z
" transform="scale(0.015625)"/>
      <path id="DejaVuSans-6f" d="M 1959 3097 
Q 1497 3097 1228 2736 
Q 959 2375 959 1747 
Q 959 1119 1226 758 
Q 1494 397 1959 397 
Q 2419 397 2687 759 
Q 2956 1122 2956 1747 
Q 2956 2369 2687 2733 
Q 2419 3097 1959 3097 
z
M 1959 3584 
Q 2709 3584 3137 3096 
Q 3566 2609 3566 1747 
Q 3566 888 3137 398 
Q 2709 -91 1959 -91 
Q 1206 -91 779 398 
Q 353 888 353 1747 
Q 353 2609 779 3096 
Q 1206 3584 1959 3584 
z
" transform="scale(0.015625)"/>
      <path id="DejaVuSans-46" d="M 628 4666 
L 3309 4666 
L 3309 4134 
L 1259 4134 
L 1259 2759 
L 3109 2759 
L 3109 2228 
L 1259 2228 
L 1259 0 
L 628 0 
L 628 4666 
z
" transform="scale(0.015625)"/>
      <path id="DejaVuSans-6c" d="M 603 4863 
L 1178 4863 
L 1178 0 
L 603 0 
L 603 4863 
z
" transform="scale(0.015625)"/>
      <path id="DejaVuSans-61" d="M 2194 1759 
Q 1497 1759 1228 1600 
Q 959 1441 959 1056 
Q 959 750 1161 570 
Q 1363 391 1709 391 
Q 2188 391 2477 730 
Q 2766 1069 2766 1631 
L 2766 1759 
L 2194 1759 
z
M 3341 1997 
L 3341 0 
L 2766 0 
L 2766 531 
Q 2569 213 2275 61 
Q 1981 -91 1556 -91 
Q 1019 -91 701 211 
Q 384 513 384 1019 
Q 384 1609 779 1909 
Q 1175 2209 1959 2209 
L 2766 2209 
L 2766 2266 
Q 2766 2663 2505 2880 
Q 2244 3097 1772 3097 
Q 1472 3097 1187 3025 
Q 903 2953 641 2809 
L 641 3341 
Q 956 3463 1253 3523 
Q 1550 3584 1831 3584 
Q 2591 3584 2966 3190 
Q 3341 2797 3341 1997 
z
" transform="scale(0.015625)"/>
      <path id="DejaVuSans-73" d="M 2834 3397 
L 2834 2853 
Q 2591 2978 2328 3040 
Q 2066 3103 1784 3103 
Q 1356 3103 1142 2972 
Q 928 2841 928 2578 
Q 928 2378 1081 2264 
Q 1234 2150 1697 2047 
L 1894 2003 
Q 2506 1872 2764 1633 
Q 3022 1394 3022 966 
Q 3022 478 2636 193 
Q 2250 -91 1575 -91 
Q 1294 -91 989 -36 
Q 684 19 347 128 
L 347 722 
Q 666 556 975 473 
Q 1284 391 1588 391 
Q 1994 391 2212 530 
Q 2431 669 2431 922 
Q 2431 1156 2273 1281 
Q 2116 1406 1581 1522 
L 1381 1569 
Q 847 1681 609 1914 
Q 372 2147 372 2553 
Q 372 3047 722 3315 
Q 1072 3584 1716 3584 
Q 2034 3584 2315 3537 
Q 2597 3491 2834 3397 
z
" transform="scale(0.015625)"/>
      <path id="DejaVuSans-2c" d="M 750 794 
L 1409 794 
L 1409 256 
L 897 -744 
L 494 -744 
L 750 256 
L 750 794 
z
" transform="scale(0.015625)"/>
      <path id="DejaVuSans-66" d="M 2375 4863 
L 2375 4384 
L 1825 4384 
Q 1516 4384 1395 4259 
Q 1275 4134 1275 3809 
L 1275 3500 
L 2222 3500 
L 2222 3053 
L 1275 3053 
L 1275 0 
L 697 0 
L 697 3053 
L 147 3053 
L 147 3500 
L 697 3500 
L 697 3744 
Q 697 4328 969 4595 
Q 1241 4863 1831 4863 
L 2375 4863 
z
" transform="scale(0.015625)"/>
      <path id="DejaVuSans-f8" d="M 2828 2503 
L 1306 653 
Q 1434 522 1595 459 
Q 1756 397 1959 397 
Q 2419 397 2687 759 
Q 2956 1122 2956 1747 
Q 2956 1994 2925 2176 
Q 2894 2359 2828 2503 
z
M 2606 2841 
Q 2475 2969 2314 3033 
Q 2153 3097 1959 3097 
Q 1488 3097 1223 2730 
Q 959 2363 959 1703 
Q 959 1478 989 1306 
Q 1019 1134 1081 991 
L 2606 2841 
z
M 691 519 
Q 522 759 437 1067 
Q 353 1375 353 1747 
Q 353 2609 779 3096 
Q 1206 3584 1959 3584 
Q 2250 3584 2498 3504 
Q 2747 3425 2956 3263 
L 3391 3788 
L 3688 3541 
L 3231 2981 
Q 3397 2741 3481 2431 
Q 3566 2122 3566 1747 
Q 3566 888 3137 398 
Q 2709 -91 1959 -91 
Q 1659 -91 1407 -9 
Q 1156 72 959 231 
L 525 -294 
L 225 -50 
L 691 519 
z
" transform="scale(0.015625)"/>
      <path id="DejaVuSans-56" d="M 1831 0 
L 50 4666 
L 709 4666 
L 2188 738 
L 3669 4666 
L 4325 4666 
L 2547 0 
L 1831 0 
z
" transform="scale(0.015625)"/>
     </defs>
     <use xlink:href="#DejaVuSans-4d"/>
     <use xlink:href="#DejaVuSans-6f" x="86.279297"/>
     <use xlink:href="#DejaVuSans-74" x="147.460938"/>
     <use xlink:href="#DejaVuSans-20" x="186.669922"/>
     <use xlink:href="#DejaVuSans-46" x="218.457031"/>
     <use xlink:href="#DejaVuSans-6c" x="275.976562"/>
     <use xlink:href="#DejaVuSans-61" x="303.759766"/>
     <use xlink:href="#DejaVuSans-74" x="365.039062"/>
     <use xlink:href="#DejaVuSans-e5" x="404.248047"/>
     <use xlink:href="#DejaVuSans-73" x="465.527344"/>
     <use xlink:href="#DejaVuSans-65" x="517.626953"/>
     <use xlink:href="#DejaVuSans-6e" x="579.150391"/>
     <use xlink:href="#DejaVuSans-2c" x="642.529297"/>
     <use xlink:href="#DejaVuSans-20" x="674.316406"/>
     <use xlink:href="#DejaVuSans-66" x="706.103516"/>
     <use xlink:href="#DejaVuSans-f8" x="741.308594"/>
     <use xlink:href="#DejaVuSans-72" x="802.490234"/>
     <use xlink:href="#DejaVuSans-20" x="843.603516"/>
     <use xlink:href="#DejaVuSans-56" x="875.390625"/>
     <use xlink:href="#DejaVuSans-4d" x="943.798828"/>
    </g>
   </g>
   <g id="legend_1">
    <g id="patch_7">
     <path d="M 558.404688 80.55625 
L 641 80.55625 
Q 643 80.55625 643 78.55625 
L 643 50.2 
Q 643 48.2 641 48.2 
L 558.404688 48.2 
Q 556.404688 48.2 556.404688 50.2 
L 556.404688 78.55625 
Q 556.404688 80.55625 558.404688 80.55625 
z
" style="fill: #ffffff; opacity: 0.8; stroke: #cccccc; stroke-linejoin: miter"/>
    </g>
    <g id="line2d_29">
     <path d="M 560.404688 56.298437 
L 570.404688 56.298437 
L 580.404688 56.298437 
" style="fill: none; stroke: #1f77b4; stroke-width: 1.5; stroke-linecap: square"/>
     <g>
      <use xlink:href="#mfe4e6ec3cb" x="570.404688" y="56.298437" style="fill: #1f77b4; stroke: #1f77b4"/>
     </g>
    </g>
    <g id="text_17">
     <!-- Channel 1 -->
     <g transform="translate(588.404688 59.798437) scale(0.1 -0.1)">
      <defs>
       <path id="DejaVuSans-43" d="M 4122 4306 
L 4122 3641 
Q 3803 3938 3442 4084 
Q 3081 4231 2675 4231 
Q 1875 4231 1450 3742 
Q 1025 3253 1025 2328 
Q 1025 1406 1450 917 
Q 1875 428 2675 428 
Q 3081 428 3442 575 
Q 3803 722 4122 1019 
L 4122 359 
Q 3791 134 3420 21 
Q 3050 -91 2638 -91 
Q 1578 -91 968 557 
Q 359 1206 359 2328 
Q 359 3453 968 4101 
Q 1578 4750 2638 4750 
Q 3056 4750 3426 4639 
Q 3797 4528 4122 4306 
z
" transform="scale(0.015625)"/>
       <path id="DejaVuSans-68" d="M 3513 2113 
L 3513 0 
L 2938 0 
L 2938 2094 
Q 2938 2591 2744 2837 
Q 2550 3084 2163 3084 
Q 1697 3084 1428 2787 
Q 1159 2491 1159 1978 
L 1159 0 
L 581 0 
L 581 4863 
L 1159 4863 
L 1159 2956 
Q 1366 3272 1645 3428 
Q 1925 3584 2291 3584 
Q 2894 3584 3203 3211 
Q 3513 2838 3513 2113 
z
" transform="scale(0.015625)"/>
      </defs>
      <use xlink:href="#DejaVuSans-43"/>
      <use xlink:href="#DejaVuSans-68" x="69.824219"/>
      <use xlink:href="#DejaVuSans-61" x="133.203125"/>
      <use xlink:href="#DejaVuSans-6e" x="194.482422"/>
      <use xlink:href="#DejaVuSans-6e" x="257.861328"/>
      <use xlink:href="#DejaVuSans-65" x="321.240234"/>
      <use xlink:href="#DejaVuSans-6c" x="382.763672"/>
      <use xlink:href="#DejaVuSans-20" x="410.546875"/>
      <use xlink:href="#DejaVuSans-31" x="442.333984"/>
     </g>
    </g>
    <g id="line2d_30">
     <path d="M 560.404688 70.976562 
L 570.404688 70.976562 
L 580.404688 70.976562 
" style="fill: none; stroke: #ff7f0e; stroke-width: 1.5; stroke-linecap: square"/>
     <g>
      <use xlink:href="#maaa169261b" x="570.404688" y="70.976562" style="fill: #ff7f0e; stroke: #ff7f0e; stroke-linejoin: miter"/>
     </g>
    </g>
    <g id="text_18">
     <!-- Channel 2 -->
     <g transform="translate(588.404688 74.476562) scale(0.1 -0.1)">
      <use xlink:href="#DejaVuSans-43"/>
      <use xlink:href="#DejaVuSans-68" x="69.824219"/>
      <use xlink:href="#DejaVuSans-61" x="133.203125"/>
      <use xlink:href="#DejaVuSans-6e" x="194.482422"/>
      <use xlink:href="#DejaVuSans-6e" x="257.861328"/>
      <use xlink:href="#DejaVuSans-65" x="321.240234"/>
      <use xlink:href="#DejaVuSans-6c" x="382.763672"/>
      <use xlink:href="#DejaVuSans-20" x="410.546875"/>
      <use xlink:href="#DejaVuSans-32" x="442.333984"/>
     </g>
    </g>
   </g>
  </g>
 </g>
 <defs>
  <clipPath id="pec9f5182fa">
   <rect x="90" y="43.2" width="558" height="277.2"/>
  </clipPath>
 </defs>
</svg>
